{"glyphs":{"0":{"ha":881,"x_min":0,"x_max":0,"o":"m 850 675 b 643 1026 846 819 781 957 l 578 936 b 363 1064 540 1021 458 1064 b 31 689 161 1064 35 893 b 32 372 28 572 28 499 b 440 -22 39 144 207 -22 b 849 372 674 -22 840 147 b 850 675 853 493 853 560 z m 597 846 b 668 676 643 808 665 756 b 667 379 671 554 671 499 b 440 150 663 251 582 150 b 214 379 306 150 217 251 b 213 685 211 500 210 563 b 363 893 215 804 265 893 b 426 835 399 893 426 872 b 361 769 426 800 399 778 l 422 606 b 599 828 536 639 599 722 z "},"1":{"ha":596,"x_min":0,"x_max":0,"o":"m 28 438 b 385 563 167 431 307 475 l 385 0 l 568 0 l 568 1042 l 385 1042 l 385 968 b 28 617 385 739 247 617 z "},"2":{"ha":869,"x_min":0,"x_max":0,"o":"m 178 -22 b 354 65 189 -4 254 65 b 656 -22 471 65 532 -22 b 840 51 763 -22 814 22 l 840 249 b 665 163 813 203 769 163 b 300 218 551 163 474 261 b 440 272 322 242 390 264 b 842 668 681 314 842 449 b 444 1064 842 906 664 1064 b 39 665 226 1064 39 890 l 222 665 b 443 893 222 790 313 893 b 658 668 575 893 658 793 b 439 439 658 556 593 475 b 28 121 196 382 96 276 z "},"3":{"ha":849,"x_min":0,"x_max":0,"o":"m 640 364 b 425 149 640 240 554 149 b 208 326 304 149 228 226 l 28 326 b 425 -22 50 85 251 -22 b 821 361 644 -22 821 140 b 764 560 821 435 800 503 b 792 721 782 610 790 664 b 433 1064 794 936 622 1064 b 128 889 306 1064 188 993 l 268 789 b 435 892 294 847 361 892 b 614 718 535 892 614 828 l 613 700 b 414 750 554 732 485 750 b 179 532 279 750 179 667 b 418 311 179 397 283 311 b 639 385 504 311 579 339 z m 419 474 b 349 532 381 474 349 496 b 419 590 349 569 381 590 b 556 540 463 590 514 574 b 419 474 518 496 468 474 z "},"4":{"ha":867,"x_min":0,"x_max":0,"o":"m 839 544 b 614 768 839 675 743 768 b 388 543 486 768 388 674 l 388 417 l 224 417 l 565 1042 l 368 1042 l 28 417 l 28 246 l 388 246 l 388 0 l 561 0 l 561 253 b 839 544 726 283 839 390 z m 668 543 b 563 425 668 489 629 444 l 563 543 b 615 596 563 574 585 596 b 668 543 646 596 668 575 z "},"5":{"ha":822,"x_min":0,"x_max":0,"o":"m 28 265 b 407 -22 68 101 225 -22 b 794 356 624 -22 794 133 b 421 731 794 593 636 731 b 235 669 351 731 282 707 l 235 869 b 571 810 322 893 429 810 b 736 860 622 810 681 822 l 736 1063 b 556 997 683 1010 619 997 b 190 1065 439 997 328 1065 b 63 1042 150 1065 106 1058 l 63 501 l 232 461 b 414 560 274 517 335 560 b 615 353 533 560 615 481 b 406 150 615 229 524 150 b 201 332 299 150 217 228 z "},"6":{"ha":853,"x_min":0,"x_max":0,"o":"m 393 754 b 599 1042 458 853 535 963 l 393 1042 b 124 656 322 947 215 799 b 28 378 75 581 28 486 b 433 -22 28 156 206 -22 b 839 378 657 -22 839 156 b 433 760 839 603 653 763 z m 661 376 b 433 149 661 244 561 149 b 207 379 306 149 207 251 b 279 581 207 460 236 513 b 375 726 304 619 338 671 l 375 582 b 433 590 392 588 415 590 b 661 376 563 590 661 507 z "},"7":{"ha":742,"x_min":0,"x_max":0,"o":"m 513 503 l 714 860 l 714 1063 b 525 994 654 1007 585 994 b 158 1064 408 994 311 1064 b 28 1042 118 1064 74 1057 l 28 836 b 168 883 72 871 119 883 b 488 814 276 883 368 811 l 357 585 l 138 700 l 138 500 l 271 431 l 29 0 l 231 0 l 426 349 l 650 233 l 650 432 z "},"8":{"ha":864,"x_min":0,"x_max":0,"o":"m 432 599 b 558 540 501 599 558 561 b 432 485 558 521 501 485 b 306 540 361 485 306 521 b 432 599 306 561 361 599 z m 432 314 b 667 399 533 314 617 357 l 667 379 b 432 144 667 244 561 144 b 197 379 303 144 197 243 l 197 399 b 432 314 247 357 333 314 z m 433 893 b 636 707 540 893 636 807 b 432 763 576 742 506 763 b 228 707 358 763 288 742 b 433 893 228 807 324 893 z m 432 -22 b 836 379 657 -22 836 157 b 786 568 836 449 817 511 b 807 689 799 607 807 647 b 432 1064 807 896 639 1064 b 57 689 225 1064 57 896 b 78 568 57 647 65 607 b 28 379 47 511 28 449 b 432 -22 28 157 210 -22 z "},"9":{"ha":867,"x_min":0,"x_max":0,"o":"m 474 288 b 268 0 408 189 332 79 l 474 0 b 743 386 544 94 651 243 b 839 664 792 461 839 556 b 433 1064 839 886 661 1064 b 28 664 210 1064 28 886 b 433 282 28 439 214 279 z m 206 665 b 433 893 206 797 306 893 b 660 663 561 893 660 790 b 588 461 660 582 631 529 b 492 315 563 422 529 371 l 492 460 b 433 451 475 454 451 451 b 206 665 304 451 206 535 z "}," ":{"ha":694,"x_min":0,"x_max":0,"o":""}," ":{"ha":833,"x_min":0,"x_max":0,"o":""},"­":{"ha":479,"x_min":0,"x_max":0,"o":"m 28 435 l 451 435 l 451 608 l 28 608 z "},"A":{"ha":1026,"x_min":0,"x_max":0,"o":"m 28 214 b 275 -22 28 53 143 -22 b 489 178 404 -22 489 71 b 422 379 489 243 458 311 l 450 381 b 813 0 643 381 822 222 l 999 0 l 997 575 b 535 1064 996 878 779 1064 b 110 667 290 1064 110 897 b 144 513 110 615 124 565 b 165 465 150 497 157 481 b 28 214 83 407 28 322 z m 318 569 b 296 668 304 599 296 636 b 533 896 296 803 396 896 b 813 554 676 896 813 776 l 813 410 b 454 554 717 500 590 554 b 332 539 414 554 372 549 z m 310 185 b 264 142 310 160 293 142 b 204 213 231 142 206 175 b 253 319 203 260 222 294 b 310 185 285 267 310 222 z "},"B":{"ha":890,"x_min":0,"x_max":0,"o":"m 28 382 b 454 -22 28 110 235 -22 b 863 363 681 -22 863 142 b 806 563 863 436 842 504 b 835 724 825 611 835 667 b 481 1064 835 931 669 1064 b 211 950 378 1064 276 1021 l 211 1042 l 28 1042 z m 465 751 b 232 533 331 751 232 668 b 469 313 232 399 335 313 b 682 388 550 313 624 340 l 683 365 b 454 154 683 242 586 154 b 211 385 322 154 211 247 l 211 861 l 310 790 b 475 892 336 849 401 892 b 657 724 572 892 657 831 l 656 703 b 465 751 599 733 533 751 z m 471 476 b 403 533 433 476 403 499 b 471 590 403 568 433 590 b 600 544 513 590 561 575 b 471 476 565 500 518 476 z "},"C":{"ha":1006,"x_min":0,"x_max":0,"o":"m 526 713 b 754 496 531 588 624 496 b 978 711 883 496 978 588 b 571 1064 978 921 794 1064 b 28 522 263 1064 28 833 b 578 -22 28 219 233 -22 b 926 83 683 -22 838 13 l 908 272 b 581 154 826 196 707 154 b 211 521 360 154 211 308 b 568 894 211 733 356 894 b 804 714 692 894 804 832 b 756 665 804 688 785 665 b 701 713 725 665 707 683 z "},"D":{"ha":1199,"x_min":0,"x_max":0,"o":"m 49 724 b 285 846 106 767 194 817 l 285 682 b 28 436 136 679 28 592 b 611 -21 28 161 279 -21 b 1171 521 928 -21 1171 217 b 563 1064 1171 875 886 1064 b 28 907 407 1064 204 1021 z m 746 463 b 468 628 746 463 610 558 l 468 890 b 565 897 500 896 533 897 b 988 521 796 897 988 767 b 618 149 988 310 838 149 b 468 168 564 149 514 156 l 468 426 b 657 306 558 382 657 306 z m 207 432 b 285 504 207 475 238 504 l 285 261 b 207 432 236 308 207 367 z "},"E":{"ha":808,"x_min":0,"x_max":0,"o":"m 211 385 b 432 311 271 339 344 311 b 671 532 567 311 671 397 b 436 750 671 667 571 750 b 238 700 364 750 297 732 l 236 718 b 417 892 236 828 318 892 b 549 842 467 892 515 872 l 676 961 b 417 1064 611 1026 515 1064 b 58 721 213 1064 58 926 b 86 560 58 664 68 610 b 28 357 50 503 28 431 b 425 -22 28 136 189 -22 b 781 172 556 -22 706 39 l 632 271 b 425 150 593 200 524 150 b 210 364 297 150 210 242 z m 431 474 b 293 540 381 474 331 496 b 431 590 335 574 386 590 b 501 532 468 590 501 569 b 431 474 501 494 468 474 z "},"F":{"ha":657,"x_min":0,"x_max":0,"o":"m 629 871 l 629 1042 l 28 1042 l 28 285 b 268 -22 28 61 128 -22 b 506 282 394 -22 506 69 b 396 514 506 401 453 478 l 629 629 l 629 824 l 211 604 l 211 871 z m 326 281 b 268 156 326 193 304 156 b 211 283 229 156 211 189 l 211 424 b 326 281 290 424 326 349 z "},"G":{"ha":994,"x_min":0,"x_max":0,"o":"m 571 894 b 817 822 664 894 746 869 l 850 1003 b 571 1064 782 1038 683 1064 b 28 521 263 1064 28 832 b 507 -18 28 239 206 13 l 507 -67 l 689 -67 l 689 -7 b 967 329 836 38 967 171 b 740 550 967 464 871 550 b 507 311 604 550 507 453 l 507 160 b 211 519 328 190 211 331 b 571 894 211 732 353 894 z m 786 331 b 689 178 786 261 744 207 l 689 308 b 740 378 689 361 714 378 b 786 331 764 378 786 358 z "},"H":{"ha":861,"x_min":0,"x_max":0,"o":"m 283 0 l 285 350 b 650 539 444 346 578 424 l 650 0 l 833 0 l 833 1042 l 650 1042 b 283 539 663 707 479 536 l 283 1042 l 100 1042 l 100 568 b 28 617 71 581 50 593 l 28 410 b 100 376 49 396 74 385 l 100 0 z "},"I":{"ha":239,"x_min":0,"x_max":0,"o":"m 28 0 l 211 0 l 211 1042 l 28 1042 z "},"J":{"ha":750,"x_min":0,"x_max":0,"o":"m 722 471 l 722 647 l 661 647 l 661 1042 l 481 1042 l 28 839 l 28 647 l 478 849 l 478 633 b 72 243 263 597 72 478 b 342 -22 72 110 157 -22 b 661 336 528 -22 661 114 l 661 472 b 722 471 682 472 701 472 z m 478 335 b 343 158 478 231 432 158 b 264 240 296 158 264 194 b 478 460 264 360 350 432 z "},"K":{"ha":913,"x_min":0,"x_max":0,"o":"m 353 772 b 211 728 299 772 250 756 l 211 1042 l 28 1042 l 28 0 l 211 0 l 211 358 b 354 314 250 329 300 314 b 619 396 454 314 546 343 b 697 0 665 306 694 178 l 885 0 b 743 529 875 246 818 414 b 797 1042 825 660 851 839 l 617 1042 b 622 665 664 893 663 763 b 353 772 513 754 399 772 z m 353 486 b 283 544 314 486 283 507 b 353 601 283 581 314 601 b 517 532 392 601 456 585 b 353 486 471 503 415 486 z "},"L":{"ha":982,"x_min":0,"x_max":0,"o":"m 264 414 b 28 194 129 414 28 324 b 264 -22 28 65 128 -22 b 507 94 371 -22 451 24 b 803 -6 619 18 719 -6 b 954 26 867 -6 919 8 l 954 207 b 821 169 928 189 882 169 b 590 247 760 169 682 190 l 893 1042 l 701 1042 l 440 357 b 264 414 392 390 336 414 z m 264 144 b 200 194 228 144 200 163 b 264 244 200 225 228 244 b 368 206 299 244 336 226 b 264 144 333 157 296 144 z "},"M":{"ha":1392,"x_min":0,"x_max":0,"o":"m 1364 722 b 1039 1064 1364 917 1257 1064 b 765 915 911 1064 825 1006 l 704 1042 l 483 1042 l 28 0 l 229 0 l 597 853 l 661 729 b 558 528 625 661 589 590 b 476 242 503 417 476 321 b 757 -22 476 72 596 -22 b 1033 244 919 -22 1033 72 b 956 528 1033 324 1010 418 l 856 731 l 893 796 b 1039 888 925 853 963 888 b 1181 736 1128 888 1181 828 l 1181 0 l 1364 0 z m 789 469 b 847 249 818 407 847 319 b 756 151 847 193 811 151 b 665 249 699 151 665 194 b 725 469 665 318 696 404 l 757 538 z "},"N":{"ha":1053,"x_min":0,"x_max":0,"o":"m 842 721 b 1003 1042 917 872 1003 1042 l 801 1042 b 735 906 801 1042 772 982 b 424 1064 663 1006 567 1064 b 29 672 194 1064 29 929 l 28 0 l 208 0 l 208 667 b 425 892 208 814 290 892 b 614 771 497 892 569 849 l 643 719 l 582 597 b 465 236 489 410 465 315 b 746 -22 465 68 585 -22 b 1025 239 907 -22 1025 69 b 908 594 1025 317 996 428 z m 651 244 b 739 515 651 326 693 418 l 744 532 l 751 515 b 840 246 797 421 840 333 b 746 151 840 190 804 151 b 651 244 690 151 651 190 z "},"O":{"ha":1144,"x_min":0,"x_max":0,"o":"m 571 1064 b 274 864 433 1064 294 997 l 213 929 b 29 524 101 831 29 686 b 572 -22 28 221 261 -22 b 1117 524 876 -22 1117 219 b 571 1064 1117 825 869 1064 z m 211 524 b 283 749 210 610 239 688 b 560 592 319 646 426 592 b 844 771 685 592 796 668 b 933 524 901 706 933 619 b 572 150 933 307 785 150 b 211 524 358 150 215 306 z m 571 904 b 710 863 625 904 683 885 b 558 758 686 794 622 758 b 446 832 494 758 446 788 b 571 904 446 876 497 904 z "},"P":{"ha":922,"x_min":0,"x_max":0,"o":"m 467 221 b 894 642 697 221 894 383 b 464 1064 894 896 693 1064 b 28 640 236 1064 28 913 l 28 0 l 211 0 l 211 301 b 467 221 281 251 375 221 z m 464 892 b 715 642 601 892 715 794 b 468 393 715 492 615 393 b 278 482 392 393 319 432 l 211 397 l 211 642 b 464 892 211 789 322 892 z "},"Q":{"ha":1154,"x_min":0,"x_max":0,"o":"m 269 176 b 567 -22 290 43 429 -22 b 874 75 681 -22 786 14 b 931 -15 894 47 917 13 l 1126 0 b 1003 203 1099 69 1056 139 b 1108 521 1069 293 1108 403 b 568 1064 1108 825 867 1064 b 29 521 265 1064 28 824 b 208 113 29 358 97 211 z m 925 521 b 876 324 925 450 907 381 b 564 446 781 397 671 446 b 281 292 432 446 319 393 b 211 521 236 354 211 433 b 568 893 211 732 354 893 b 925 521 781 893 925 732 z m 560 282 b 763 196 635 282 704 244 b 563 135 706 157 638 135 b 442 208 490 135 442 165 b 560 282 442 253 490 282 z "},"R":{"ha":904,"x_min":0,"x_max":0,"o":"m 701 664 b 690 588 701 639 697 613 b 474 685 628 653 543 685 b 232 468 324 685 232 590 b 476 249 232 338 322 249 b 599 265 519 249 561 254 b 526 0 590 197 569 107 l 714 0 b 778 379 772 157 788 282 b 876 669 840 453 876 557 b 458 1064 876 910 688 1064 b 28 646 218 1064 28 882 l 28 0 l 211 0 l 211 642 b 456 892 211 782 315 892 b 701 664 597 892 701 801 z m 475 517 b 582 442 503 517 554 503 b 481 413 553 424 518 413 b 410 467 433 413 410 438 b 475 517 410 499 438 517 z "},"S":{"ha":714,"x_min":0,"x_max":0,"o":"m 63 269 b 365 -22 63 101 192 -22 b 676 274 540 -22 676 100 b 406 594 676 460 528 535 b 215 764 297 647 215 693 b 350 888 215 840 269 888 b 554 718 439 888 517 797 l 686 844 b 350 1064 614 993 486 1064 b 28 757 171 1064 28 938 b 188 506 28 629 97 560 b 63 269 110 456 63 372 z m 486 269 b 368 154 486 196 432 154 b 250 269 304 154 250 197 b 368 385 250 344 304 385 b 419 375 386 385 403 382 b 486 269 461 350 486 313 z "},"T":{"ha":1083,"x_min":0,"x_max":0,"o":"m 1056 1040 b 929 1067 1017 1058 974 1067 b 644 958 839 1067 742 1029 b 347 1064 572 1021 461 1064 b 28 835 151 1064 28 961 b 338 607 28 696 149 607 b 535 660 411 607 485 628 l 535 0 l 718 0 l 718 789 b 944 886 804 850 874 886 b 1056 856 981 886 1017 876 z m 343 892 b 500 836 392 892 460 876 b 340 778 461 801 399 778 b 222 835 263 778 222 803 b 343 892 222 867 265 892 z "},"U":{"ha":1053,"x_min":0,"x_max":0,"o":"m 144 447 b 211 319 172 392 193 353 b 50 0 135 169 50 0 l 251 0 b 318 135 251 0 281 58 b 629 -22 389 36 486 -22 b 1024 369 858 -22 1024 113 l 1025 1042 l 844 1042 l 844 375 b 628 150 844 228 763 150 b 439 271 556 150 483 193 l 410 322 l 471 444 b 588 806 564 632 588 726 b 307 1064 588 974 468 1064 b 28 803 146 1064 28 972 b 144 447 28 725 57 614 z m 308 510 l 301 526 b 213 794 256 621 213 707 b 307 890 213 851 251 890 b 401 797 360 890 401 853 b 315 526 401 715 361 624 z "},"V":{"ha":1096,"x_min":0,"x_max":0,"o":"m 1033 782 b 747 1064 1021 943 921 1064 b 475 803 603 1064 475 958 b 710 517 475 647 592 571 b 804 475 740 501 772 488 b 601 171 760 372 690 272 l 232 1042 l 28 1042 l 476 0 l 674 0 b 967 414 788 114 897 254 b 1068 385 1003 401 1038 392 l 1068 576 b 1021 589 1053 579 1038 583 b 1033 782 1033 651 1038 715 z m 857 775 b 853 647 860 732 858 689 b 757 689 815 663 782 676 b 661 804 713 711 661 742 b 753 889 661 853 699 889 b 857 775 808 889 851 843 z "},"W":{"ha":1379,"x_min":0,"x_max":0,"o":"m 1361 1042 l 1181 1042 l 1181 306 b 1039 154 1181 214 1128 154 b 894 246 963 154 926 193 l 856 311 l 956 514 b 1033 797 1010 624 1033 718 b 757 1064 1033 969 919 1064 b 476 797 596 1064 476 967 b 558 514 476 718 503 625 b 661 313 589 451 625 381 l 597 188 l 229 1042 l 28 1042 l 483 0 l 704 0 l 765 125 b 1039 -22 825 35 911 -22 b 1364 319 1257 -22 1365 125 z m 757 504 l 725 572 b 665 793 694 638 665 724 b 756 890 665 847 699 890 b 847 793 811 890 847 849 b 789 572 847 722 818 635 z "},"X":{"ha":1108,"x_min":0,"x_max":0,"o":"m 275 899 b 607 525 460 899 607 726 b 240 157 607 307 440 157 b 122 174 201 157 160 161 l 132 0 b 239 -14 167 -11 203 -14 b 700 232 438 -14 604 82 b 1078 0 785 103 924 15 l 1078 172 b 786 526 896 207 786 353 b 1081 869 786 707 904 842 l 1081 1042 b 703 811 918 1021 785 936 b 285 1064 613 961 456 1064 b 28 839 138 1064 28 975 b 265 604 28 704 139 606 l 265 774 b 200 838 226 778 200 801 b 275 899 200 875 229 899 z "},"Y":{"ha":1131,"x_min":0,"x_max":0,"o":"m 28 875 b 404 357 28 622 182 421 l 250 0 l 450 0 l 594 340 b 1103 843 854 358 1103 575 b 893 1068 1103 986 1010 1068 b 581 788 711 1068 647 947 l 474 521 b 208 878 314 561 208 700 b 257 1042 208 943 224 999 l 65 1042 b 28 875 40 997 28 947 z m 918 838 b 674 529 914 701 807 575 l 760 728 b 875 892 794 808 829 892 b 918 838 901 892 919 868 z "},"Z":{"ha":842,"x_min":0,"x_max":0,"o":"m 814 1042 l 50 1042 l 50 875 l 621 875 l 478 636 b 283 660 411 654 342 661 b 28 432 140 660 28 568 b 247 213 28 303 121 213 b 453 311 319 213 400 249 b 539 426 486 351 513 389 b 607 290 582 394 607 350 b 469 147 607 213 553 147 b 369 192 429 147 394 165 l 256 50 b 469 -22 313 -3 386 -22 b 782 288 657 -22 782 111 b 633 568 782 418 719 510 l 814 868 z m 256 378 b 197 432 221 378 197 399 b 288 496 197 476 238 496 b 379 489 315 496 344 493 b 256 378 351 444 310 378 z "},"Æ":{"ha":1461,"x_min":0,"x_max":0,"o":"m 854 649 b 851 686 851 660 851 672 b 1075 894 851 808 961 894 b 1285 771 1174 894 1246 842 l 1433 869 b 1081 1064 1353 997 1217 1064 b 783 939 961 1064 854 1015 b 488 1064 718 1011 619 1064 b 100 688 260 1064 100 918 b 165 465 100 607 132 532 b 28 214 83 407 28 322 b 275 -22 28 53 139 -22 b 489 178 404 -22 489 67 b 422 379 489 243 458 311 l 450 381 b 751 147 633 381 681 258 b 1072 -22 822 36 938 -22 b 1332 81 1171 -22 1267 15 l 1208 206 b 1075 150 1176 175 1125 150 b 889 324 969 150 889 219 l 890 342 b 1089 292 950 310 1017 292 b 1324 511 1224 292 1324 376 b 1085 731 1324 646 1219 731 b 854 649 997 731 915 696 z m 490 896 b 682 688 625 896 674 799 b 742 481 688 610 703 536 l 729 450 b 443 554 667 510 582 554 b 332 539 403 554 372 549 b 285 688 301 589 285 644 b 490 896 285 819 363 896 z m 1083 568 b 1154 511 1121 568 1154 551 b 1083 451 1154 469 1121 451 b 946 500 1039 451 989 468 b 1083 568 983 542 1033 568 z m 310 185 b 264 142 310 160 293 142 b 204 213 231 142 206 175 b 253 319 203 260 222 294 b 310 185 285 267 310 222 z "},"Ð":{"ha":1181,"x_min":0,"x_max":0,"o":"m 197 451 b 147 297 165 408 147 350 b 592 -22 147 140 286 -22 b 1153 525 914 -22 1153 221 b 610 1061 1153 829 908 1061 b 272 1013 444 1061 343 1042 l 296 833 b 419 874 336 850 376 864 l 419 635 l 28 635 l 28 451 z m 607 453 l 813 453 l 813 635 l 607 635 l 607 894 b 969 525 825 893 969 743 b 607 150 969 307 825 150 z m 419 185 b 332 324 363 215 332 267 b 419 453 332 374 360 432 z "},"Œ":{"ha":1661,"x_min":0,"x_max":0,"o":"m 1482 306 b 1326 150 1451 182 1383 150 b 1249 226 1281 150 1249 181 b 1328 306 1249 271 1285 306 l 1328 479 b 1211 501 1289 479 1250 485 b 1592 825 1385 528 1592 613 b 1310 1064 1592 976 1482 1064 b 969 881 1178 1064 1043 989 b 551 1064 867 992 718 1064 b 283 849 407 1064 288 986 l 207 929 b 29 517 96 831 29 679 b 567 -22 28 214 246 -22 b 1076 367 819 -22 1007 140 l 1108 353 b 1068 222 1086 317 1068 268 b 1329 -22 1068 81 1168 -22 b 1633 236 1431 -22 1575 24 z m 292 769 b 922 486 328 650 451 499 b 567 147 907 292 767 147 b 206 518 344 147 206 306 b 292 769 206 615 238 704 z m 560 911 b 907 646 728 911 861 797 b 451 833 515 671 451 786 b 560 911 451 882 490 911 z m 1310 897 b 1411 814 1368 897 1411 869 b 1097 649 1411 700 1231 663 b 1310 897 1068 768 1182 897 z "},"Ø":{"ha":1144,"x_min":0,"x_max":0,"o":"m 579 1061 b 308 824 428 1061 311 961 l 208 931 b 29 522 97 832 29 685 b 207 117 28 360 97 215 l 124 0 l 314 0 l 338 31 b 571 -19 407 -7 488 -19 b 1117 522 878 -19 1117 218 b 579 1061 1117 825 868 1061 z m 651 767 b 563 717 633 735 600 717 b 471 807 510 717 471 753 b 575 903 471 863 511 903 b 933 522 792 903 933 743 b 571 149 933 308 785 149 b 435 175 521 149 475 160 l 844 767 z m 208 522 b 310 785 210 628 247 718 b 515 565 319 674 401 589 l 307 261 b 208 522 246 328 208 418 z "},"Þ":{"ha":926,"x_min":0,"x_max":0,"o":"m 28 0 l 211 0 l 211 186 b 472 96 276 131 381 96 b 899 513 697 96 899 249 b 474 929 899 771 701 932 b 211 817 375 928 279 888 l 211 1042 l 28 1042 z m 465 754 b 714 511 603 754 714 661 b 467 272 714 365 613 272 b 279 365 392 272 324 308 l 211 276 l 211 504 b 465 754 211 651 328 754 z "},"À":{"ha":1026,"x_min":0,"x_max":0,"o":"m 28 214 b 275 -22 28 53 143 -22 b 489 178 404 -22 489 71 b 422 379 489 243 458 311 l 450 381 b 813 0 643 381 822 222 l 999 0 l 997 575 b 535 1064 996 878 779 1064 b 110 667 290 1064 110 897 b 144 513 110 615 124 565 b 165 465 150 497 157 481 b 28 214 83 407 28 322 z m 318 569 b 296 668 304 599 296 636 b 533 896 296 803 396 896 b 813 554 676 896 813 776 l 813 410 b 454 554 717 500 590 554 b 332 539 414 554 372 549 z m 310 185 b 264 142 310 160 293 142 b 204 213 231 142 206 175 b 253 319 203 260 222 294 b 310 185 285 267 310 222 z m 457 1097 l 682 1097 l 315 1346 l 315 1181 z "},"Á":{"ha":1026,"x_min":0,"x_max":0,"o":"m 28 214 b 275 -22 28 53 143 -22 b 489 178 404 -22 489 71 b 422 379 489 243 458 311 l 450 381 b 813 0 643 381 822 222 l 999 0 l 997 575 b 535 1064 996 878 779 1064 b 110 667 290 1064 110 897 b 144 513 110 615 124 565 b 165 465 150 497 157 481 b 28 214 83 407 28 322 z m 318 569 b 296 668 304 599 296 636 b 533 896 296 803 396 896 b 813 554 676 896 813 776 l 813 410 b 454 554 717 500 590 554 b 332 539 414 554 372 549 z m 310 185 b 264 142 310 160 293 142 b 204 213 231 142 206 175 b 253 319 203 260 222 294 b 310 185 285 267 310 222 z m 797 1181 l 797 1346 l 431 1097 l 656 1097 z "},"Â":{"ha":1026,"x_min":0,"x_max":0,"o":"m 28 214 b 275 -22 28 53 143 -22 b 489 178 404 -22 489 71 b 422 379 489 243 458 311 l 450 381 b 813 0 643 381 822 222 l 999 0 l 997 575 b 535 1064 996 878 779 1064 b 110 667 290 1064 110 897 b 144 513 110 615 124 565 b 165 465 150 497 157 481 b 28 214 83 407 28 322 z m 318 569 b 296 668 304 599 296 636 b 533 896 296 803 396 896 b 813 554 676 896 813 776 l 813 410 b 454 554 717 500 590 554 b 332 539 414 554 372 549 z m 310 185 b 264 142 310 160 293 142 b 204 213 231 142 206 175 b 253 319 203 260 222 294 b 310 185 285 267 310 222 z m 514 1201 l 718 1068 l 718 1221 l 589 1310 l 438 1310 l 308 1221 l 308 1068 z "},"Ã":{"ha":1026,"x_min":0,"x_max":0,"o":"m 28 214 b 275 -22 28 53 143 -22 b 489 178 404 -22 489 71 b 422 379 489 243 458 311 l 450 381 b 813 0 643 381 822 222 l 999 0 l 997 575 b 535 1064 996 878 779 1064 b 110 667 290 1064 110 897 b 144 513 110 615 124 565 b 165 465 150 497 157 481 b 28 214 83 407 28 322 z m 318 569 b 296 668 304 599 296 636 b 533 896 296 803 396 896 b 813 554 676 896 813 776 l 813 410 b 454 554 717 500 590 554 b 332 539 414 554 372 549 z m 310 185 b 264 142 310 160 293 142 b 204 213 231 142 206 175 b 253 319 203 260 222 294 b 310 185 285 267 310 222 z m 626 1090 b 732 1135 668 1090 703 1106 l 732 1278 b 629 1219 711 1250 686 1219 b 428 1282 575 1219 494 1282 b 322 1238 386 1282 351 1267 l 322 1094 b 425 1153 343 1122 368 1153 b 626 1090 478 1153 560 1090 z "},"Ä":{"ha":1026,"x_min":0,"x_max":0,"o":"m 28 214 b 275 -22 28 53 143 -22 b 489 178 404 -22 489 71 b 422 379 489 243 458 311 l 450 381 b 813 0 643 381 822 222 l 999 0 l 997 575 b 535 1064 996 878 779 1064 b 110 667 290 1064 110 897 b 144 513 110 615 124 565 b 165 465 150 497 157 481 b 28 214 83 407 28 322 z m 318 569 b 296 668 304 599 296 636 b 533 896 296 803 396 896 b 813 554 676 896 813 776 l 813 410 b 454 554 717 500 590 554 b 332 539 414 554 372 549 z m 468 1300 l 329 1300 l 286 1169 l 399 1089 l 513 1169 z m 694 1300 l 556 1300 l 513 1169 l 625 1089 l 739 1169 z m 310 185 b 264 142 310 160 293 142 b 204 213 231 142 206 175 b 253 319 203 260 222 294 b 310 185 285 267 310 222 z "},"Ā":{"ha":1026,"x_min":0,"x_max":0,"o":"m 28 214 b 275 -22 28 53 143 -22 b 489 178 404 -22 489 71 b 422 379 489 243 458 311 l 450 381 b 813 0 643 381 822 222 l 999 0 l 997 575 b 535 1064 996 878 779 1064 b 110 667 290 1064 110 897 b 144 513 110 615 124 565 b 165 465 150 497 157 481 b 28 214 83 407 28 322 z m 318 569 b 296 668 304 599 296 636 b 533 896 296 803 396 896 b 813 554 676 896 813 776 l 813 410 b 454 554 717 500 590 554 b 332 539 414 554 372 549 z m 310 185 b 264 142 310 160 293 142 b 204 213 231 142 206 175 b 253 319 203 260 222 294 b 310 185 285 267 310 222 z m 308 1126 l 718 1126 l 718 1258 l 308 1258 z "},"Ă":{"ha":1026,"x_min":0,"x_max":0,"o":"m 28 214 b 275 -22 28 53 143 -22 b 489 178 404 -22 489 71 b 422 379 489 243 458 311 l 450 381 b 813 0 643 381 822 222 l 999 0 l 997 575 b 535 1064 996 878 779 1064 b 110 667 290 1064 110 897 b 144 513 110 615 124 565 b 165 465 150 497 157 481 b 28 214 83 407 28 322 z m 318 569 b 296 668 304 599 296 636 b 533 896 296 803 396 896 b 813 554 676 896 813 776 l 813 410 b 454 554 717 500 590 554 b 332 539 414 554 372 549 z m 513 1214 b 438 1292 469 1214 442 1246 l 301 1292 b 513 1089 306 1165 393 1089 b 725 1292 632 1089 721 1165 l 589 1292 b 513 1214 585 1246 556 1214 z m 310 185 b 264 142 310 160 293 142 b 204 213 231 142 206 175 b 253 319 203 260 222 294 b 310 185 285 267 310 222 z "},"Å":{"ha":1026,"x_min":0,"x_max":0,"o":"m 28 214 b 275 -22 28 53 143 -22 b 489 178 404 -22 489 71 b 422 379 489 243 458 311 l 450 381 b 813 0 643 381 822 222 l 999 0 l 997 575 b 535 1064 996 878 779 1064 b 110 667 290 1064 110 897 b 144 513 110 615 124 565 b 165 465 150 497 157 481 b 28 214 83 407 28 322 z m 318 569 b 296 668 304 599 296 636 b 533 896 296 803 396 896 b 813 554 676 896 813 776 l 813 410 b 454 554 717 500 590 554 b 332 539 414 554 372 549 z m 310 185 b 264 142 310 160 293 142 b 204 213 231 142 206 175 b 253 319 203 260 222 294 b 310 185 285 267 310 222 z m 386 1242 b 540 1088 386 1157 456 1088 b 694 1242 625 1088 694 1157 b 540 1396 694 1326 625 1396 b 386 1242 456 1396 386 1326 z m 486 1242 b 540 1296 486 1272 510 1296 b 594 1242 571 1296 594 1272 b 540 1188 594 1211 571 1188 b 486 1242 510 1188 486 1211 z "},"Ǻ":{"ha":1026,"x_min":0,"x_max":0,"o":"m 28 214 b 275 -22 28 53 143 -22 b 489 178 404 -22 489 71 b 422 379 489 243 458 311 l 450 381 b 813 0 643 381 822 222 l 999 0 l 997 575 b 535 1064 996 878 779 1064 b 110 667 290 1064 110 897 b 144 513 110 615 124 565 b 165 465 150 497 157 481 b 28 214 83 407 28 322 z m 318 569 b 296 668 304 599 296 636 b 533 896 296 803 396 896 b 813 554 676 896 813 776 l 813 410 b 454 554 717 500 590 554 b 332 539 414 554 372 549 z m 310 185 b 264 142 310 160 293 142 b 204 213 231 142 206 175 b 253 319 203 260 222 294 b 310 185 285 267 310 222 z m 358 1242 b 513 1396 358 1326 428 1396 b 667 1242 597 1396 667 1326 b 513 1088 667 1157 597 1088 b 358 1242 428 1088 358 1157 z m 458 1242 b 513 1188 458 1211 482 1188 b 567 1242 543 1188 567 1211 b 513 1296 567 1272 543 1296 b 458 1242 482 1296 458 1272 z m 779 1506 l 779 1671 l 413 1422 l 638 1422 z "},"Ą":{"ha":1026,"x_min":0,"x_max":0,"o":"m 1051 -151 b 1003 -175 1035 -165 1019 -175 b 975 -146 985 -175 975 -164 l 975 0 l 999 0 l 997 575 b 535 1064 996 878 779 1064 b 110 667 290 1064 110 897 b 144 513 110 615 124 565 b 165 465 150 497 157 481 b 28 214 83 407 28 322 b 275 -22 28 53 143 -22 b 489 178 404 -22 489 71 b 422 379 489 243 458 311 l 450 381 b 813 0 643 381 822 222 l 831 0 l 831 -165 b 986 -321 831 -267 886 -321 b 1121 -271 1038 -321 1082 -303 z m 318 569 b 296 668 304 599 296 636 b 533 896 296 803 396 896 b 813 554 676 896 813 776 l 813 410 b 454 554 717 500 590 554 b 332 539 414 554 372 549 z m 310 185 b 264 142 310 160 293 142 b 204 213 231 142 206 175 b 253 319 203 260 222 294 b 310 185 285 267 310 222 z "},"Ǽ":{"ha":1461,"x_min":0,"x_max":0,"o":"m 854 649 b 851 686 851 660 851 672 b 1075 894 851 808 961 894 b 1285 771 1174 894 1246 842 l 1433 869 b 1081 1064 1353 997 1217 1064 b 783 939 961 1064 854 1015 b 488 1064 718 1011 619 1064 b 100 688 260 1064 100 918 b 165 465 100 607 132 532 b 28 214 83 407 28 322 b 275 -22 28 53 139 -22 b 489 178 404 -22 489 67 b 422 379 489 243 458 311 l 450 381 b 751 147 633 381 681 258 b 1072 -22 822 36 938 -22 b 1332 81 1171 -22 1267 15 l 1208 206 b 1075 150 1176 175 1125 150 b 889 324 969 150 889 219 l 890 342 b 1089 292 950 310 1017 292 b 1324 511 1224 292 1324 376 b 1085 731 1324 646 1219 731 b 854 649 997 731 915 696 z m 490 896 b 682 688 625 896 674 799 b 742 481 688 610 703 536 l 729 450 b 443 554 667 510 582 554 b 332 539 403 554 372 549 b 285 688 301 589 285 644 b 490 896 285 819 363 896 z m 1083 568 b 1154 511 1121 568 1154 551 b 1083 451 1154 469 1121 451 b 946 500 1039 451 989 468 b 1083 568 983 542 1033 568 z m 310 185 b 264 142 310 160 293 142 b 204 213 231 142 206 175 b 253 319 203 260 222 294 b 310 185 285 267 310 222 z m 1053 1181 l 1053 1346 l 686 1097 l 911 1097 z "},"Ć":{"ha":1006,"x_min":0,"x_max":0,"o":"m 701 713 b 756 665 707 683 725 665 b 804 714 785 665 804 688 b 568 894 804 832 692 894 b 211 521 356 894 211 733 b 581 154 211 308 360 154 b 908 272 707 154 826 196 l 926 83 b 578 -22 838 13 683 -22 b 28 522 233 -22 28 219 b 571 1064 28 833 263 1064 b 978 711 794 1064 978 921 b 754 496 978 588 883 496 b 526 713 624 496 531 588 z m 826 1181 l 826 1346 l 460 1097 l 685 1097 z "},"Ĉ":{"ha":1006,"x_min":0,"x_max":0,"o":"m 526 713 b 754 496 531 588 624 496 b 978 711 883 496 978 588 b 571 1064 978 921 794 1064 b 28 522 263 1064 28 833 b 578 -22 28 219 233 -22 b 926 83 683 -22 838 13 l 908 272 b 581 154 826 196 707 154 b 211 521 360 154 211 308 b 568 894 211 733 356 894 b 804 714 692 894 804 832 b 756 665 804 688 785 665 b 701 713 725 665 707 683 z m 558 1201 l 763 1068 l 763 1221 l 633 1310 l 482 1310 l 353 1221 l 353 1068 z "},"Č":{"ha":1006,"x_min":0,"x_max":0,"o":"m 526 713 b 754 496 531 588 624 496 b 978 711 883 496 978 588 b 571 1064 978 921 794 1064 b 28 522 263 1064 28 833 b 578 -22 28 219 233 -22 b 926 83 683 -22 838 13 l 908 272 b 581 154 826 196 707 154 b 211 521 360 154 211 308 b 568 894 211 733 356 894 b 804 714 692 894 804 832 b 756 665 804 688 785 665 b 701 713 725 665 707 683 z m 353 1339 l 353 1186 l 482 1097 l 633 1097 l 763 1186 l 763 1339 l 558 1206 z "},"Ċ":{"ha":1006,"x_min":0,"x_max":0,"o":"m 701 713 b 756 665 707 683 725 665 b 804 714 785 665 804 688 b 568 894 804 832 692 894 b 211 521 356 894 211 733 b 581 154 211 308 360 154 b 908 272 707 154 826 196 l 926 83 b 578 -22 838 13 683 -22 b 28 522 233 -22 28 219 b 571 1064 28 833 263 1064 b 978 711 794 1064 978 921 b 754 496 978 588 883 496 b 526 713 624 496 531 588 z m 626 1300 l 488 1300 l 444 1169 l 557 1089 l 671 1169 z "},"Ç":{"ha":1006,"x_min":0,"x_max":0,"o":"m 408 -299 b 539 -328 438 -315 488 -328 b 708 -174 625 -328 708 -276 b 610 -47 708 -101 657 -58 l 610 -21 b 926 83 713 -15 846 19 l 908 272 b 581 154 826 196 707 154 b 211 521 360 154 211 308 b 568 894 211 733 356 894 b 804 714 692 894 804 832 b 756 665 804 688 785 665 b 701 713 725 665 707 683 l 526 713 b 754 496 531 588 624 496 b 978 711 883 496 978 588 b 571 1064 978 921 794 1064 b 28 522 263 1064 28 833 b 478 -15 28 250 193 26 l 478 -128 b 568 -165 540 -121 568 -137 b 524 -201 568 -189 549 -201 b 447 -171 482 -201 447 -171 z "},"Ď":{"ha":1199,"x_min":0,"x_max":0,"o":"m 49 724 b 285 846 106 767 194 817 l 285 682 b 28 436 136 679 28 592 b 611 -21 28 161 279 -21 b 1171 521 928 -21 1171 217 b 563 1064 1171 875 886 1064 b 28 907 407 1064 204 1021 z m 746 463 b 468 628 746 463 610 558 l 468 890 b 565 897 500 896 533 897 b 988 521 796 897 988 767 b 618 149 988 310 838 149 b 468 168 564 149 514 156 l 468 426 b 657 306 558 382 657 306 z m 207 432 b 285 504 207 475 238 504 l 285 261 b 207 432 236 308 207 367 z m 422 1339 l 422 1186 l 551 1097 l 703 1097 l 832 1186 l 832 1339 l 628 1206 z "},"Đ":{"ha":1181,"x_min":0,"x_max":0,"o":"m 197 451 b 147 297 165 408 147 350 b 592 -22 147 140 286 -22 b 1153 525 914 -22 1153 221 b 610 1061 1153 829 908 1061 b 272 1013 444 1061 343 1042 l 296 833 b 419 874 336 850 376 864 l 419 635 l 28 635 l 28 451 z m 607 453 l 813 453 l 813 635 l 607 635 l 607 894 b 969 525 825 893 969 743 b 607 150 969 307 825 150 z m 419 185 b 332 324 363 215 332 267 b 419 453 332 374 360 432 z "},"È":{"ha":808,"x_min":0,"x_max":0,"o":"m 211 385 b 432 311 271 339 344 311 b 671 532 567 311 671 397 b 436 750 671 667 571 750 b 238 700 364 750 297 732 l 236 718 b 417 892 236 828 318 892 b 549 842 467 892 515 872 l 676 961 b 417 1064 611 1026 515 1064 b 58 721 213 1064 58 926 b 86 560 58 664 68 610 b 28 357 50 503 28 431 b 425 -22 28 136 189 -22 b 781 172 556 -22 706 39 l 632 271 b 425 150 593 200 524 150 b 210 364 297 150 210 242 z m 431 474 b 293 540 381 474 331 496 b 431 590 335 574 386 590 b 501 532 468 590 501 569 b 431 474 501 494 468 474 z m 335 1097 l 560 1097 l 193 1346 l 193 1181 z "},"É":{"ha":808,"x_min":0,"x_max":0,"o":"m 211 385 b 432 311 271 339 344 311 b 671 532 567 311 671 397 b 436 750 671 667 571 750 b 238 700 364 750 297 732 l 236 718 b 417 892 236 828 318 892 b 549 842 467 892 515 872 l 676 961 b 417 1064 611 1026 515 1064 b 58 721 213 1064 58 926 b 86 560 58 664 68 610 b 28 357 50 503 28 431 b 425 -22 28 136 189 -22 b 781 172 556 -22 706 39 l 632 271 b 425 150 593 200 524 150 b 210 364 297 150 210 242 z m 431 474 b 293 540 381 474 331 496 b 431 590 335 574 386 590 b 501 532 468 590 501 569 b 431 474 501 494 468 474 z m 658 1181 l 658 1346 l 292 1097 l 517 1097 z "},"Ê":{"ha":808,"x_min":0,"x_max":0,"o":"m 211 385 b 432 311 271 339 344 311 b 671 532 567 311 671 397 b 436 750 671 667 571 750 b 238 700 364 750 297 732 l 236 718 b 417 892 236 828 318 892 b 549 842 467 892 515 872 l 676 961 b 417 1064 611 1026 515 1064 b 58 721 213 1064 58 926 b 86 560 58 664 68 610 b 28 357 50 503 28 431 b 425 -22 28 136 189 -22 b 781 172 556 -22 706 39 l 632 271 b 425 150 593 200 524 150 b 210 364 297 150 210 242 z m 431 474 b 293 540 381 474 331 496 b 431 590 335 574 386 590 b 501 532 468 590 501 569 b 431 474 501 494 468 474 z m 406 1201 l 610 1068 l 610 1221 l 481 1310 l 329 1310 l 200 1221 l 200 1068 z "},"Ě":{"ha":808,"x_min":0,"x_max":0,"o":"m 211 385 b 432 311 271 339 344 311 b 671 532 567 311 671 397 b 436 750 671 667 571 750 b 238 700 364 750 297 732 l 236 718 b 417 892 236 828 318 892 b 549 842 467 892 515 872 l 676 961 b 417 1064 611 1026 515 1064 b 58 721 213 1064 58 926 b 86 560 58 664 68 610 b 28 357 50 503 28 431 b 425 -22 28 136 189 -22 b 781 172 556 -22 706 39 l 632 271 b 425 150 593 200 524 150 b 210 364 297 150 210 242 z m 431 474 b 293 540 381 474 331 496 b 431 590 335 574 386 590 b 501 532 468 590 501 569 b 431 474 501 494 468 474 z m 199 1339 l 199 1186 l 328 1097 l 479 1097 l 608 1186 l 608 1339 l 404 1206 z "},"Ë":{"ha":808,"x_min":0,"x_max":0,"o":"m 211 385 b 432 311 271 339 344 311 b 671 532 567 311 671 397 b 436 750 671 667 571 750 b 238 700 364 750 297 732 l 236 718 b 417 892 236 828 318 892 b 549 842 467 892 515 872 l 676 961 b 417 1064 611 1026 515 1064 b 58 721 213 1064 58 926 b 86 560 58 664 68 610 b 28 357 50 503 28 431 b 425 -22 28 136 189 -22 b 781 172 556 -22 706 39 l 632 271 b 425 150 593 200 524 150 b 210 364 297 150 210 242 z m 586 1300 l 447 1300 l 404 1169 l 517 1089 l 631 1169 z m 360 1300 l 221 1300 l 178 1169 l 290 1089 l 404 1169 z m 431 474 b 293 540 381 474 331 496 b 431 590 335 574 386 590 b 501 532 468 590 501 569 b 431 474 501 494 468 474 z "},"Ē":{"ha":808,"x_min":0,"x_max":0,"o":"m 211 385 b 432 311 271 339 344 311 b 671 532 567 311 671 397 b 436 750 671 667 571 750 b 238 700 364 750 297 732 l 236 718 b 417 892 236 828 318 892 b 549 842 467 892 515 872 l 676 961 b 417 1064 611 1026 515 1064 b 58 721 213 1064 58 926 b 86 560 58 664 68 610 b 28 357 50 503 28 431 b 425 -22 28 136 189 -22 b 781 172 556 -22 706 39 l 632 271 b 425 150 593 200 524 150 b 210 364 297 150 210 242 z m 431 474 b 293 540 381 474 331 496 b 431 590 335 574 386 590 b 501 532 468 590 501 569 b 431 474 501 494 468 474 z m 199 1126 l 608 1126 l 608 1258 l 199 1258 z "},"Ĕ":{"ha":808,"x_min":0,"x_max":0,"o":"m 211 385 b 432 311 271 339 344 311 b 671 532 567 311 671 397 b 436 750 671 667 571 750 b 238 700 364 750 297 732 l 236 718 b 417 892 236 828 318 892 b 549 842 467 892 515 872 l 676 961 b 417 1064 611 1026 515 1064 b 58 721 213 1064 58 926 b 86 560 58 664 68 610 b 28 357 50 503 28 431 b 425 -22 28 136 189 -22 b 781 172 556 -22 706 39 l 632 271 b 425 150 593 200 524 150 b 210 364 297 150 210 242 z m 403 1214 b 328 1292 360 1214 332 1246 l 192 1292 b 403 1089 196 1165 283 1089 b 615 1292 522 1089 611 1165 l 479 1292 b 403 1214 475 1246 446 1214 z m 431 474 b 293 540 381 474 331 496 b 431 590 335 574 386 590 b 501 532 468 590 501 569 b 431 474 501 494 468 474 z "},"Ė":{"ha":808,"x_min":0,"x_max":0,"o":"m 211 385 b 432 311 271 339 344 311 b 671 532 567 311 671 397 b 436 750 671 667 571 750 b 238 700 364 750 297 732 l 236 718 b 417 892 236 828 318 892 b 549 842 467 892 515 872 l 676 961 b 417 1064 611 1026 515 1064 b 58 721 213 1064 58 926 b 86 560 58 664 68 610 b 28 357 50 503 28 431 b 425 -22 28 136 189 -22 b 781 172 556 -22 706 39 l 632 271 b 425 150 593 200 524 150 b 210 364 297 150 210 242 z m 472 1300 l 333 1300 l 290 1169 l 403 1089 l 517 1169 z m 431 474 b 293 540 381 474 331 496 b 431 590 335 574 386 590 b 501 532 468 590 501 569 b 431 474 501 494 468 474 z "},"Ę":{"ha":808,"x_min":0,"x_max":0,"o":"m 711 -151 b 663 -175 694 -165 679 -175 b 635 -146 644 -175 635 -164 l 635 31 b 781 172 693 63 744 110 l 632 271 b 425 150 593 200 524 150 b 210 364 297 150 210 242 l 211 385 b 432 311 271 339 344 311 b 671 532 567 311 671 397 b 436 750 671 667 571 750 b 238 700 364 750 297 732 l 236 718 b 417 892 236 828 318 892 b 549 842 467 892 515 872 l 676 961 b 417 1064 611 1026 515 1064 b 58 721 213 1064 58 926 b 86 560 58 664 68 610 b 28 357 50 503 28 431 b 425 -22 28 136 189 -22 b 490 -17 446 -22 468 -21 l 490 -165 b 646 -321 490 -267 546 -321 b 781 -271 697 -321 742 -303 z m 431 474 b 293 540 381 474 331 496 b 431 590 335 574 386 590 b 501 532 468 590 501 569 b 431 474 501 494 468 474 z "},"Ĝ":{"ha":994,"x_min":0,"x_max":0,"o":"m 571 894 b 817 822 664 894 746 869 l 850 1003 b 571 1064 782 1038 683 1064 b 28 521 263 1064 28 832 b 507 -18 28 239 206 13 l 507 -67 l 689 -67 l 689 -7 b 967 329 836 38 967 171 b 740 550 967 464 871 550 b 507 311 604 550 507 453 l 507 160 b 211 519 328 190 211 331 b 571 894 211 732 353 894 z m 786 331 b 689 178 786 261 744 207 l 689 308 b 740 378 689 361 714 378 b 786 331 764 378 786 358 z m 553 1201 l 757 1068 l 757 1221 l 628 1310 l 476 1310 l 347 1221 l 347 1068 z "},"Ğ":{"ha":994,"x_min":0,"x_max":0,"o":"m 571 894 b 817 822 664 894 746 869 l 850 1003 b 571 1064 782 1038 683 1064 b 28 521 263 1064 28 832 b 507 -18 28 239 206 13 l 507 -67 l 689 -67 l 689 -7 b 967 329 836 38 967 171 b 740 550 967 464 871 550 b 507 311 604 550 507 453 l 507 160 b 211 519 328 190 211 331 b 571 894 211 732 353 894 z m 551 1214 b 476 1292 508 1214 481 1246 l 340 1292 b 551 1089 344 1165 432 1089 b 764 1292 671 1089 760 1165 l 628 1292 b 551 1214 624 1246 594 1214 z m 786 331 b 689 178 786 261 744 207 l 689 308 b 740 378 689 361 714 378 b 786 331 764 378 786 358 z "},"Ġ":{"ha":994,"x_min":0,"x_max":0,"o":"m 571 894 b 211 519 353 894 211 732 b 507 160 211 331 328 190 l 507 311 b 740 550 507 453 604 550 b 967 329 871 550 967 464 b 689 -7 967 171 836 38 l 689 -67 l 507 -67 l 507 -18 b 28 521 206 13 28 239 b 571 1064 28 832 263 1064 b 850 1003 683 1064 782 1038 l 817 822 b 571 894 746 869 664 894 z m 621 1300 l 482 1300 l 439 1169 l 551 1089 l 665 1169 z m 786 331 b 740 378 786 358 764 378 b 689 308 714 378 689 361 l 689 178 b 786 331 744 207 786 261 z "},"Ģ":{"ha":994,"x_min":0,"x_max":0,"o":"m 571 894 b 817 822 664 894 746 869 l 850 1003 b 571 1064 782 1038 683 1064 b 28 521 263 1064 28 832 b 507 -18 28 239 206 13 l 507 -67 l 689 -67 l 689 -7 b 967 329 836 38 967 171 b 740 550 967 464 871 550 b 507 311 604 550 507 453 l 507 160 b 211 519 328 190 211 331 b 571 894 211 732 353 894 z m 463 -267 b 399 -319 460 -314 426 -319 l 399 -386 b 547 -267 485 -386 525 -351 l 583 -136 l 469 -53 l 354 -136 l 399 -267 z m 786 331 b 689 178 786 261 744 207 l 689 308 b 740 378 689 361 714 378 b 786 331 764 378 786 358 z "},"Ĥ":{"ha":861,"x_min":0,"x_max":0,"o":"m 283 0 l 285 350 b 650 539 444 346 578 424 l 650 0 l 833 0 l 833 1042 l 650 1042 b 283 539 663 707 479 536 l 283 1042 l 100 1042 l 100 568 b 28 617 71 581 50 593 l 28 410 b 100 376 49 396 74 385 l 100 0 z m 469 1201 l 674 1068 l 674 1221 l 544 1310 l 393 1310 l 264 1221 l 264 1068 z "},"Ħ":{"ha":935,"x_min":0,"x_max":0,"o":"m 283 0 l 285 350 b 650 539 444 346 578 424 l 650 0 l 833 0 l 833 719 l 907 719 l 907 883 l 833 883 l 833 1042 l 650 1042 b 639 883 651 983 647 931 l 283 883 l 283 1042 l 100 1042 l 100 883 l 28 883 l 28 719 l 100 719 l 100 568 b 28 617 71 581 50 593 l 28 410 b 100 376 49 396 74 385 l 100 0 z m 582 719 b 283 539 514 597 400 538 l 283 719 z "},"Ì":{"ha":239,"x_min":0,"x_max":0,"o":"m 28 0 l 211 0 l 211 1042 l 28 1042 z m -11 1097 l 214 1097 l -153 1346 l -153 1181 z "},"Í":{"ha":239,"x_min":0,"x_max":0,"o":"m 28 0 l 211 0 l 211 1042 l 28 1042 z m 393 1181 l 393 1346 l 26 1097 l 251 1097 z "},"Î":{"ha":239,"x_min":0,"x_max":0,"o":"m 28 0 l 211 0 l 211 1042 l 28 1042 z m 121 1201 l 325 1068 l 325 1221 l 196 1310 l 44 1310 l -85 1221 l -85 1068 z "},"Ĩ":{"ha":239,"x_min":0,"x_max":0,"o":"m 28 0 l 211 0 l 211 1042 l 28 1042 z m 219 1090 b 325 1135 261 1090 296 1106 l 325 1278 b 222 1219 304 1250 279 1219 b 21 1282 168 1219 88 1282 b -85 1238 -21 1282 -56 1267 l -85 1094 b 18 1153 -64 1122 -39 1153 b 219 1090 71 1153 153 1090 z "},"Ï":{"ha":239,"x_min":0,"x_max":0,"o":"m 28 0 l 211 0 l 211 1042 l 28 1042 z m 301 1300 l 163 1300 l 119 1169 l 232 1089 l 346 1169 z m 75 1300 l -64 1300 l -107 1169 l 6 1089 l 119 1169 z "},"Ī":{"ha":239,"x_min":0,"x_max":0,"o":"m 28 0 l 211 0 l 211 1042 l 28 1042 z m -85 1126 l 325 1126 l 325 1258 l -85 1258 z "},"Ĭ":{"ha":239,"x_min":0,"x_max":0,"o":"m 28 0 l 211 0 l 211 1042 l 28 1042 z m 119 1214 b 44 1292 76 1214 49 1246 l -92 1292 b 119 1089 -87 1165 0 1089 b 332 1292 239 1089 328 1165 l 196 1292 b 119 1214 192 1246 163 1214 z "},"İ":{"ha":239,"x_min":0,"x_max":0,"o":"m 28 0 l 211 0 l 211 1042 l 28 1042 z m 189 1300 l 50 1300 l 7 1169 l 119 1089 l 233 1169 z "},"Į":{"ha":239,"x_min":0,"x_max":0,"o":"m 28 0 l 46 0 l 46 -165 b 201 -321 46 -267 101 -321 b 336 -271 253 -321 297 -303 l 267 -151 b 218 -175 250 -165 235 -175 b 190 -146 200 -175 190 -164 l 190 0 l 211 0 l 211 1042 l 28 1042 z "},"Ĵ":{"ha":750,"x_min":0,"x_max":0,"o":"m 722 471 l 722 647 l 661 647 l 661 1042 l 481 1042 l 28 839 l 28 647 l 478 849 l 478 633 b 72 243 263 597 72 478 b 342 -22 72 110 157 -22 b 661 336 528 -22 661 114 l 661 472 b 722 471 682 472 701 472 z m 478 335 b 343 158 478 231 432 158 b 264 240 296 158 264 194 b 478 460 264 360 350 432 z m 457 1201 l 661 1068 l 661 1221 l 532 1310 l 381 1310 l 251 1221 l 251 1068 z "},"Ķ":{"ha":913,"x_min":0,"x_max":0,"o":"m 353 772 b 211 728 299 772 250 756 l 211 1042 l 28 1042 l 28 0 l 211 0 l 211 358 b 354 314 250 329 300 314 b 619 396 454 314 546 343 b 697 0 665 306 694 178 l 885 0 b 743 529 875 246 818 414 b 797 1042 825 660 851 839 l 617 1042 b 622 665 664 893 663 763 b 353 772 513 754 399 772 z m 450 -267 b 386 -319 447 -314 414 -319 l 386 -386 b 535 -267 472 -386 513 -351 l 571 -136 l 457 -53 l 342 -136 l 386 -267 z m 353 486 b 283 544 314 486 283 507 b 353 601 283 581 314 601 b 517 532 392 601 456 585 b 353 486 471 503 415 486 z "},"Ĺ":{"ha":982,"x_min":0,"x_max":0,"o":"m 264 414 b 28 194 129 414 28 324 b 264 -22 28 65 128 -22 b 507 94 371 -22 451 24 b 803 -6 619 18 719 -6 b 954 26 867 -6 919 8 l 954 207 b 821 169 928 189 882 169 b 590 247 760 169 682 190 l 893 1042 l 701 1042 l 440 357 b 264 414 392 390 336 414 z m 264 144 b 200 194 228 144 200 163 b 264 244 200 225 228 244 b 368 206 299 244 336 226 b 264 144 333 157 296 144 z m 1083 1181 l 1083 1346 l 717 1097 l 942 1097 z "},"Ľ":{"ha":1176,"x_min":0,"x_max":0,"o":"m 264 414 b 28 194 129 414 28 324 b 264 -22 28 65 128 -22 b 507 94 371 -22 451 24 b 803 -6 619 18 719 -6 b 954 26 867 -6 919 8 l 954 207 b 821 169 928 189 882 169 b 590 247 760 169 682 190 l 893 1042 l 701 1042 l 440 357 b 264 414 392 390 336 414 z m 1031 799 b 957 725 1026 739 993 725 l 957 651 b 1124 817 1060 656 1088 690 l 1163 950 l 1036 1042 l 908 950 l 963 799 z m 264 144 b 200 194 228 144 200 163 b 264 244 200 225 228 244 b 368 206 299 244 336 226 b 264 144 333 157 296 144 z "},"Ļ":{"ha":982,"x_min":0,"x_max":0,"o":"m 264 414 b 28 194 129 414 28 324 b 264 -22 28 65 128 -22 b 507 94 371 -22 451 24 b 803 -6 619 18 719 -6 b 954 26 867 -6 919 8 l 954 207 b 821 169 928 189 882 169 b 590 247 760 169 682 190 l 893 1042 l 701 1042 l 440 357 b 264 414 392 390 336 414 z m 485 -267 b 421 -319 482 -314 449 -319 l 421 -386 b 569 -267 507 -386 547 -351 l 606 -136 l 492 -53 l 376 -136 l 421 -267 z m 264 144 b 200 194 228 144 200 163 b 264 244 200 225 228 244 b 368 206 299 244 336 226 b 264 144 333 157 296 144 z "},"Ŀ":{"ha":982,"x_min":0,"x_max":0,"o":"m 264 414 b 28 194 129 414 28 324 b 264 -22 28 65 128 -22 b 507 94 371 -22 451 24 b 803 -6 619 18 719 -6 b 954 26 867 -6 919 8 l 954 207 b 821 169 928 189 882 169 b 590 247 760 169 682 190 l 893 1042 l 701 1042 l 440 357 b 264 414 392 390 336 414 z m 994 333 l 819 333 l 767 496 l 907 597 l 1049 496 z m 264 144 b 200 194 228 144 200 163 b 264 244 200 225 228 244 b 368 206 299 244 336 226 b 264 144 333 157 296 144 z "},"Ł":{"ha":982,"x_min":0,"x_max":0,"o":"m 265 656 l 510 538 l 440 357 b 264 414 392 390 336 414 b 28 194 129 414 28 324 b 264 -22 28 65 128 -22 b 507 94 371 -22 451 24 b 803 -6 619 18 719 -6 b 954 26 867 -6 919 8 l 954 207 b 821 169 928 189 882 169 b 590 247 760 169 682 190 l 671 460 l 954 325 l 954 518 l 732 621 l 893 1042 l 701 1042 l 569 697 l 265 840 z m 264 144 b 200 194 228 144 200 163 b 264 244 200 225 228 244 b 368 206 299 244 336 226 b 264 144 333 157 296 144 z "},"Ń":{"ha":1053,"x_min":0,"x_max":0,"o":"m 908 594 b 1025 239 996 428 1025 317 b 746 -22 1025 69 907 -22 b 465 236 585 -22 465 68 b 582 597 465 315 489 410 l 643 719 l 614 771 b 425 892 569 849 497 892 b 208 667 290 892 208 814 l 208 0 l 28 0 l 29 672 b 424 1064 29 929 194 1064 b 735 906 567 1064 663 1006 b 801 1042 772 982 801 1042 l 1003 1042 b 842 721 1003 1042 917 872 z m 651 244 b 746 151 651 190 690 151 b 840 246 804 151 840 190 b 751 515 840 333 797 421 l 744 532 l 739 515 b 651 244 693 418 651 326 z m 888 1181 l 888 1346 l 521 1097 l 746 1097 z "},"Ň":{"ha":1053,"x_min":0,"x_max":0,"o":"m 842 721 b 1003 1042 917 872 1003 1042 l 801 1042 b 735 906 801 1042 772 982 b 424 1064 663 1006 567 1064 b 29 672 194 1064 29 929 l 28 0 l 208 0 l 208 667 b 425 892 208 814 290 892 b 614 771 497 892 569 849 l 643 719 l 582 597 b 465 236 489 410 465 315 b 746 -22 465 68 585 -22 b 1025 239 907 -22 1025 69 b 908 594 1025 317 996 428 z m 418 1339 l 418 1186 l 547 1097 l 699 1097 l 828 1186 l 828 1339 l 624 1206 z m 651 244 b 739 515 651 326 693 418 l 744 532 l 751 515 b 840 246 797 421 840 333 b 746 151 840 190 804 151 b 651 244 690 151 651 190 z "},"Ñ":{"ha":1053,"x_min":0,"x_max":0,"o":"m 908 594 b 1025 239 996 428 1025 317 b 746 -22 1025 69 907 -22 b 465 236 585 -22 465 68 b 582 597 465 315 489 410 l 643 719 l 614 771 b 425 892 569 849 497 892 b 208 667 290 892 208 814 l 208 0 l 28 0 l 29 672 b 424 1064 29 929 194 1064 b 735 906 567 1064 663 1006 b 801 1042 772 982 801 1042 l 1003 1042 b 842 721 1003 1042 917 872 z m 708 1090 b 814 1135 750 1090 785 1106 l 814 1278 b 711 1219 793 1250 768 1219 b 510 1282 657 1219 576 1282 b 404 1238 468 1282 433 1267 l 404 1094 b 507 1153 425 1122 450 1153 b 708 1090 560 1153 642 1090 z m 651 244 b 746 151 651 190 690 151 b 840 246 804 151 840 190 b 751 515 840 333 797 421 l 744 532 l 739 515 b 651 244 693 418 651 326 z "},"Ņ":{"ha":1053,"x_min":0,"x_max":0,"o":"m 842 721 b 1003 1042 917 872 1003 1042 l 801 1042 b 735 906 801 1042 772 982 b 424 1064 663 1006 567 1064 b 29 672 194 1064 29 929 l 28 0 l 208 0 l 208 667 b 425 892 208 814 290 892 b 614 771 497 892 569 849 l 643 719 l 582 597 b 465 236 489 410 465 315 b 746 -22 465 68 585 -22 b 1025 239 907 -22 1025 69 b 908 594 1025 317 996 428 z m 651 244 b 739 515 651 326 693 418 l 744 532 l 751 515 b 840 246 797 421 840 333 b 746 151 840 190 804 151 b 651 244 690 151 651 190 z m 519 -267 b 456 -319 517 -314 483 -319 l 456 -386 b 604 -267 542 -386 582 -351 l 640 -136 l 526 -53 l 411 -136 l 456 -267 z "},"Ò":{"ha":1144,"x_min":0,"x_max":0,"o":"m 571 1064 b 274 864 433 1064 294 997 l 213 929 b 29 524 101 831 29 686 b 572 -22 28 221 261 -22 b 1117 524 876 -22 1117 219 b 571 1064 1117 825 869 1064 z m 211 524 b 283 749 210 610 239 688 b 560 592 319 646 426 592 b 844 771 685 592 796 668 b 933 524 901 706 933 619 b 572 150 933 307 785 150 b 211 524 358 150 215 306 z m 571 904 b 710 863 625 904 683 885 b 558 758 686 794 622 758 b 446 832 494 758 446 788 b 571 904 446 876 497 904 z m 475 1097 l 700 1097 l 333 1346 l 333 1181 z "},"Ó":{"ha":1144,"x_min":0,"x_max":0,"o":"m 571 1064 b 1117 524 869 1064 1117 825 b 572 -22 1117 219 876 -22 b 29 524 261 -22 28 221 b 213 929 29 686 101 831 l 274 864 b 571 1064 294 997 433 1064 z m 211 524 b 572 150 215 306 358 150 b 933 524 785 150 933 307 b 844 771 933 619 901 706 b 560 592 796 668 685 592 b 283 749 426 592 319 646 b 211 524 239 688 210 610 z m 571 904 b 446 832 497 904 446 876 b 558 758 446 788 494 758 b 710 863 622 758 686 794 b 571 904 683 885 625 904 z m 867 1181 l 867 1346 l 500 1097 l 725 1097 z "},"Ô":{"ha":1144,"x_min":0,"x_max":0,"o":"m 571 1064 b 274 864 433 1064 294 997 l 213 929 b 29 524 101 831 29 686 b 572 -22 28 221 261 -22 b 1117 524 876 -22 1117 219 b 571 1064 1117 825 869 1064 z m 211 524 b 283 749 210 610 239 688 b 560 592 319 646 426 592 b 844 771 685 592 796 668 b 933 524 901 706 933 619 b 572 150 933 307 785 150 b 211 524 358 150 215 306 z m 571 904 b 710 863 625 904 683 885 b 558 758 686 794 622 758 b 446 832 494 758 446 788 b 571 904 446 876 497 904 z m 572 1201 l 776 1068 l 776 1221 l 647 1310 l 496 1310 l 367 1221 l 367 1068 z "},"Õ":{"ha":1144,"x_min":0,"x_max":0,"o":"m 571 1064 b 1117 524 869 1064 1117 825 b 572 -22 1117 219 876 -22 b 29 524 261 -22 28 221 b 213 929 29 686 101 831 l 274 864 b 571 1064 294 997 433 1064 z m 211 524 b 572 150 215 306 358 150 b 933 524 785 150 933 307 b 844 771 933 619 901 706 b 560 592 796 668 685 592 b 283 749 426 592 319 646 b 211 524 239 688 210 610 z m 571 904 b 446 832 497 904 446 876 b 558 758 446 788 494 758 b 710 863 622 758 686 794 b 571 904 683 885 625 904 z m 671 1090 b 776 1135 713 1090 747 1106 l 776 1278 b 674 1219 756 1250 731 1219 b 472 1282 619 1219 539 1282 b 367 1238 431 1282 396 1267 l 367 1094 b 469 1153 388 1122 413 1153 b 671 1090 522 1153 604 1090 z "},"Ö":{"ha":1144,"x_min":0,"x_max":0,"o":"m 571 1064 b 1117 524 869 1064 1117 825 b 572 -22 1117 219 876 -22 b 29 524 261 -22 28 221 b 213 929 29 686 101 831 l 274 864 b 571 1064 294 997 433 1064 z m 211 524 b 572 150 215 306 358 150 b 933 524 785 150 933 307 b 844 771 933 619 901 706 b 560 592 796 668 685 592 b 283 749 426 592 319 646 b 211 524 239 688 210 610 z m 528 1300 l 389 1300 l 346 1169 l 458 1089 l 572 1169 z m 754 1300 l 615 1300 l 572 1169 l 685 1089 l 799 1169 z m 571 904 b 446 832 497 904 446 876 b 558 758 446 788 494 758 b 710 863 622 758 686 794 b 571 904 683 885 625 904 z "},"Ō":{"ha":1144,"x_min":0,"x_max":0,"o":"m 571 1064 b 1117 524 869 1064 1117 825 b 572 -22 1117 219 876 -22 b 29 524 261 -22 28 221 b 213 929 29 686 101 831 l 274 864 b 571 1064 294 997 433 1064 z m 211 524 b 572 150 215 306 358 150 b 933 524 785 150 933 307 b 844 771 933 619 901 706 b 560 592 796 668 685 592 b 283 749 426 592 319 646 b 211 524 239 688 210 610 z m 571 904 b 446 832 497 904 446 876 b 558 758 446 788 494 758 b 710 863 622 758 686 794 b 571 904 683 885 625 904 z m 367 1126 l 776 1126 l 776 1258 l 367 1258 z "},"Ŏ":{"ha":1144,"x_min":0,"x_max":0,"o":"m 571 1064 b 274 864 433 1064 294 997 l 213 929 b 29 524 101 831 29 686 b 572 -22 28 221 261 -22 b 1117 524 876 -22 1117 219 b 571 1064 1117 825 869 1064 z m 211 524 b 283 749 210 610 239 688 b 560 592 319 646 426 592 b 844 771 685 592 796 668 b 933 524 901 706 933 619 b 572 150 933 307 785 150 b 211 524 358 150 215 306 z m 571 1214 b 496 1292 528 1214 500 1246 l 360 1292 b 571 1089 364 1165 451 1089 b 783 1292 690 1089 779 1165 l 647 1292 b 571 1214 643 1246 614 1214 z m 571 904 b 710 863 625 904 683 885 b 558 758 686 794 622 758 b 446 832 494 758 446 788 b 571 904 446 876 497 904 z "},"Ő":{"ha":1144,"x_min":0,"x_max":0,"o":"m 571 1064 b 1117 524 869 1064 1117 825 b 572 -22 1117 219 876 -22 b 29 524 261 -22 28 221 b 213 929 29 686 101 831 l 274 864 b 571 1064 294 997 433 1064 z m 211 524 b 572 150 215 306 358 150 b 933 524 785 150 933 307 b 844 771 933 619 901 706 b 560 592 796 668 685 592 b 283 749 426 592 319 646 b 211 524 239 688 210 610 z m 571 904 b 446 832 497 904 446 876 b 558 758 446 788 494 758 b 710 863 622 758 686 794 b 571 904 683 885 625 904 z m 671 1179 l 671 1338 l 371 1097 l 560 1097 z m 913 1179 l 913 1338 l 607 1097 l 796 1097 z "},"Ǿ":{"ha":1144,"x_min":0,"x_max":0,"o":"m 579 1061 b 1117 522 868 1061 1117 825 b 571 -19 1117 218 878 -19 b 338 31 488 -19 407 -7 l 314 0 l 124 0 l 207 117 b 29 522 97 215 28 360 b 208 931 29 685 97 832 l 308 824 b 579 1061 311 961 428 1061 z m 844 767 l 435 175 b 571 149 475 160 521 149 b 933 522 785 149 933 308 b 575 903 933 743 792 903 b 471 807 511 903 471 863 b 563 717 471 753 510 717 b 651 767 600 717 633 735 z m 208 522 b 307 261 208 418 246 328 l 515 565 b 310 785 401 589 319 674 b 208 522 247 718 210 628 z m 881 1181 l 881 1346 l 514 1097 l 739 1097 z "},"Ŕ":{"ha":904,"x_min":0,"x_max":0,"o":"m 701 664 b 456 892 701 801 597 892 b 211 642 315 892 211 782 l 211 0 l 28 0 l 28 646 b 458 1064 28 882 218 1064 b 876 669 688 1064 876 910 b 778 379 876 557 840 453 b 714 0 788 282 772 157 l 526 0 b 599 265 569 107 590 197 b 476 249 561 254 519 249 b 232 468 322 249 232 338 b 474 685 232 590 324 685 b 690 588 543 685 628 653 b 701 664 697 613 701 639 z m 475 517 b 410 467 438 517 410 499 b 481 413 410 438 433 413 b 582 442 518 413 553 424 b 475 517 554 503 503 517 z m 760 1181 l 760 1346 l 393 1097 l 618 1097 z "},"Ř":{"ha":904,"x_min":0,"x_max":0,"o":"m 701 664 b 690 588 701 639 697 613 b 474 685 628 653 543 685 b 232 468 324 685 232 590 b 476 249 232 338 322 249 b 599 265 519 249 561 254 b 526 0 590 197 569 107 l 714 0 b 778 379 772 157 788 282 b 876 669 840 453 876 557 b 458 1064 876 910 688 1064 b 28 646 218 1064 28 882 l 28 0 l 211 0 l 211 642 b 456 892 211 782 315 892 b 701 664 597 892 701 801 z m 475 517 b 582 442 503 517 554 503 b 481 413 553 424 518 413 b 410 467 433 413 410 438 b 475 517 410 499 438 517 z m 261 1339 l 261 1186 l 390 1097 l 542 1097 l 671 1186 l 671 1339 l 467 1206 z "},"Ŗ":{"ha":904,"x_min":0,"x_max":0,"o":"m 701 664 b 690 588 701 639 697 613 b 474 685 628 653 543 685 b 232 468 324 685 232 590 b 476 249 232 338 322 249 b 599 265 519 249 561 254 b 526 0 590 197 569 107 l 714 0 b 778 379 772 157 788 282 b 876 669 840 453 876 557 b 458 1064 876 910 688 1064 b 28 646 218 1064 28 882 l 28 0 l 211 0 l 211 642 b 456 892 211 782 315 892 b 701 664 597 892 701 801 z m 363 -267 b 299 -319 360 -314 326 -319 l 299 -386 b 447 -267 385 -386 425 -351 l 483 -136 l 369 -53 l 254 -136 l 299 -267 z m 475 517 b 582 442 503 517 554 503 b 481 413 553 424 518 413 b 410 467 433 413 410 438 b 475 517 410 499 438 517 z "},"Ś":{"ha":714,"x_min":0,"x_max":0,"o":"m 63 269 b 188 506 63 372 110 456 b 28 757 97 560 28 629 b 350 1064 28 938 171 1064 b 686 844 486 1064 614 993 l 554 718 b 350 888 517 797 439 888 b 215 764 269 888 215 840 b 406 594 215 693 297 647 b 676 274 528 535 676 460 b 365 -22 676 100 540 -22 b 63 269 192 -22 63 101 z m 486 269 b 419 375 486 313 461 350 b 368 385 403 382 386 385 b 250 269 304 385 250 344 b 368 154 250 197 304 154 b 486 269 432 154 486 196 z m 619 1181 l 619 1346 l 253 1097 l 478 1097 z "},"Ŝ":{"ha":714,"x_min":0,"x_max":0,"o":"m 63 269 b 365 -22 63 101 192 -22 b 676 274 540 -22 676 100 b 406 594 676 460 528 535 b 215 764 297 647 215 693 b 350 888 215 840 269 888 b 554 718 439 888 517 797 l 686 844 b 350 1064 614 993 486 1064 b 28 757 171 1064 28 938 b 188 506 28 629 97 560 b 63 269 110 456 63 372 z m 486 269 b 368 154 486 196 432 154 b 250 269 304 154 250 197 b 368 385 250 344 304 385 b 419 375 386 385 403 382 b 486 269 461 350 486 313 z m 357 1201 l 561 1068 l 561 1221 l 432 1310 l 281 1310 l 151 1221 l 151 1068 z "},"Š":{"ha":714,"x_min":0,"x_max":0,"o":"m 63 269 b 365 -22 63 101 192 -22 b 676 274 540 -22 676 100 b 406 594 676 460 528 535 b 215 764 297 647 215 693 b 350 888 215 840 269 888 b 554 718 439 888 517 797 l 686 844 b 350 1064 614 993 486 1064 b 28 757 171 1064 28 938 b 188 506 28 629 97 560 b 63 269 110 456 63 372 z m 486 269 b 368 154 486 196 432 154 b 250 269 304 154 250 197 b 368 385 250 344 304 385 b 419 375 386 385 403 382 b 486 269 461 350 486 313 z m 151 1339 l 151 1186 l 281 1097 l 432 1097 l 561 1186 l 561 1339 l 357 1206 z "},"Ş":{"ha":714,"x_min":0,"x_max":0,"o":"m 207 -299 b 338 -328 236 -315 286 -328 b 507 -174 424 -328 507 -276 b 408 -47 507 -101 456 -58 l 408 -19 b 676 274 563 -1 676 114 b 406 594 676 460 528 535 b 215 764 297 647 215 693 b 350 888 215 840 269 888 b 554 718 439 888 517 797 l 686 844 b 350 1064 614 993 486 1064 b 28 757 171 1064 28 938 b 188 506 28 629 97 560 b 63 269 110 456 63 372 b 276 -10 63 132 149 24 l 276 -128 b 367 -165 339 -121 367 -137 b 322 -201 367 -189 347 -201 b 246 -171 281 -201 246 -171 z m 486 269 b 368 154 486 196 432 154 b 250 269 304 154 250 197 b 368 385 250 344 304 385 b 419 375 386 385 403 382 b 486 269 461 350 486 313 z "},"Ș":{"ha":714,"x_min":0,"x_max":0,"o":"m 63 269 b 365 -22 63 101 192 -22 b 676 274 540 -22 676 100 b 406 594 676 460 528 535 b 215 764 297 647 215 693 b 350 888 215 840 269 888 b 554 718 439 888 517 797 l 686 844 b 350 1064 614 993 486 1064 b 28 757 171 1064 28 938 b 188 506 28 629 97 560 b 63 269 110 456 63 372 z m 350 -267 b 286 -319 347 -314 314 -319 l 286 -386 b 435 -267 372 -386 413 -351 l 471 -136 l 357 -53 l 242 -136 l 286 -267 z m 486 269 b 368 154 486 196 432 154 b 250 269 304 154 250 197 b 368 385 250 344 304 385 b 419 375 386 385 403 382 b 486 269 461 350 486 313 z "},"Ť":{"ha":1083,"x_min":0,"x_max":0,"o":"m 1056 1040 b 929 1067 1017 1058 974 1067 b 644 958 839 1067 742 1029 b 347 1064 572 1021 461 1064 b 28 835 151 1064 28 961 b 338 607 28 696 149 607 b 535 660 411 607 485 628 l 535 0 l 718 0 l 718 789 b 944 886 804 850 874 886 b 1056 856 981 886 1017 876 z m 343 892 b 500 836 392 892 460 876 b 340 778 461 801 399 778 b 222 835 263 778 222 803 b 343 892 222 867 265 892 z m 421 1339 l 421 1186 l 550 1097 l 701 1097 l 831 1186 l 831 1339 l 626 1206 z "},"Ţ":{"ha":1083,"x_min":0,"x_max":0,"o":"m 493 -299 b 624 -328 522 -315 572 -328 b 793 -174 710 -328 793 -276 b 694 -47 793 -101 742 -58 l 694 0 l 718 0 l 718 789 b 944 886 804 850 874 886 b 1056 856 981 886 1017 876 l 1056 1040 b 929 1067 1017 1058 974 1067 b 644 958 839 1067 742 1029 b 347 1064 572 1021 461 1064 b 28 835 151 1064 28 961 b 338 607 28 696 149 607 b 535 660 411 607 485 628 l 535 0 l 563 0 l 563 -128 b 653 -165 625 -121 653 -137 b 608 -201 653 -189 633 -201 b 532 -171 567 -201 532 -171 z m 343 892 b 500 836 392 892 460 876 b 340 778 461 801 399 778 b 222 835 263 778 222 803 b 343 892 222 867 265 892 z "},"Ț":{"ha":1083,"x_min":0,"x_max":0,"o":"m 1056 1040 b 929 1067 1017 1058 974 1067 b 644 958 839 1067 742 1029 b 347 1064 572 1021 461 1064 b 28 835 151 1064 28 961 b 338 607 28 696 149 607 b 535 660 411 607 485 628 l 535 0 l 718 0 l 718 789 b 944 886 804 850 874 886 b 1056 856 981 886 1017 876 z m 619 -267 b 556 -319 617 -314 583 -319 l 556 -386 b 704 -267 642 -386 682 -351 l 740 -136 l 626 -53 l 511 -136 l 556 -267 z m 343 892 b 500 836 392 892 460 876 b 340 778 461 801 399 778 b 222 835 263 778 222 803 b 343 892 222 867 265 892 z "},"Ŧ":{"ha":1083,"x_min":0,"x_max":0,"o":"m 388 383 l 535 383 l 535 0 l 718 0 l 718 383 l 867 383 l 867 547 l 718 547 l 718 789 b 944 886 804 850 874 886 b 1056 856 981 886 1017 876 l 1056 1040 b 929 1067 1017 1058 974 1067 b 644 958 839 1067 742 1029 b 347 1064 572 1021 461 1064 b 28 835 151 1064 28 961 b 338 607 28 696 149 607 b 535 660 411 607 485 628 l 535 547 l 388 547 z m 343 892 b 500 836 392 892 460 876 b 340 778 461 801 399 778 b 222 835 263 778 222 803 b 343 892 222 867 265 892 z "},"Ù":{"ha":1053,"x_min":0,"x_max":0,"o":"m 144 447 b 211 319 172 392 193 353 b 50 0 135 169 50 0 l 251 0 b 318 135 251 0 281 58 b 629 -22 389 36 486 -22 b 1024 369 858 -22 1024 113 l 1025 1042 l 844 1042 l 844 375 b 628 150 844 228 763 150 b 439 271 556 150 483 193 l 410 322 l 471 444 b 588 806 564 632 588 726 b 307 1064 588 974 468 1064 b 28 803 146 1064 28 972 b 144 447 28 725 57 614 z m 308 510 l 301 526 b 213 794 256 621 213 707 b 307 890 213 851 251 890 b 401 797 360 890 401 853 b 315 526 401 715 361 624 z m 526 1097 l 751 1097 l 385 1346 l 385 1181 z "},"Ú":{"ha":1053,"x_min":0,"x_max":0,"o":"m 144 447 b 211 319 172 392 193 353 b 50 0 135 169 50 0 l 251 0 b 318 135 251 0 281 58 b 629 -22 389 36 486 -22 b 1024 369 858 -22 1024 113 l 1025 1042 l 844 1042 l 844 375 b 628 150 844 228 763 150 b 439 271 556 150 483 193 l 410 322 l 471 444 b 588 806 564 632 588 726 b 307 1064 588 974 468 1064 b 28 803 146 1064 28 972 b 144 447 28 725 57 614 z m 308 510 l 301 526 b 213 794 256 621 213 707 b 307 890 213 851 251 890 b 401 797 360 890 401 853 b 315 526 401 715 361 624 z m 807 1181 l 807 1346 l 440 1097 l 665 1097 z "},"Û":{"ha":1053,"x_min":0,"x_max":0,"o":"m 144 447 b 211 319 172 392 193 353 b 50 0 135 169 50 0 l 251 0 b 318 135 251 0 281 58 b 629 -22 389 36 486 -22 b 1024 369 858 -22 1024 113 l 1025 1042 l 844 1042 l 844 375 b 628 150 844 228 763 150 b 439 271 556 150 483 193 l 410 322 l 471 444 b 588 806 564 632 588 726 b 307 1064 588 974 468 1064 b 28 803 146 1064 28 972 b 144 447 28 725 57 614 z m 308 510 l 301 526 b 213 794 256 621 213 707 b 307 890 213 851 251 890 b 401 797 360 890 401 853 b 315 526 401 715 361 624 z m 582 1201 l 786 1068 l 786 1221 l 657 1310 l 506 1310 l 376 1221 l 376 1068 z "},"Ũ":{"ha":1053,"x_min":0,"x_max":0,"o":"m 144 447 b 211 319 172 392 193 353 b 50 0 135 169 50 0 l 251 0 b 318 135 251 0 281 58 b 629 -22 389 36 486 -22 b 1024 369 858 -22 1024 113 l 1025 1042 l 844 1042 l 844 375 b 628 150 844 228 763 150 b 439 271 556 150 483 193 l 410 322 l 471 444 b 588 806 564 632 588 726 b 307 1064 588 974 468 1064 b 28 803 146 1064 28 972 b 144 447 28 725 57 614 z m 308 510 l 301 526 b 213 794 256 621 213 707 b 307 890 213 851 251 890 b 401 797 360 890 401 853 b 315 526 401 715 361 624 z m 667 1090 b 772 1135 708 1090 743 1106 l 772 1278 b 669 1219 751 1250 726 1219 b 468 1282 615 1219 535 1282 b 363 1238 426 1282 392 1267 l 363 1094 b 465 1153 383 1122 408 1153 b 667 1090 518 1153 600 1090 z "},"Ü":{"ha":1053,"x_min":0,"x_max":0,"o":"m 144 447 b 211 319 172 392 193 353 b 50 0 135 169 50 0 l 251 0 b 318 135 251 0 281 58 b 629 -22 389 36 486 -22 b 1024 369 858 -22 1024 113 l 1025 1042 l 844 1042 l 844 375 b 628 150 844 228 763 150 b 439 271 556 150 483 193 l 410 322 l 471 444 b 588 806 564 632 588 726 b 307 1064 588 974 468 1064 b 28 803 146 1064 28 972 b 144 447 28 725 57 614 z m 308 510 l 301 526 b 213 794 256 621 213 707 b 307 890 213 851 251 890 b 401 797 360 890 401 853 b 315 526 401 715 361 624 z m 551 1300 l 413 1300 l 369 1169 l 482 1089 l 596 1169 z m 778 1300 l 639 1300 l 596 1169 l 708 1089 l 822 1169 z "},"Ū":{"ha":1053,"x_min":0,"x_max":0,"o":"m 144 447 b 211 319 172 392 193 353 b 50 0 135 169 50 0 l 251 0 b 318 135 251 0 281 58 b 629 -22 389 36 486 -22 b 1024 369 858 -22 1024 113 l 1025 1042 l 844 1042 l 844 375 b 628 150 844 228 763 150 b 439 271 556 150 483 193 l 410 322 l 471 444 b 588 806 564 632 588 726 b 307 1064 588 974 468 1064 b 28 803 146 1064 28 972 b 144 447 28 725 57 614 z m 308 510 l 301 526 b 213 794 256 621 213 707 b 307 890 213 851 251 890 b 401 797 360 890 401 853 b 315 526 401 715 361 624 z m 363 1126 l 772 1126 l 772 1258 l 363 1258 z "},"Ŭ":{"ha":1053,"x_min":0,"x_max":0,"o":"m 144 447 b 211 319 172 392 193 353 b 50 0 135 169 50 0 l 251 0 b 318 135 251 0 281 58 b 629 -22 389 36 486 -22 b 1024 369 858 -22 1024 113 l 1025 1042 l 844 1042 l 844 375 b 628 150 844 228 763 150 b 439 271 556 150 483 193 l 410 322 l 471 444 b 588 806 564 632 588 726 b 307 1064 588 974 468 1064 b 28 803 146 1064 28 972 b 144 447 28 725 57 614 z m 594 1214 b 519 1292 551 1214 524 1246 l 383 1292 b 594 1089 388 1165 475 1089 b 807 1292 714 1089 803 1165 l 671 1292 b 594 1214 667 1246 638 1214 z m 308 510 l 301 526 b 213 794 256 621 213 707 b 307 890 213 851 251 890 b 401 797 360 890 401 853 b 315 526 401 715 361 624 z "},"Ů":{"ha":1053,"x_min":0,"x_max":0,"o":"m 144 447 b 211 319 172 392 193 353 b 50 0 135 169 50 0 l 251 0 b 318 135 251 0 281 58 b 629 -22 389 36 486 -22 b 1024 369 858 -22 1024 113 l 1025 1042 l 844 1042 l 844 375 b 628 150 844 228 763 150 b 439 271 556 150 483 193 l 410 322 l 471 444 b 588 806 564 632 588 726 b 307 1064 588 974 468 1064 b 28 803 146 1064 28 972 b 144 447 28 725 57 614 z m 308 510 l 301 526 b 213 794 256 621 213 707 b 307 890 213 851 251 890 b 401 797 360 890 401 853 b 315 526 401 715 361 624 z m 469 1200 b 624 1046 469 1115 539 1046 b 778 1200 708 1046 778 1115 b 624 1354 778 1285 708 1354 b 469 1200 539 1354 469 1285 z m 569 1200 b 624 1254 569 1231 593 1254 b 678 1200 654 1254 678 1231 b 624 1146 678 1169 654 1146 b 569 1200 593 1146 569 1169 z "},"Ű":{"ha":1053,"x_min":0,"x_max":0,"o":"m 144 447 b 211 319 172 392 193 353 b 50 0 135 169 50 0 l 251 0 b 318 135 251 0 281 58 b 629 -22 389 36 486 -22 b 1024 369 858 -22 1024 113 l 1025 1042 l 844 1042 l 844 375 b 628 150 844 228 763 150 b 439 271 556 150 483 193 l 410 322 l 471 444 b 588 806 564 632 588 726 b 307 1064 588 974 468 1064 b 28 803 146 1064 28 972 b 144 447 28 725 57 614 z m 308 510 l 301 526 b 213 794 256 621 213 707 b 307 890 213 851 251 890 b 401 797 360 890 401 853 b 315 526 401 715 361 624 z m 639 1179 l 639 1338 l 339 1097 l 528 1097 z m 881 1179 l 881 1338 l 575 1097 l 764 1097 z "},"Ų":{"ha":1053,"x_min":0,"x_max":0,"o":"m 838 -151 b 789 -175 821 -165 806 -175 b 761 -146 771 -175 761 -164 l 761 -6 b 1024 369 919 38 1024 165 l 1025 1042 l 844 1042 l 844 375 b 628 150 844 228 763 150 b 439 271 556 150 483 193 l 410 322 l 471 444 b 588 806 564 632 588 726 b 307 1064 588 974 468 1064 b 28 803 146 1064 28 972 b 144 447 28 725 57 614 b 211 319 172 392 193 353 b 50 0 135 169 50 0 l 251 0 b 318 135 251 0 281 58 b 617 -22 386 39 481 -18 l 617 -165 b 772 -321 617 -267 672 -321 b 907 -271 824 -321 868 -303 z m 308 510 l 301 526 b 213 794 256 621 213 707 b 307 890 213 851 251 890 b 401 797 360 890 401 853 b 315 526 401 715 361 624 z "},"Ẁ":{"ha":1379,"x_min":0,"x_max":0,"o":"m 1361 1042 l 1181 1042 l 1181 306 b 1039 154 1181 214 1128 154 b 894 246 963 154 926 193 l 856 311 l 956 514 b 1033 797 1010 624 1033 718 b 757 1064 1033 969 919 1064 b 476 797 596 1064 476 967 b 558 514 476 718 503 625 b 661 313 589 451 625 381 l 597 188 l 229 1042 l 28 1042 l 483 0 l 704 0 l 765 125 b 1039 -22 825 35 911 -22 b 1364 319 1257 -22 1365 125 z m 757 504 l 725 572 b 665 793 694 638 665 724 b 756 890 665 847 699 890 b 847 793 811 890 847 849 b 789 572 847 722 818 635 z m 647 1097 l 872 1097 l 506 1346 l 506 1181 z "},"Ẃ":{"ha":1379,"x_min":0,"x_max":0,"o":"m 1364 319 b 1039 -22 1365 125 1257 -22 b 765 125 911 -22 825 35 l 704 0 l 483 0 l 28 1042 l 229 1042 l 597 188 l 661 313 b 558 514 625 381 589 451 b 476 797 503 625 476 718 b 757 1064 476 967 596 1064 b 1033 797 919 1064 1033 969 b 956 514 1033 718 1010 624 l 856 311 l 894 246 b 1039 154 926 193 963 154 b 1181 306 1128 154 1181 214 l 1181 1042 l 1361 1042 z m 789 572 b 847 793 818 635 847 722 b 756 890 847 849 811 890 b 665 793 699 890 665 847 b 725 572 665 724 694 638 l 757 504 z m 1036 1181 l 1036 1346 l 669 1097 l 894 1097 z "},"Ŵ":{"ha":1379,"x_min":0,"x_max":0,"o":"m 1361 1042 l 1181 1042 l 1181 306 b 1039 154 1181 214 1128 154 b 894 246 963 154 926 193 l 856 311 l 956 514 b 1033 797 1010 624 1033 718 b 757 1064 1033 969 919 1064 b 476 797 596 1064 476 967 b 558 514 476 718 503 625 b 661 313 589 451 625 381 l 597 188 l 229 1042 l 28 1042 l 483 0 l 704 0 l 765 125 b 1039 -22 825 35 911 -22 b 1364 319 1257 -22 1365 125 z m 757 504 l 725 572 b 665 793 694 638 665 724 b 756 890 665 847 699 890 b 847 793 811 890 847 849 b 789 572 847 722 818 635 z m 756 1201 l 960 1068 l 960 1221 l 831 1310 l 679 1310 l 550 1221 l 550 1068 z "},"Ẅ":{"ha":1379,"x_min":0,"x_max":0,"o":"m 1364 319 b 1039 -22 1365 125 1257 -22 b 765 125 911 -22 825 35 l 704 0 l 483 0 l 28 1042 l 229 1042 l 597 188 l 661 313 b 558 514 625 381 589 451 b 476 797 503 625 476 718 b 757 1064 476 967 596 1064 b 1033 797 919 1064 1033 969 b 956 514 1033 718 1010 624 l 856 311 l 894 246 b 1039 154 926 193 963 154 b 1181 306 1128 154 1181 214 l 1181 1042 l 1361 1042 z m 789 572 b 847 793 818 635 847 722 b 756 890 847 849 811 890 b 665 793 699 890 665 847 b 725 572 665 724 694 638 l 757 504 z m 728 1300 l 589 1300 l 546 1169 l 658 1089 l 772 1169 z m 954 1300 l 815 1300 l 772 1169 l 885 1089 l 999 1169 z "},"Ỳ":{"ha":1131,"x_min":0,"x_max":0,"o":"m 28 875 b 404 357 28 622 182 421 l 250 0 l 450 0 l 594 340 b 1103 843 854 358 1103 575 b 893 1068 1103 986 1010 1068 b 581 788 711 1068 647 947 l 474 521 b 208 878 314 561 208 700 b 257 1042 208 943 224 999 l 65 1042 b 28 875 40 997 28 947 z m 918 838 b 674 529 914 701 807 575 l 760 728 b 875 892 794 808 829 892 b 918 838 901 892 919 868 z m 538 1097 l 763 1097 l 396 1346 l 396 1181 z "},"Ý":{"ha":1131,"x_min":0,"x_max":0,"o":"m 28 875 b 65 1042 28 947 40 997 l 257 1042 b 208 878 224 999 208 943 b 474 521 208 700 314 561 l 581 788 b 893 1068 647 947 711 1068 b 1103 843 1010 1068 1103 986 b 594 340 1103 575 854 358 l 450 0 l 250 0 l 404 357 b 28 875 182 421 28 622 z m 918 838 b 875 892 919 868 901 892 b 760 728 829 892 794 808 l 674 529 b 918 838 807 575 914 701 z m 776 1181 l 776 1346 l 410 1097 l 635 1097 z "},"Ŷ":{"ha":1131,"x_min":0,"x_max":0,"o":"m 28 875 b 404 357 28 622 182 421 l 250 0 l 450 0 l 594 340 b 1103 843 854 358 1103 575 b 893 1068 1103 986 1010 1068 b 581 788 711 1068 647 947 l 474 521 b 208 878 314 561 208 700 b 257 1042 208 943 224 999 l 65 1042 b 28 875 40 997 28 947 z m 918 838 b 674 529 914 701 807 575 l 760 728 b 875 892 794 808 829 892 b 918 838 901 892 919 868 z m 565 1201 l 769 1068 l 769 1221 l 640 1310 l 489 1310 l 360 1221 l 360 1068 z "},"Ÿ":{"ha":1131,"x_min":0,"x_max":0,"o":"m 28 875 b 65 1042 28 947 40 997 l 257 1042 b 208 878 224 999 208 943 b 474 521 208 700 314 561 l 581 788 b 893 1068 647 947 711 1068 b 1103 843 1010 1068 1103 986 b 594 340 1103 575 854 358 l 450 0 l 250 0 l 404 357 b 28 875 182 421 28 622 z m 918 838 b 875 892 919 868 901 892 b 760 728 829 892 794 808 l 674 529 b 918 838 807 575 914 701 z m 521 1300 l 382 1300 l 339 1169 l 451 1089 l 565 1169 z m 747 1300 l 608 1300 l 565 1169 l 678 1089 l 792 1169 z "},"Ź":{"ha":842,"x_min":0,"x_max":0,"o":"m 814 1042 l 50 1042 l 50 875 l 621 875 l 478 636 b 283 660 411 654 342 661 b 28 432 140 660 28 568 b 247 213 28 303 121 213 b 453 311 319 213 400 249 b 539 426 486 351 513 389 b 607 290 582 394 607 350 b 469 147 607 213 553 147 b 369 192 429 147 394 165 l 256 50 b 469 -22 313 -3 386 -22 b 782 288 657 -22 782 111 b 633 568 782 418 719 510 l 814 868 z m 256 378 b 197 432 221 378 197 399 b 288 496 197 476 238 496 b 379 489 315 496 344 493 b 256 378 351 444 310 378 z m 660 1181 l 660 1346 l 293 1097 l 518 1097 z "},"Ž":{"ha":842,"x_min":0,"x_max":0,"o":"m 814 1042 l 50 1042 l 50 875 l 621 875 l 478 636 b 283 660 411 654 342 661 b 28 432 140 660 28 568 b 247 213 28 303 121 213 b 453 311 319 213 400 249 b 539 426 486 351 513 389 b 607 290 582 394 607 350 b 469 147 607 213 553 147 b 369 192 429 147 394 165 l 256 50 b 469 -22 313 -3 386 -22 b 782 288 657 -22 782 111 b 633 568 782 418 719 510 l 814 868 z m 256 378 b 197 432 221 378 197 399 b 288 496 197 476 238 496 b 379 489 315 496 344 493 b 256 378 351 444 310 378 z m 238 1339 l 238 1186 l 367 1097 l 518 1097 l 647 1186 l 647 1339 l 443 1206 z "},"Ż":{"ha":842,"x_min":0,"x_max":0,"o":"m 814 1042 l 50 1042 l 50 875 l 621 875 l 478 636 b 283 660 411 654 342 661 b 28 432 140 660 28 568 b 247 213 28 303 121 213 b 453 311 319 213 400 249 b 539 426 486 351 513 389 b 607 290 582 394 607 350 b 469 147 607 213 553 147 b 369 192 429 147 394 165 l 256 50 b 469 -22 313 -3 386 -22 b 782 288 657 -22 782 111 b 633 568 782 418 719 510 l 814 868 z m 507 1300 l 368 1300 l 325 1169 l 438 1089 l 551 1169 z m 256 378 b 197 432 221 378 197 399 b 288 496 197 476 238 496 b 379 489 315 496 344 493 b 256 378 351 444 310 378 z "},"a":{"ha":1135,"x_min":0,"x_max":0,"o":"m 1107 511 b 894 793 1106 669 1022 779 l 982 872 b 568 1064 883 990 735 1064 b 28 521 269 1064 28 824 b 568 -22 28 215 269 -22 b 847 54 669 -22 765 6 b 1114 -22 918 10 1006 -18 l 1113 146 b 988 176 1065 149 1024 160 b 1107 511 1061 268 1104 383 z m 624 513 b 719 178 624 389 654 271 b 568 149 674 158 622 149 b 211 521 354 149 211 310 b 568 893 211 732 354 893 b 821 792 672 893 758 854 b 624 513 689 767 625 632 z m 799 489 b 864 617 799 564 822 617 b 926 506 904 617 926 564 b 857 286 926 421 901 346 b 799 489 819 343 799 414 z "},"b":{"ha":1072,"x_min":0,"x_max":0,"o":"m 42 363 l 28 171 b 569 -22 142 83 304 -22 b 1044 378 831 -22 1044 132 b 925 660 1044 499 996 593 b 521 1064 932 932 743 1064 b 94 635 303 1064 94 900 l 94 322 b 42 363 71 339 56 351 z m 864 378 b 567 149 864 236 739 149 b 278 215 460 149 364 175 l 278 642 b 521 894 278 792 379 894 b 742 758 632 894 711 843 b 629 772 704 767 665 772 b 364 538 481 772 365 676 b 589 317 364 411 444 317 b 851 454 697 317 790 374 b 864 378 860 431 864 404 z m 597 485 b 538 539 560 485 538 507 b 654 608 538 586 596 608 b 736 590 683 608 711 603 b 597 485 710 531 657 485 z "},"c":{"ha":1000,"x_min":0,"x_max":0,"o":"m 572 907 b 694 831 646 907 694 876 b 583 758 694 786 654 758 b 435 868 515 758 453 806 b 572 907 467 890 525 907 z m 867 275 b 576 149 807 204 693 149 b 208 519 351 149 208 301 b 293 767 208 615 239 704 b 582 594 340 661 457 594 b 872 831 738 594 872 679 b 583 1064 872 974 738 1064 b 450 1046 558 1064 483 1060 b 464 1081 453 1056 461 1075 l 297 1081 b 269 975 286 1053 274 1004 b 28 519 124 879 28 713 b 571 -22 28 197 260 -22 b 972 149 726 -22 874 43 z "},"d":{"ha":1207,"x_min":0,"x_max":0,"o":"m 28 421 b 629 -22 28 150 301 -22 b 1179 522 947 -22 1179 218 b 664 1064 1179 826 951 1064 b 286 690 457 1064 290 938 b 28 421 125 690 28 572 z m 624 550 b 468 642 567 590 514 619 l 468 676 b 664 894 468 810 543 894 b 996 522 856 894 996 751 b 629 150 996 299 842 150 b 468 172 572 150 518 158 l 468 443 b 604 350 514 417 560 385 z m 206 422 b 286 506 206 463 231 507 l 286 263 b 206 422 236 307 206 363 z "},"e":{"ha":807,"x_min":0,"x_max":0,"o":"m 207 678 b 421 894 207 803 289 894 b 631 771 519 894 592 842 l 779 869 b 422 1064 699 997 557 1064 b 28 681 196 1064 28 901 b 83 485 28 608 47 542 b 53 321 64 435 53 378 b 415 -22 53 103 215 -22 b 678 81 514 -22 613 15 l 557 206 b 418 150 524 175 468 150 b 235 324 314 150 235 214 l 236 342 b 435 292 296 310 363 292 b 669 511 569 292 669 376 b 431 731 669 646 565 731 b 208 654 343 731 269 701 z m 429 568 b 500 511 467 568 500 549 b 429 451 500 472 467 451 b 292 500 385 451 335 468 b 429 568 329 544 379 568 z "},"f":{"ha":825,"x_min":0,"x_max":0,"o":"m 508 613 l 508 850 l 797 735 l 797 928 l 508 1042 l 325 1042 l 325 613 b 28 282 132 606 28 453 b 267 -22 28 71 132 -22 b 508 274 422 -22 508 89 l 508 429 l 797 429 l 797 613 z m 207 278 b 325 429 207 372 247 426 l 325 269 b 267 157 325 192 301 157 b 207 278 231 157 207 190 z "},"g":{"ha":1210,"x_min":0,"x_max":0,"o":"m 931 931 b 571 1064 835 1014 706 1064 b 28 519 263 1064 28 825 b 568 -21 28 211 239 -21 b 643 -10 592 -21 625 -18 b 624 -81 632 -32 624 -57 b 864 -308 624 -217 711 -308 b 1114 -54 1013 -308 1114 -207 l 1114 225 b 1182 250 1140 236 1164 244 l 1182 443 b 1114 421 1164 439 1140 432 l 1114 1040 l 931 1040 z m 931 508 b 571 149 921 292 746 149 b 210 519 356 149 210 299 b 571 893 210 726 349 893 b 849 767 685 893 783 840 b 931 846 851 767 894 811 z m 806 -76 b 931 118 806 -3 860 64 l 931 -57 b 865 -137 931 -101 904 -137 b 806 -76 829 -137 806 -110 z "},"h":{"ha":1051,"x_min":0,"x_max":0,"o":"m 469 904 l 449 904 l 449 1042 l 265 1042 l 265 863 b 28 493 118 799 28 663 b 264 0 28 281 129 138 l 449 0 l 449 732 l 467 733 b 840 235 681 733 840 532 l 840 0 l 1024 0 l 1024 1042 l 840 1042 l 840 736 b 469 904 744 840 617 904 z m 208 499 b 267 661 208 564 229 621 l 267 281 b 208 499 226 358 208 428 z "},"i":{"ha":282,"x_min":0,"x_max":0,"o":"m 233 832 l 50 832 l 50 0 l 233 0 z m 210 1064 l 71 1064 l 28 933 l 140 853 l 254 933 z "},"j":{"ha":754,"x_min":0,"x_max":0,"o":"m 478 832 l 661 832 l 661 417 b 726 435 686 425 708 431 l 726 244 l 661 225 l 661 1 b 415 -246 661 -143 554 -246 b 171 -12 274 -246 171 -153 b 478 343 171 151 326 268 l 478 636 l 28 364 l 28 556 z m 640 1064 l 501 1064 l 458 933 l 571 853 l 685 933 z m 353 -14 b 414 -75 353 -50 375 -75 b 478 -4 451 -75 478 -47 l 478 144 b 353 -14 407 101 353 49 z "},"k":{"ha":878,"x_min":0,"x_max":0,"o":"m 814 0 b 849 268 839 100 849 189 b 708 667 849 453 790 583 l 850 1042 l 657 1042 l 557 767 b 433 789 515 782 472 789 b 211 682 335 789 256 746 l 211 1042 l 28 1042 l 28 0 l 211 0 l 211 431 b 400 332 250 369 318 332 b 631 482 501 332 581 385 b 675 272 657 431 675 361 b 628 0 675 197 664 106 z m 401 500 b 343 554 365 500 343 522 b 424 618 343 592 375 618 b 500 603 449 618 478 611 b 401 500 481 538 443 500 z "},"l":{"ha":440,"x_min":0,"x_max":0,"o":"m 413 208 l 413 401 b 211 325 338 401 261 374 l 211 1042 l 28 1042 l 28 0 l 203 0 b 413 208 199 115 286 213 z "},"m":{"ha":1286,"x_min":0,"x_max":0,"o":"m 531 251 b 768 -22 531 94 618 -22 b 1013 300 896 -22 1013 51 l 1013 560 b 1081 431 1054 539 1081 499 l 1081 0 l 1258 0 l 1258 432 b 1013 744 1258 597 1156 715 l 1013 774 b 706 1064 1013 963 876 1064 b 375 826 533 1064 439 983 l 211 418 l 211 1042 l 28 1042 l 28 0 l 211 0 l 546 767 b 701 892 578 838 621 892 b 832 763 781 892 832 840 l 832 735 b 531 251 638 675 531 458 z m 768 150 b 708 244 731 150 708 192 b 832 542 708 394 761 493 l 832 267 b 768 150 832 182 806 150 z "},"n":{"ha":1061,"x_min":0,"x_max":0,"o":"m 28 296 b 310 -22 28 106 139 -22 b 586 275 475 -22 586 104 b 408 801 586 447 496 649 b 632 894 472 860 549 894 b 853 667 765 894 853 806 l 853 0 l 1033 0 l 1032 664 b 632 1064 1032 911 850 1064 b 319 947 511 1064 406 1018 b 254 1042 281 1006 254 1042 l 53 1042 b 203 821 108 965 160 892 b 28 296 88 664 28 456 z m 406 269 b 308 151 404 208 369 151 b 210 282 247 151 210 203 b 297 654 210 417 242 550 b 406 269 371 508 408 378 z "},"o":{"ha":1144,"x_min":0,"x_max":0,"o":"m 743 1035 b 571 1064 689 1053 631 1064 b 274 864 433 1064 294 997 l 213 929 b 29 524 101 831 29 686 b 572 -22 28 221 264 -22 b 1117 524 876 -22 1117 219 b 907 947 1117 697 1033 849 b 897 1064 910 988 907 1025 l 733 1064 b 743 1035 738 1054 740 1044 z m 211 524 b 283 749 211 610 239 688 b 558 592 319 646 425 592 b 849 768 683 592 800 665 b 933 524 906 703 933 619 b 572 150 933 307 785 150 b 211 524 358 150 211 307 z m 571 904 b 710 863 625 904 683 885 b 558 758 686 794 622 758 b 446 832 494 758 446 788 b 571 904 446 876 497 904 z "},"p":{"ha":1139,"x_min":0,"x_max":0,"o":"m 232 790 b 556 892 317 851 431 892 b 926 518 769 892 926 733 b 557 151 926 301 763 151 b 501 156 538 151 519 153 l 501 451 b 265 743 501 615 425 743 b 28 468 125 743 28 639 b 326 19 28 250 143 93 l 326 -231 l 501 -231 l 501 -18 b 560 -22 519 -21 540 -22 b 1111 518 860 -22 1111 192 b 558 1064 1111 850 856 1064 b 168 949 374 1064 249 1008 z m 326 201 b 203 468 249 256 203 351 b 264 563 203 521 226 560 b 326 451 297 564 326 533 z "},"q":{"ha":1139,"x_min":0,"x_max":0,"o":"m 971 949 b 581 1064 890 1008 765 1064 b 28 518 283 1064 28 850 b 579 -22 28 192 279 -22 b 638 -18 599 -22 619 -21 l 638 -231 l 813 -231 l 813 19 b 1111 468 996 93 1111 250 b 874 743 1111 639 1014 743 b 638 451 714 743 638 615 l 638 156 b 582 151 619 153 601 151 b 213 518 376 151 213 301 b 583 892 213 733 369 892 b 907 790 708 892 822 851 z m 813 451 b 875 563 813 533 842 564 b 936 468 913 560 936 521 b 813 201 936 351 890 256 z "},"r":{"ha":890,"x_min":0,"x_max":0,"o":"m 847 0 b 863 175 858 64 863 121 b 692 594 863 382 792 515 b 700 683 697 619 700 654 b 367 1064 700 933 543 1064 b 28 690 185 1064 28 933 l 28 0 l 210 0 l 210 325 b 403 233 250 267 322 233 b 642 394 457 233 574 253 b 689 183 671 343 689 274 b 668 0 689 131 683 69 z m 429 683 b 210 576 331 683 253 643 l 210 700 b 368 894 210 833 283 894 b 525 672 444 894 532 826 b 429 683 493 679 460 683 z m 392 401 b 335 453 358 401 335 422 b 424 521 335 493 369 521 b 507 507 451 521 479 517 b 392 401 489 424 438 401 z "},"s":{"ha":1114,"x_min":0,"x_max":0,"o":"m 246 0 l 293 110 b 657 -25 394 26 510 -25 b 1085 347 886 -25 1079 99 b 849 707 1089 536 974 640 l 760 754 b 703 1042 633 822 608 939 l 499 1042 l 249 450 b 213 640 218 515 211 585 l 28 640 b 160 247 28 501 78 361 l 53 0 z m 661 147 b 365 282 536 147 440 206 l 553 718 b 682 599 564 669 621 635 l 769 549 b 897 349 854 504 899 438 b 661 147 896 222 799 147 z "},"t":{"ha":728,"x_min":0,"x_max":0,"o":"m 28 647 b 207 608 92 647 154 635 l 207 278 b 456 -22 207 106 290 -22 b 700 272 600 -22 700 86 b 489 647 700 440 607 563 l 699 647 l 699 832 l 390 832 l 390 1042 l 207 1042 l 207 832 l 28 832 z m 522 268 b 456 154 522 181 492 154 b 390 281 414 154 390 196 l 390 513 b 522 268 468 451 522 371 z "},"u":{"ha":1061,"x_min":0,"x_max":0,"o":"m 1033 746 b 751 1064 1033 936 922 1064 b 475 767 586 1064 475 938 b 653 240 475 594 565 393 b 429 147 589 182 513 147 b 208 375 296 147 208 236 l 208 1042 l 28 1042 l 29 378 b 429 -22 29 131 211 -22 b 742 94 550 -22 656 24 b 807 0 781 36 807 0 l 1008 0 b 858 221 953 76 901 150 b 1033 746 974 378 1033 586 z m 656 772 b 753 890 657 833 692 890 b 851 760 814 890 851 839 b 764 388 851 625 819 492 b 656 772 690 533 653 664 z "},"v":{"ha":1211,"x_min":0,"x_max":0,"o":"m 28 732 b 161 817 76 760 121 789 b 622 -22 161 319 326 -22 b 1051 643 892 -22 1049 247 b 1183 742 1097 674 1142 706 l 1168 963 b 1028 829 1126 913 1076 865 b 736 1064 975 1007 842 1064 b 453 807 514 1064 453 899 b 751 540 453 699 521 540 b 872 557 793 540 833 546 b 626 149 853 256 742 149 b 361 1042 393 149 300 638 l 186 1042 b 28 928 140 1000 88 961 z m 728 894 b 868 736 790 894 849 843 b 739 714 822 718 779 710 b 632 814 658 721 632 774 b 728 894 632 867 674 894 z "},"w":{"ha":1450,"x_min":0,"x_max":0,"o":"m 865 149 b 642 519 733 149 642 315 l 460 519 b 463 288 463 436 464 350 b 379 149 461 204 442 149 b 207 519 269 149 207 315 b 404 893 207 671 272 838 l 314 1042 b 28 519 144 961 28 747 b 379 -22 28 199 156 -22 b 596 121 496 -22 560 38 b 861 -22 660 32 750 -22 b 1290 643 1131 -22 1288 247 b 1422 742 1336 674 1382 706 l 1408 951 b 1267 829 1361 901 1315 864 b 975 1064 1214 1007 1081 1064 b 692 807 753 1064 692 899 b 990 540 692 699 760 540 b 1111 557 1032 540 1072 546 b 865 149 1092 256 981 149 z m 965 894 b 1107 736 1028 894 1088 843 b 978 714 1061 718 1018 710 b 871 814 897 721 871 774 b 965 894 871 863 908 894 z "},"x":{"ha":1108,"x_min":0,"x_max":0,"o":"m 833 899 b 908 836 876 899 908 875 b 832 774 908 799 868 776 l 843 603 b 1081 842 969 607 1081 713 b 824 1064 1081 978 971 1064 b 406 811 653 1064 497 958 b 28 1042 325 936 190 1021 l 28 869 b 322 526 204 840 322 703 b 31 172 322 354 213 208 l 31 0 b 407 235 183 15 322 106 b 869 -14 503 85 671 -14 b 972 0 906 -14 938 -10 l 989 172 b 868 157 951 161 907 157 b 501 515 671 157 501 300 b 833 899 501 731 649 899 z "},"y":{"ha":1074,"x_min":0,"x_max":0,"o":"m 564 338 b 514 336 547 336 531 336 b 203 689 329 338 204 474 b 296 1042 203 792 233 915 l 117 1042 b 28 689 58 931 28 806 b 367 190 28 458 140 256 b 250 -67 299 129 250 42 b 503 -308 250 -203 360 -308 b 747 -54 646 -308 747 -207 l 747 211 b 1046 771 918 286 1046 461 b 807 1064 1046 939 965 1064 b 564 740 644 1064 564 917 z m 872 778 b 747 404 872 600 832 475 l 747 751 b 811 893 747 833 765 893 b 872 778 856 893 872 840 z m 425 174 b 518 165 454 168 485 165 b 564 167 533 165 549 165 l 564 -58 b 499 -137 564 -107 538 -137 b 439 -76 461 -137 439 -112 b 519 76 439 -10 483 42 z "},"z":{"ha":914,"x_min":0,"x_max":0,"o":"m 886 1043 l 28 1043 l 28 876 l 703 876 b 458 317 703 876 579 539 b 283 339 392 335 342 340 b 28 111 140 339 28 247 b 247 -108 28 -18 121 -108 b 538 99 385 -108 468 -11 b 607 -31 581 67 607 29 b 469 -174 607 -108 553 -174 b 369 -129 429 -174 394 -156 l 256 -271 b 469 -343 313 -324 386 -343 b 783 -33 657 -343 783 -210 b 615 253 783 97 701 194 b 886 869 729 472 886 869 z m 256 57 b 197 111 221 57 197 78 b 288 175 197 156 238 175 b 379 168 315 175 344 172 b 256 57 351 124 310 57 z "},"æ":{"ha":1751,"x_min":0,"x_max":0,"o":"m 1724 146 b 1565 183 1671 150 1617 161 b 1722 674 1692 350 1722 572 b 1426 1060 1722 842 1649 1060 b 1128 674 1219 1060 1128 842 b 1294 171 1128 569 1158 338 b 1135 133 1246 146 1193 133 b 988 176 1056 133 1007 163 b 1107 511 1061 268 1107 383 b 894 793 1107 669 1022 779 l 982 872 b 567 1064 883 990 733 1064 b 28 517 268 1064 28 819 b 568 -22 28 208 269 -22 b 847 54 669 -22 765 6 b 1129 -22 918 8 1040 -22 b 1425 56 1250 -22 1347 8 b 1722 -22 1503 8 1600 -22 z m 624 513 b 719 178 624 389 654 271 b 568 147 674 158 622 147 b 211 518 354 147 211 307 b 568 893 211 729 354 893 b 821 792 672 893 758 854 b 624 513 689 767 624 632 z m 1544 669 b 1429 279 1544 490 1497 364 b 1307 668 1357 358 1307 482 b 1429 883 1307 747 1326 883 b 1544 669 1518 883 1544 750 z m 799 489 b 864 617 799 564 821 617 b 926 506 906 617 926 564 b 857 286 926 421 901 346 b 799 489 819 343 799 414 z "},"ð":{"ha":1213,"x_min":0,"x_max":0,"o":"m 28 421 b 628 -21 28 136 314 -21 b 1185 522 946 -21 1185 218 b 668 1064 1185 826 956 1064 b 290 688 461 1064 294 935 b 28 421 129 686 28 572 z m 472 685 b 668 894 472 818 547 894 b 1000 522 860 894 1000 751 b 633 151 1000 299 846 151 b 472 172 576 151 522 158 l 472 501 l 781 501 l 781 685 z m 211 422 b 290 506 211 463 235 507 l 290 261 b 211 422 240 306 211 363 z "},"ß":{"ha":997,"x_min":0,"x_max":0,"o":"m 508 -19 b 969 378 779 -19 969 140 b 850 660 969 499 921 593 b 446 1064 857 926 668 1064 b 28 638 228 1064 28 903 l 28 -183 l 211 -183 l 211 644 b 450 896 211 794 308 896 b 668 758 567 896 638 843 b 554 772 631 768 590 772 b 289 535 406 772 290 674 b 514 317 289 408 369 317 b 776 454 622 317 715 374 b 789 378 785 431 789 404 b 511 153 789 235 676 153 b 363 185 463 153 397 165 l 342 4 b 508 -19 389 -11 461 -19 z m 522 485 b 463 539 485 485 463 507 b 579 608 463 586 521 608 b 661 590 608 608 636 603 b 522 485 635 531 582 485 z "},"œ":{"ha":1756,"x_min":0,"x_max":0,"o":"m 542 1064 b 283 847 397 1064 289 981 l 206 928 b 29 514 94 829 29 676 b 564 -21 28 211 250 -21 b 1008 213 765 -21 918 74 b 1381 -22 1082 68 1213 -22 b 1728 169 1519 -22 1636 33 l 1597 289 b 1382 150 1553 193 1468 150 b 1140 332 1278 150 1190 221 b 1707 769 1378 357 1707 472 b 1379 1064 1707 929 1590 1064 b 1004 814 1210 1064 1078 964 b 542 1064 911 960 739 1064 z m 289 771 b 890 331 339 478 600 357 b 567 147 831 215 711 147 b 206 521 344 147 206 310 b 289 771 206 618 235 706 z m 542 903 b 924 492 715 903 922 739 b 454 821 689 511 454 635 b 542 903 454 868 482 903 z m 1528 763 b 1101 496 1528 592 1289 517 b 1381 899 1090 699 1229 899 b 1528 763 1476 899 1528 835 z "},"ø":{"ha":1144,"x_min":0,"x_max":0,"o":"m 579 1061 b 308 824 428 1061 311 961 l 208 931 b 29 522 97 832 29 685 b 207 117 28 360 97 215 l 124 0 l 314 0 l 338 31 b 571 -19 407 -7 488 -19 b 1117 522 878 -19 1117 218 b 579 1061 1117 825 868 1061 z m 651 767 b 563 717 633 735 600 717 b 471 807 510 717 471 753 b 575 903 471 863 511 903 b 933 522 792 903 933 743 b 571 149 933 308 785 149 b 435 175 521 149 475 160 l 844 767 z m 208 522 b 310 785 210 628 247 718 b 515 565 319 674 401 589 l 307 261 b 208 522 246 328 208 418 z "},"þ":{"ha":1100,"x_min":0,"x_max":0,"o":"m 315 204 b 203 367 244 240 203 308 b 260 444 203 411 224 444 b 315 356 293 444 315 415 z m 140 696 l 306 696 b 564 815 349 758 457 815 b 889 482 754 815 889 686 b 546 149 889 281 742 149 b 490 153 526 149 508 150 l 490 349 b 257 619 490 494 417 619 b 28 365 128 619 28 528 b 315 15 28 196 164 63 l 315 -231 l 490 -231 l 490 -17 b 549 -21 508 -19 529 -21 b 1072 485 832 -21 1072 183 b 579 986 1072 794 839 986 b 315 896 472 986 368 946 l 315 1042 l 140 1042 z "},"à":{"ha":1135,"x_min":0,"x_max":0,"o":"m 1107 511 b 894 793 1106 669 1022 779 l 982 872 b 568 1064 883 990 735 1064 b 28 521 269 1064 28 824 b 568 -22 28 215 269 -22 b 847 54 669 -22 765 6 b 1114 -22 918 10 1006 -18 l 1113 146 b 988 176 1065 149 1024 160 b 1107 511 1061 268 1104 383 z m 624 513 b 719 178 624 389 654 271 b 568 149 674 158 622 149 b 211 521 354 149 211 310 b 568 893 211 732 354 893 b 821 792 672 893 758 854 b 624 513 689 767 625 632 z m 799 489 b 864 617 799 564 822 617 b 926 506 904 617 926 564 b 857 286 926 421 901 346 b 799 489 819 343 799 414 z m 483 1097 l 708 1097 l 342 1346 l 342 1181 z "},"á":{"ha":1135,"x_min":0,"x_max":0,"o":"m 1107 511 b 894 793 1106 669 1022 779 l 982 872 b 568 1064 883 990 735 1064 b 28 521 269 1064 28 824 b 568 -22 28 215 269 -22 b 847 54 669 -22 765 6 b 1114 -22 918 10 1006 -18 l 1113 146 b 988 176 1065 149 1024 160 b 1107 511 1061 268 1104 383 z m 624 513 b 719 178 624 389 654 271 b 568 149 674 158 622 149 b 211 521 354 149 211 310 b 568 893 211 732 354 893 b 821 792 672 893 758 854 b 624 513 689 767 625 632 z m 799 489 b 864 617 799 564 822 617 b 926 506 904 617 926 564 b 857 286 926 421 901 346 b 799 489 819 343 799 414 z m 833 1181 l 833 1346 l 467 1097 l 692 1097 z "},"â":{"ha":1135,"x_min":0,"x_max":0,"o":"m 1107 511 b 894 793 1106 669 1022 779 l 982 872 b 568 1064 883 990 735 1064 b 28 521 269 1064 28 824 b 568 -22 28 215 269 -22 b 847 54 669 -22 765 6 b 1114 -22 918 10 1006 -18 l 1113 146 b 988 176 1065 149 1024 160 b 1107 511 1061 268 1104 383 z m 624 513 b 719 178 624 389 654 271 b 568 149 674 158 622 149 b 211 521 354 149 211 310 b 568 893 211 732 354 893 b 821 792 672 893 758 854 b 624 513 689 767 625 632 z m 799 489 b 864 617 799 564 822 617 b 926 506 904 617 926 564 b 857 286 926 421 901 346 b 799 489 819 343 799 414 z m 568 1201 l 772 1068 l 772 1221 l 643 1310 l 492 1310 l 363 1221 l 363 1068 z "},"ã":{"ha":1135,"x_min":0,"x_max":0,"o":"m 1107 511 b 894 793 1106 669 1022 779 l 982 872 b 568 1064 883 990 735 1064 b 28 521 269 1064 28 824 b 568 -22 28 215 269 -22 b 847 54 669 -22 765 6 b 1114 -22 918 10 1006 -18 l 1113 146 b 988 176 1065 149 1024 160 b 1107 511 1061 268 1104 383 z m 624 513 b 719 178 624 389 654 271 b 568 149 674 158 622 149 b 211 521 354 149 211 310 b 568 893 211 732 354 893 b 821 792 672 893 758 854 b 624 513 689 767 625 632 z m 799 489 b 864 617 799 564 822 617 b 926 506 904 617 926 564 b 857 286 926 421 901 346 b 799 489 819 343 799 414 z m 667 1090 b 772 1135 708 1090 743 1106 l 772 1278 b 669 1219 751 1250 726 1219 b 468 1282 615 1219 535 1282 b 363 1238 426 1282 392 1267 l 363 1094 b 465 1153 383 1122 408 1153 b 667 1090 518 1153 600 1090 z "},"ä":{"ha":1135,"x_min":0,"x_max":0,"o":"m 1107 511 b 894 793 1106 669 1022 779 l 982 872 b 568 1064 883 990 735 1064 b 28 521 269 1064 28 824 b 568 -22 28 215 269 -22 b 847 54 669 -22 765 6 b 1114 -22 918 10 1006 -18 l 1113 146 b 988 176 1065 149 1024 160 b 1107 511 1061 268 1104 383 z m 624 513 b 719 178 624 389 654 271 b 568 149 674 158 622 149 b 211 521 354 149 211 310 b 568 893 211 732 354 893 b 821 792 672 893 758 854 b 624 513 689 767 625 632 z m 522 1300 l 383 1300 l 340 1169 l 453 1089 l 567 1169 z m 749 1300 l 610 1300 l 567 1169 l 679 1089 l 793 1169 z m 799 489 b 864 617 799 564 822 617 b 926 506 904 617 926 564 b 857 286 926 421 901 346 b 799 489 819 343 799 414 z "},"ā":{"ha":1135,"x_min":0,"x_max":0,"o":"m 1107 511 b 894 793 1106 669 1022 779 l 982 872 b 568 1064 883 990 735 1064 b 28 521 269 1064 28 824 b 568 -22 28 215 269 -22 b 847 54 669 -22 765 6 b 1114 -22 918 10 1006 -18 l 1113 146 b 988 176 1065 149 1024 160 b 1107 511 1061 268 1104 383 z m 624 513 b 719 178 624 389 654 271 b 568 149 674 158 622 149 b 211 521 354 149 211 310 b 568 893 211 732 354 893 b 821 792 672 893 758 854 b 624 513 689 767 625 632 z m 799 489 b 864 617 799 564 822 617 b 926 506 904 617 926 564 b 857 286 926 421 901 346 b 799 489 819 343 799 414 z m 363 1126 l 772 1126 l 772 1258 l 363 1258 z "},"ă":{"ha":1135,"x_min":0,"x_max":0,"o":"m 1107 511 b 894 793 1106 669 1022 779 l 982 872 b 568 1064 883 990 735 1064 b 28 521 269 1064 28 824 b 568 -22 28 215 269 -22 b 847 54 669 -22 765 6 b 1114 -22 918 10 1006 -18 l 1113 146 b 988 176 1065 149 1024 160 b 1107 511 1061 268 1104 383 z m 624 513 b 719 178 624 389 654 271 b 568 149 674 158 622 149 b 211 521 354 149 211 310 b 568 893 211 732 354 893 b 821 792 672 893 758 854 b 624 513 689 767 625 632 z m 567 1214 b 492 1292 524 1214 496 1246 l 356 1292 b 567 1089 360 1165 447 1089 b 779 1292 686 1089 775 1165 l 643 1292 b 567 1214 639 1246 610 1214 z m 799 489 b 864 617 799 564 822 617 b 926 506 904 617 926 564 b 857 286 926 421 901 346 b 799 489 819 343 799 414 z "},"å":{"ha":1135,"x_min":0,"x_max":0,"o":"m 1107 511 b 894 793 1106 669 1022 779 l 982 872 b 568 1064 883 990 735 1064 b 28 521 269 1064 28 824 b 568 -22 28 215 269 -22 b 847 54 669 -22 765 6 b 1114 -22 918 10 1006 -18 l 1113 146 b 988 176 1065 149 1024 160 b 1107 511 1061 268 1104 383 z m 624 513 b 719 178 624 389 654 271 b 568 149 674 158 622 149 b 211 521 354 149 211 310 b 568 893 211 732 354 893 b 821 792 672 893 758 854 b 624 513 689 767 625 632 z m 799 489 b 864 617 799 564 822 617 b 926 506 904 617 926 564 b 857 286 926 421 901 346 b 799 489 819 343 799 414 z m 413 1242 b 567 1088 413 1157 482 1088 b 721 1242 651 1088 721 1157 b 567 1396 721 1326 651 1396 b 413 1242 482 1396 413 1326 z m 513 1242 b 567 1296 513 1272 536 1296 b 621 1242 597 1296 621 1272 b 567 1188 621 1211 597 1188 b 513 1242 536 1188 513 1211 z "},"ǻ":{"ha":1135,"x_min":0,"x_max":0,"o":"m 1107 511 b 894 793 1106 669 1022 779 l 982 872 b 568 1064 883 990 735 1064 b 28 521 269 1064 28 824 b 568 -22 28 215 269 -22 b 847 54 669 -22 765 6 b 1114 -22 918 10 1006 -18 l 1113 146 b 988 176 1065 149 1024 160 b 1107 511 1061 268 1104 383 z m 624 513 b 719 178 624 389 654 271 b 568 149 674 158 622 149 b 211 521 354 149 211 310 b 568 893 211 732 354 893 b 821 792 672 893 758 854 b 624 513 689 767 625 632 z m 799 489 b 864 617 799 564 822 617 b 926 506 904 617 926 564 b 857 286 926 421 901 346 b 799 489 819 343 799 414 z m 413 1242 b 567 1396 413 1326 482 1396 b 721 1242 651 1396 721 1326 b 567 1088 721 1157 651 1088 b 413 1242 482 1088 413 1157 z m 513 1242 b 567 1188 513 1211 536 1188 b 621 1242 597 1188 621 1211 b 567 1296 621 1272 597 1296 b 513 1242 536 1296 513 1272 z m 819 1510 l 819 1675 l 453 1426 l 678 1426 z "},"ą":{"ha":1135,"x_min":0,"x_max":0,"o":"m 1114 -151 b 1065 -175 1097 -165 1082 -175 b 1038 -146 1047 -175 1038 -164 l 1038 -15 b 1114 -22 1061 -18 1088 -21 l 1113 146 b 988 176 1065 149 1024 160 b 1107 511 1061 268 1104 383 b 894 793 1106 669 1022 779 l 982 872 b 568 1064 883 990 735 1064 b 28 521 269 1064 28 824 b 568 -22 28 215 269 -22 b 847 54 669 -22 765 6 b 893 29 861 44 876 36 l 893 -165 b 1049 -321 893 -267 949 -321 b 1183 -271 1100 -321 1144 -303 z m 624 513 b 719 178 624 389 654 271 b 568 149 674 158 622 149 b 211 521 354 149 211 310 b 568 893 211 732 354 893 b 821 792 672 893 758 854 b 624 513 689 767 625 632 z m 799 489 b 864 617 799 564 822 617 b 926 506 904 617 926 564 b 857 286 926 421 901 346 b 799 489 819 343 799 414 z "},"ǽ":{"ha":1751,"x_min":0,"x_max":0,"o":"m 1722 -22 b 1425 56 1600 -22 1503 8 b 1129 -22 1347 8 1250 -22 b 847 54 1040 -22 918 8 b 568 -22 765 6 669 -22 b 28 517 269 -22 28 208 b 567 1064 28 819 268 1064 b 982 872 733 1064 883 990 l 894 793 b 1107 511 1022 779 1107 669 b 988 176 1107 383 1061 268 b 1135 133 1007 163 1056 133 b 1294 171 1193 133 1246 146 b 1128 674 1158 338 1128 569 b 1426 1060 1128 842 1219 1060 b 1722 674 1649 1060 1722 842 b 1565 183 1722 572 1692 350 b 1724 146 1617 161 1671 150 z m 624 513 b 821 792 624 632 689 767 b 568 893 758 854 672 893 b 211 518 354 893 211 729 b 568 147 211 307 354 147 b 719 178 622 147 674 158 b 624 513 654 271 624 389 z m 1544 669 b 1429 883 1544 750 1518 883 b 1307 668 1326 883 1307 747 b 1429 279 1307 482 1357 358 b 1544 669 1497 364 1544 490 z m 799 489 b 857 286 799 414 819 343 b 926 506 901 346 926 421 b 864 617 926 564 906 617 b 799 489 821 617 799 564 z m 1294 1181 l 1294 1346 l 928 1097 l 1153 1097 z "},"ć":{"ha":1000,"x_min":0,"x_max":0,"o":"m 572 907 b 435 868 525 907 467 890 b 583 758 453 806 515 758 b 694 831 654 758 694 786 b 572 907 694 876 646 907 z m 972 149 b 571 -22 874 43 726 -22 b 28 519 260 -22 28 197 b 269 975 28 713 124 879 b 297 1081 274 1004 286 1053 l 464 1081 b 450 1046 461 1075 453 1056 b 583 1064 483 1060 558 1064 b 872 831 738 1064 872 974 b 582 594 872 679 738 594 b 293 767 457 594 340 661 b 208 519 239 704 208 615 b 576 149 208 301 351 149 b 867 275 693 149 807 204 z m 861 1181 l 861 1346 l 494 1097 l 719 1097 z "},"ĉ":{"ha":1000,"x_min":0,"x_max":0,"o":"m 572 907 b 694 831 646 907 694 876 b 583 758 694 786 654 758 b 435 868 515 758 453 806 b 572 907 467 890 525 907 z m 867 275 b 576 149 807 204 693 149 b 208 519 351 149 208 301 b 293 767 208 615 239 704 b 582 594 340 661 457 594 b 872 831 738 594 872 679 b 583 1064 872 974 738 1064 b 450 1046 558 1064 483 1060 b 464 1081 453 1056 461 1075 l 297 1081 b 269 975 286 1053 274 1004 b 28 519 124 879 28 713 b 571 -22 28 197 260 -22 b 972 149 726 -22 874 43 z m 542 1229 l 746 1096 l 746 1249 l 617 1338 l 465 1338 l 336 1249 l 336 1096 z "},"č":{"ha":1000,"x_min":0,"x_max":0,"o":"m 572 907 b 694 831 646 907 694 876 b 583 758 694 786 654 758 b 435 868 515 758 453 806 b 572 907 467 890 525 907 z m 867 275 b 576 149 807 204 693 149 b 208 519 351 149 208 301 b 293 767 208 615 239 704 b 582 594 340 661 457 594 b 872 831 738 594 872 679 b 583 1064 872 974 738 1064 b 450 1046 558 1064 483 1060 b 464 1081 453 1056 461 1075 l 297 1081 b 269 975 286 1053 274 1004 b 28 519 124 879 28 713 b 571 -22 28 197 260 -22 b 972 149 726 -22 874 43 z m 378 1339 l 378 1186 l 507 1097 l 658 1097 l 788 1186 l 788 1339 l 583 1206 z "},"ċ":{"ha":1000,"x_min":0,"x_max":0,"o":"m 972 149 b 571 -22 874 43 726 -22 b 28 519 260 -22 28 197 b 269 975 28 713 124 879 b 297 1081 274 1004 286 1053 l 464 1081 b 450 1046 461 1075 453 1056 b 583 1064 483 1060 558 1064 b 872 831 738 1064 872 974 b 582 594 872 679 738 594 b 293 767 457 594 340 661 b 208 519 239 704 208 615 b 576 149 208 301 351 149 b 867 275 693 149 807 204 z m 638 1300 l 499 1300 l 456 1169 l 568 1089 l 682 1169 z m 572 907 b 435 868 525 907 467 890 b 583 758 453 806 515 758 b 694 831 654 758 694 786 b 572 907 694 876 646 907 z "},"ç":{"ha":1000,"x_min":0,"x_max":0,"o":"m 419 -299 b 550 -328 449 -315 499 -328 b 719 -174 636 -328 719 -276 b 621 -47 719 -101 668 -58 l 621 -19 b 972 149 757 -7 883 54 l 867 275 b 576 149 807 204 693 149 b 208 519 351 149 208 301 b 293 767 208 615 239 704 b 582 594 340 661 457 594 b 872 831 738 594 872 679 b 583 1064 872 974 738 1064 b 450 1046 558 1064 483 1060 b 464 1081 453 1056 461 1075 l 297 1081 b 269 975 286 1053 274 1004 b 28 519 124 879 28 713 b 489 -17 28 226 219 17 l 489 -128 b 579 -165 551 -121 579 -137 b 535 -201 579 -189 560 -201 b 458 -171 493 -201 458 -171 z m 572 907 b 694 831 646 907 694 876 b 583 758 694 786 654 758 b 435 868 515 758 453 806 b 572 907 467 890 525 907 z "},"ď":{"ha":1207,"x_min":0,"x_max":0,"o":"m 28 421 b 629 -22 28 150 301 -22 b 1179 522 947 -22 1179 218 b 664 1064 1179 826 951 1064 b 286 690 457 1064 290 938 b 28 421 125 690 28 572 z m 624 550 b 468 642 567 590 514 619 l 468 676 b 664 894 468 810 543 894 b 996 522 856 894 996 751 b 629 150 996 299 842 150 b 468 172 572 150 518 158 l 468 443 b 604 350 514 417 560 385 z m 206 422 b 286 506 206 463 231 507 l 286 263 b 206 422 236 307 206 363 z m 458 1339 l 458 1186 l 588 1097 l 739 1097 l 868 1186 l 868 1339 l 664 1206 z "},"đ":{"ha":1213,"x_min":0,"x_max":0,"o":"m 28 421 b 628 -21 28 136 314 -21 b 1185 522 946 -21 1185 218 b 668 1064 1185 826 956 1064 b 290 688 461 1064 294 935 b 28 421 129 686 28 572 z m 472 685 b 668 894 472 818 547 894 b 1000 522 860 894 1000 751 b 633 151 1000 299 846 151 b 472 172 576 151 522 158 l 472 501 l 781 501 l 781 685 z m 211 422 b 290 506 211 463 235 507 l 290 261 b 211 422 240 306 211 363 z "},"è":{"ha":807,"x_min":0,"x_max":0,"o":"m 207 678 b 421 894 207 803 289 894 b 631 771 519 894 592 842 l 779 869 b 422 1064 699 997 557 1064 b 28 681 196 1064 28 901 b 83 485 28 608 47 542 b 53 321 64 435 53 378 b 415 -22 53 103 215 -22 b 678 81 514 -22 613 15 l 557 206 b 418 150 524 175 468 150 b 235 324 314 150 235 214 l 236 342 b 435 292 296 310 363 292 b 669 511 569 292 669 376 b 431 731 669 646 565 731 b 208 654 343 731 269 701 z m 429 568 b 500 511 467 568 500 549 b 429 451 500 472 467 451 b 292 500 385 451 335 468 b 429 568 329 544 379 568 z m 333 1097 l 558 1097 l 192 1346 l 192 1181 z "},"é":{"ha":807,"x_min":0,"x_max":0,"o":"m 207 678 b 421 894 207 803 289 894 b 631 771 519 894 592 842 l 779 869 b 422 1064 699 997 557 1064 b 28 681 196 1064 28 901 b 83 485 28 608 47 542 b 53 321 64 435 53 378 b 415 -22 53 103 215 -22 b 678 81 514 -22 613 15 l 557 206 b 418 150 524 175 468 150 b 235 324 314 150 235 214 l 236 342 b 435 292 296 310 363 292 b 669 511 569 292 669 376 b 431 731 669 646 565 731 b 208 654 343 731 269 701 z m 429 568 b 500 511 467 568 500 549 b 429 451 500 472 467 451 b 292 500 385 451 335 468 b 429 568 329 544 379 568 z m 683 1181 l 683 1346 l 317 1097 l 542 1097 z "},"ê":{"ha":807,"x_min":0,"x_max":0,"o":"m 207 678 b 421 894 207 803 289 894 b 631 771 519 894 592 842 l 779 869 b 422 1064 699 997 557 1064 b 28 681 196 1064 28 901 b 83 485 28 608 47 542 b 53 321 64 435 53 378 b 415 -22 53 103 215 -22 b 678 81 514 -22 613 15 l 557 206 b 418 150 524 175 468 150 b 235 324 314 150 235 214 l 236 342 b 435 292 296 310 363 292 b 669 511 569 292 669 376 b 431 731 669 646 565 731 b 208 654 343 731 269 701 z m 429 568 b 500 511 467 568 500 549 b 429 451 500 472 467 451 b 292 500 385 451 335 468 b 429 568 329 544 379 568 z m 415 1201 l 619 1068 l 619 1221 l 490 1310 l 339 1310 l 210 1221 l 210 1068 z "},"ě":{"ha":807,"x_min":0,"x_max":0,"o":"m 207 678 b 421 894 207 803 289 894 b 631 771 519 894 592 842 l 779 869 b 422 1064 699 997 557 1064 b 28 681 196 1064 28 901 b 83 485 28 608 47 542 b 53 321 64 435 53 378 b 415 -22 53 103 215 -22 b 678 81 514 -22 613 15 l 557 206 b 418 150 524 175 468 150 b 235 324 314 150 235 214 l 236 342 b 435 292 296 310 363 292 b 669 511 569 292 669 376 b 431 731 669 646 565 731 b 208 654 343 731 269 701 z m 429 568 b 500 511 467 568 500 549 b 429 451 500 472 467 451 b 292 500 385 451 335 468 b 429 568 329 544 379 568 z m 226 1339 l 226 1186 l 356 1097 l 507 1097 l 636 1186 l 636 1339 l 432 1206 z "},"ë":{"ha":807,"x_min":0,"x_max":0,"o":"m 207 678 b 421 894 207 803 289 894 b 631 771 519 894 592 842 l 779 869 b 422 1064 699 997 557 1064 b 28 681 196 1064 28 901 b 83 485 28 608 47 542 b 53 321 64 435 53 378 b 415 -22 53 103 215 -22 b 678 81 514 -22 613 15 l 557 206 b 418 150 524 175 468 150 b 235 324 314 150 235 214 l 236 342 b 435 292 296 310 363 292 b 669 511 569 292 669 376 b 431 731 669 646 565 731 b 208 654 343 731 269 701 z m 611 1300 l 472 1300 l 429 1169 l 542 1089 l 656 1169 z m 385 1300 l 246 1300 l 203 1169 l 315 1089 l 429 1169 z m 429 568 b 500 511 467 568 500 549 b 429 451 500 472 467 451 b 292 500 385 451 335 468 b 429 568 329 544 379 568 z "},"ē":{"ha":807,"x_min":0,"x_max":0,"o":"m 207 678 b 421 894 207 803 289 894 b 631 771 519 894 592 842 l 779 869 b 422 1064 699 997 557 1064 b 28 681 196 1064 28 901 b 83 485 28 608 47 542 b 53 321 64 435 53 378 b 415 -22 53 103 215 -22 b 678 81 514 -22 613 15 l 557 206 b 418 150 524 175 468 150 b 235 324 314 150 235 214 l 236 342 b 435 292 296 310 363 292 b 669 511 569 292 669 376 b 431 731 669 646 565 731 b 208 654 343 731 269 701 z m 429 568 b 500 511 467 568 500 549 b 429 451 500 472 467 451 b 292 500 385 451 335 468 b 429 568 329 544 379 568 z m 213 1126 l 622 1126 l 622 1258 l 213 1258 z "},"ĕ":{"ha":807,"x_min":0,"x_max":0,"o":"m 207 678 b 421 894 207 803 289 894 b 631 771 519 894 592 842 l 779 869 b 422 1064 699 997 557 1064 b 28 681 196 1064 28 901 b 83 485 28 608 47 542 b 53 321 64 435 53 378 b 415 -22 53 103 215 -22 b 678 81 514 -22 613 15 l 557 206 b 418 150 524 175 468 150 b 235 324 314 150 235 214 l 236 342 b 435 292 296 310 363 292 b 669 511 569 292 669 376 b 431 731 669 646 565 731 b 208 654 343 731 269 701 z m 431 1214 b 356 1292 388 1214 360 1246 l 219 1292 b 431 1089 224 1165 311 1089 b 643 1292 550 1089 639 1165 l 507 1292 b 431 1214 503 1246 474 1214 z m 429 568 b 500 511 467 568 500 549 b 429 451 500 472 467 451 b 292 500 385 451 335 468 b 429 568 329 544 379 568 z "},"ė":{"ha":807,"x_min":0,"x_max":0,"o":"m 207 678 b 421 894 207 803 289 894 b 631 771 519 894 592 842 l 779 869 b 422 1064 699 997 557 1064 b 28 681 196 1064 28 901 b 83 485 28 608 47 542 b 53 321 64 435 53 378 b 415 -22 53 103 215 -22 b 678 81 514 -22 613 15 l 557 206 b 418 150 524 175 468 150 b 235 324 314 150 235 214 l 236 342 b 435 292 296 310 363 292 b 669 511 569 292 669 376 b 431 731 669 646 565 731 b 208 654 343 731 269 701 z m 486 1300 l 347 1300 l 304 1169 l 417 1089 l 531 1169 z m 429 568 b 500 511 467 568 500 549 b 429 451 500 472 467 451 b 292 500 385 451 335 468 b 429 568 329 544 379 568 z "},"ę":{"ha":807,"x_min":0,"x_max":0,"o":"m 668 -151 b 619 -175 651 -165 636 -175 b 592 -146 601 -175 592 -164 l 592 18 b 678 81 624 35 653 56 l 557 206 b 418 150 524 175 468 150 b 235 324 314 150 235 214 l 236 342 b 435 292 296 310 363 292 b 669 511 569 292 669 376 b 431 731 669 646 565 731 b 208 654 343 731 269 701 l 207 678 b 421 894 207 803 289 894 b 631 771 519 894 592 842 l 779 869 b 422 1064 699 997 557 1064 b 28 681 196 1064 28 901 b 83 485 28 608 47 542 b 53 321 64 435 53 378 b 415 -22 53 103 215 -22 b 447 -21 425 -22 436 -21 l 447 -165 b 603 -321 447 -267 503 -321 b 738 -271 654 -321 699 -303 z m 429 568 b 500 511 467 568 500 549 b 429 451 500 472 467 451 b 292 500 385 451 335 468 b 429 568 329 544 379 568 z "},"ĝ":{"ha":1210,"x_min":0,"x_max":0,"o":"m 931 931 b 571 1064 835 1014 706 1064 b 28 519 263 1064 28 825 b 568 -21 28 211 239 -21 b 643 -10 592 -21 625 -18 b 624 -81 632 -32 624 -57 b 864 -308 624 -217 711 -308 b 1114 -54 1013 -308 1114 -207 l 1114 225 b 1182 250 1140 236 1164 244 l 1182 443 b 1114 421 1164 439 1140 432 l 1114 1040 l 931 1040 z m 931 508 b 571 149 921 292 746 149 b 210 519 356 149 210 299 b 571 893 210 726 349 893 b 849 767 685 893 783 840 b 931 846 851 767 894 811 z m 806 -76 b 931 118 806 -3 860 64 l 931 -57 b 865 -137 931 -101 904 -137 b 806 -76 829 -137 806 -110 z m 592 1201 l 796 1068 l 796 1221 l 667 1310 l 515 1310 l 386 1221 l 386 1068 z "},"ğ":{"ha":1210,"x_min":0,"x_max":0,"o":"m 931 931 b 571 1064 835 1014 706 1064 b 28 519 263 1064 28 825 b 568 -21 28 211 239 -21 b 643 -10 592 -21 625 -18 b 624 -81 632 -32 624 -57 b 864 -308 624 -217 711 -308 b 1114 -54 1013 -308 1114 -207 l 1114 225 b 1182 250 1140 236 1164 244 l 1182 443 b 1114 421 1164 439 1140 432 l 1114 1040 l 931 1040 z m 931 508 b 571 149 921 292 746 149 b 210 519 356 149 210 299 b 571 893 210 726 349 893 b 849 767 685 893 783 840 b 931 846 851 767 894 811 z m 576 1214 b 501 1292 533 1214 506 1246 l 365 1292 b 576 1089 369 1165 457 1089 b 789 1292 696 1089 785 1165 l 653 1292 b 576 1214 649 1246 619 1214 z m 806 -76 b 931 118 806 -3 860 64 l 931 -57 b 865 -137 931 -101 904 -137 b 806 -76 829 -137 806 -110 z "},"ġ":{"ha":1210,"x_min":0,"x_max":0,"o":"m 931 1040 l 1114 1040 l 1114 421 b 1182 443 1140 432 1164 439 l 1182 250 b 1114 225 1164 244 1140 236 l 1114 -54 b 864 -308 1114 -207 1013 -308 b 624 -81 711 -308 624 -217 b 643 -10 624 -57 632 -32 b 568 -21 625 -18 592 -21 b 28 519 239 -21 28 211 b 571 1064 28 825 263 1064 b 931 931 706 1064 835 1014 z m 931 846 b 849 767 894 811 851 767 b 571 893 783 840 685 893 b 210 519 349 893 210 726 b 571 149 210 299 356 149 b 931 508 746 149 921 292 z m 660 1300 l 521 1300 l 478 1169 l 590 1089 l 704 1169 z m 806 -76 b 865 -137 806 -110 829 -137 b 931 -57 904 -137 931 -101 l 931 118 b 806 -76 860 64 806 -3 z "},"ģ":{"ha":1210,"x_min":0,"x_max":0,"o":"m 931 931 b 571 1064 835 1014 706 1064 b 28 519 263 1064 28 825 b 568 -21 28 211 239 -21 b 643 -10 592 -21 625 -18 b 624 -81 632 -32 624 -57 b 864 -308 624 -217 711 -308 b 1114 -54 1013 -308 1114 -207 l 1114 225 b 1182 250 1140 236 1164 244 l 1182 443 b 1114 421 1164 439 1140 432 l 1114 1040 l 931 1040 z m 931 508 b 571 149 921 292 746 149 b 210 519 356 149 210 299 b 571 893 210 726 349 893 b 849 767 685 893 783 840 b 931 846 851 767 894 811 z m 432 -267 b 368 -319 429 -314 396 -319 l 368 -386 b 517 -267 454 -386 494 -351 l 553 -136 l 439 -53 l 324 -136 l 368 -267 z m 806 -76 b 931 118 806 -3 860 64 l 931 -57 b 865 -137 931 -101 904 -137 b 806 -76 829 -137 806 -110 z "},"ĥ":{"ha":1051,"x_min":0,"x_max":0,"o":"m 469 904 l 449 904 l 449 1042 l 265 1042 l 265 863 b 28 493 118 799 28 663 b 264 0 28 281 129 138 l 449 0 l 449 732 l 467 733 b 840 235 681 733 840 532 l 840 0 l 1024 0 l 1024 1042 l 840 1042 l 840 736 b 469 904 744 840 617 904 z m 208 499 b 267 661 208 564 229 621 l 267 281 b 208 499 226 358 208 428 z m 644 1201 l 849 1068 l 849 1221 l 719 1310 l 568 1310 l 439 1221 l 439 1068 z "},"ħ":{"ha":1114,"x_min":0,"x_max":0,"o":"m 190 811 l 261 811 l 261 774 b 28 404 114 710 28 574 b 242 0 28 238 104 119 l 444 0 l 444 632 b 836 140 676 650 836 438 l 836 0 l 1019 0 l 1019 811 l 1086 811 l 1086 975 l 1019 975 l 1019 1042 l 836 1042 l 836 975 l 444 975 l 444 1042 l 261 1042 l 261 975 l 190 975 z m 444 811 l 836 811 l 836 640 b 444 808 740 744 613 806 z m 203 407 b 263 571 203 467 222 531 l 263 239 b 203 407 217 285 203 346 z "},"ì":{"ha":282,"x_min":0,"x_max":0,"o":"m 233 832 l 50 832 l 50 0 l 233 0 z m 7 903 l 232 903 l -135 1151 l -135 986 z "},"í":{"ha":282,"x_min":0,"x_max":0,"o":"m 233 832 l 50 832 l 50 0 l 233 0 z m 408 986 l 408 1151 l 42 903 l 267 903 z "},"î":{"ha":282,"x_min":0,"x_max":0,"o":"m 233 832 l 50 832 l 50 0 l 233 0 z m 142 1007 l 346 874 l 346 1026 l 217 1115 l 65 1115 l -64 1026 l -64 874 z "},"ĩ":{"ha":282,"x_min":0,"x_max":0,"o":"m 233 832 l 50 832 l 50 0 l 233 0 z m 240 896 b 346 940 282 896 317 911 l 346 1083 b 243 1025 325 1056 300 1025 b 42 1088 189 1025 108 1088 b -64 1043 0 1088 -35 1072 l -64 900 b 39 958 -43 928 -18 958 b 240 896 92 958 174 896 z "},"ï":{"ha":282,"x_min":0,"x_max":0,"o":"m 233 832 l 50 832 l 50 0 l 233 0 z m 324 1106 l 185 1106 l 142 975 l 254 894 l 368 975 z m 97 1106 l -42 1106 l -85 975 l 28 894 l 142 975 z "},"ī":{"ha":282,"x_min":0,"x_max":0,"o":"m 233 832 l 50 832 l 50 0 l 233 0 z m -64 932 l 346 932 l 346 1064 l -64 1064 z "},"ĭ":{"ha":282,"x_min":0,"x_max":0,"o":"m 233 832 l 50 832 l 50 0 l 233 0 z m 140 1019 b 65 1097 97 1019 69 1051 l -71 1097 b 140 894 -67 971 21 894 b 353 1097 260 894 349 971 l 217 1097 b 140 1019 213 1051 183 1019 z "},"į":{"ha":282,"x_min":0,"x_max":0,"o":"m 289 -151 b 240 -175 272 -165 257 -175 b 213 -146 222 -175 213 -164 l 213 0 l 233 0 l 233 832 l 50 832 l 50 0 l 68 0 l 68 -165 b 224 -321 68 -267 124 -321 b 358 -271 275 -321 319 -303 z m 210 1064 l 71 1064 l 28 933 l 140 853 l 254 933 z "},"ĵ":{"ha":754,"x_min":0,"x_max":0,"o":"m 28 556 l 28 364 l 478 636 l 478 343 b 171 -12 326 268 171 151 b 415 -246 171 -153 274 -246 b 661 1 554 -246 661 -143 l 661 225 l 726 244 l 726 435 b 661 417 708 431 686 425 l 661 832 l 478 832 z m 353 -14 b 478 144 353 49 407 101 l 478 -4 b 414 -75 478 -47 451 -75 b 353 -14 375 -75 353 -50 z m 457 1021 l 661 888 l 661 1040 l 532 1129 l 381 1129 l 251 1040 l 251 888 z "},"ķ":{"ha":878,"x_min":0,"x_max":0,"o":"m 814 0 b 849 268 839 100 849 189 b 708 667 849 453 790 583 l 850 1042 l 657 1042 l 557 767 b 433 789 515 782 472 789 b 211 682 335 789 256 746 l 211 1042 l 28 1042 l 28 0 l 211 0 l 211 431 b 400 332 250 369 318 332 b 631 482 501 332 581 385 b 675 272 657 431 675 361 b 628 0 675 197 664 106 z m 418 -267 b 354 -319 415 -314 382 -319 l 354 -386 b 503 -267 440 -386 481 -351 l 539 -136 l 425 -53 l 310 -136 l 354 -267 z m 401 500 b 343 554 365 500 343 522 b 424 618 343 592 375 618 b 500 603 449 618 478 611 b 401 500 481 538 443 500 z "},"ĺ":{"ha":440,"x_min":0,"x_max":0,"o":"m 413 208 l 413 401 b 211 325 338 401 261 374 l 211 1042 l 28 1042 l 28 0 l 203 0 b 413 208 199 115 286 213 z m 404 1181 l 404 1346 l 38 1097 l 263 1097 z "},"ľ":{"ha":538,"x_min":0,"x_max":0,"o":"m 413 208 l 413 401 b 211 325 338 401 261 374 l 211 1042 l 28 1042 l 28 0 l 203 0 b 413 208 199 115 286 213 z m 397 826 b 324 753 393 767 360 753 l 324 679 b 490 844 426 683 454 718 l 529 978 l 403 1069 l 275 978 l 329 826 z "},"ļ":{"ha":440,"x_min":0,"x_max":0,"o":"m 413 208 l 413 401 b 211 325 338 401 261 374 l 211 1042 l 28 1042 l 28 0 l 203 0 b 413 208 199 115 286 213 z m 117 -267 b 53 -319 114 -314 81 -319 l 53 -386 b 201 -267 139 -386 179 -351 l 238 -136 l 124 -53 l 8 -136 l 53 -267 z "},"ŀ":{"ha":440,"x_min":0,"x_max":0,"o":"m 413 208 l 413 401 b 211 325 338 401 261 374 l 211 1042 l 28 1042 l 28 0 l 203 0 b 413 208 199 115 286 213 z m 501 500 l 326 500 l 274 663 l 414 764 l 556 663 z "},"ł":{"ha":574,"x_min":0,"x_max":0,"o":"m 28 651 l 161 588 l 161 0 l 163 1 l 163 0 l 336 0 b 546 208 332 115 419 213 l 546 401 b 344 325 471 401 394 374 l 344 499 l 546 403 l 546 588 l 344 685 l 344 1042 l 161 1042 l 161 774 l 28 839 z "},"ń":{"ha":1061,"x_min":0,"x_max":0,"o":"m 28 296 b 310 -22 28 106 139 -22 b 586 275 475 -22 586 104 b 408 801 586 447 496 649 b 632 894 472 860 549 894 b 853 667 765 894 853 806 l 853 0 l 1033 0 l 1032 664 b 632 1064 1032 911 850 1064 b 319 947 511 1064 406 1018 b 254 1042 281 1006 254 1042 l 53 1042 b 203 821 108 965 160 892 b 28 296 88 664 28 456 z m 406 269 b 308 151 404 208 369 151 b 210 282 247 151 210 203 b 297 654 210 417 242 550 b 406 269 371 508 408 378 z m 811 1181 l 811 1346 l 444 1097 l 669 1097 z "},"ň":{"ha":1061,"x_min":0,"x_max":0,"o":"m 28 296 b 310 -22 28 106 139 -22 b 586 275 475 -22 586 104 b 408 801 586 447 496 649 b 632 894 472 860 549 894 b 853 667 765 894 853 806 l 853 0 l 1033 0 l 1032 664 b 632 1064 1032 911 850 1064 b 319 947 511 1064 406 1018 b 254 1042 281 1006 254 1042 l 53 1042 b 203 821 108 965 160 892 b 28 296 88 664 28 456 z m 406 269 b 308 151 404 208 369 151 b 210 282 247 151 210 203 b 297 654 210 417 242 550 b 406 269 371 508 408 378 z m 394 1339 l 394 1186 l 524 1097 l 675 1097 l 804 1186 l 804 1339 l 600 1206 z "},"ñ":{"ha":1061,"x_min":0,"x_max":0,"o":"m 28 296 b 310 -22 28 106 139 -22 b 586 275 475 -22 586 104 b 408 801 586 447 496 649 b 632 894 472 860 549 894 b 853 667 765 894 853 806 l 853 0 l 1033 0 l 1032 664 b 632 1064 1032 911 850 1064 b 319 947 511 1064 406 1018 b 254 1042 281 1006 254 1042 l 53 1042 b 203 821 108 965 160 892 b 28 296 88 664 28 456 z m 406 269 b 308 151 404 208 369 151 b 210 282 247 151 210 203 b 297 654 210 417 242 550 b 406 269 371 508 408 378 z m 685 1090 b 790 1135 726 1090 761 1106 l 790 1278 b 688 1219 769 1250 744 1219 b 486 1282 633 1219 553 1282 b 381 1238 444 1282 410 1267 l 381 1094 b 483 1153 401 1122 426 1153 b 685 1090 536 1153 618 1090 z "},"ņ":{"ha":1061,"x_min":0,"x_max":0,"o":"m 28 296 b 310 -22 28 106 139 -22 b 586 275 475 -22 586 104 b 408 801 586 447 496 649 b 632 894 472 860 549 894 b 853 667 765 894 853 806 l 853 0 l 1033 0 l 1032 664 b 632 1064 1032 911 850 1064 b 319 947 511 1064 406 1018 b 254 1042 281 1006 254 1042 l 53 1042 b 203 821 108 965 160 892 b 28 296 88 664 28 456 z m 406 269 b 308 151 404 208 369 151 b 210 282 247 151 210 203 b 297 654 210 417 242 550 b 406 269 371 508 408 378 z m 593 -267 b 529 -319 590 -314 557 -319 l 529 -386 b 678 -267 615 -386 656 -351 l 714 -136 l 600 -53 l 485 -136 l 529 -267 z "},"ò":{"ha":1144,"x_min":0,"x_max":0,"o":"m 743 1035 b 571 1064 689 1053 631 1064 b 274 864 433 1064 294 997 l 213 929 b 29 524 101 831 29 686 b 572 -22 28 221 264 -22 b 1117 524 876 -22 1117 219 b 907 947 1117 697 1033 849 b 897 1064 910 988 907 1025 l 733 1064 b 743 1035 738 1054 740 1044 z m 211 524 b 283 749 211 610 239 688 b 558 592 319 646 425 592 b 849 768 683 592 800 665 b 933 524 906 703 933 619 b 572 150 933 307 785 150 b 211 524 358 150 211 307 z m 571 904 b 710 863 625 904 683 885 b 558 758 686 794 622 758 b 446 832 494 758 446 788 b 571 904 446 876 497 904 z m 475 1097 l 700 1097 l 333 1346 l 333 1181 z "},"ó":{"ha":1144,"x_min":0,"x_max":0,"o":"m 743 1035 b 733 1064 740 1044 738 1054 l 897 1064 b 907 947 907 1025 910 988 b 1117 524 1033 849 1117 697 b 572 -22 1117 219 876 -22 b 29 524 264 -22 28 221 b 213 929 29 686 101 831 l 274 864 b 571 1064 294 997 433 1064 b 743 1035 631 1064 689 1053 z m 211 524 b 572 150 211 307 358 150 b 933 524 785 150 933 307 b 849 768 933 619 906 703 b 558 592 800 665 683 592 b 283 749 425 592 319 646 b 211 524 239 688 211 610 z m 571 904 b 446 832 497 904 446 876 b 558 758 446 788 494 758 b 710 863 622 758 686 794 b 571 904 683 885 625 904 z m 825 1181 l 825 1346 l 458 1097 l 683 1097 z "},"ô":{"ha":1144,"x_min":0,"x_max":0,"o":"m 743 1035 b 571 1064 689 1053 631 1064 b 274 864 433 1064 294 997 l 213 929 b 29 524 101 831 29 686 b 572 -22 28 221 264 -22 b 1117 524 876 -22 1117 219 b 907 947 1117 697 1033 849 b 897 1064 910 988 907 1025 l 733 1064 b 743 1035 738 1054 740 1044 z m 211 524 b 283 749 211 610 239 688 b 558 592 319 646 425 592 b 849 768 683 592 800 665 b 933 524 906 703 933 619 b 572 150 933 307 785 150 b 211 524 358 150 211 307 z m 571 904 b 710 863 625 904 683 885 b 558 758 686 794 622 758 b 446 832 494 758 446 788 b 571 904 446 876 497 904 z m 572 1215 l 776 1082 l 776 1235 l 647 1324 l 496 1324 l 367 1235 l 367 1082 z "},"õ":{"ha":1144,"x_min":0,"x_max":0,"o":"m 743 1035 b 733 1064 740 1044 738 1054 l 897 1064 b 907 947 907 1025 910 988 b 1117 524 1033 849 1117 697 b 572 -22 1117 219 876 -22 b 29 524 264 -22 28 221 b 213 929 29 686 101 831 l 274 864 b 571 1064 294 997 433 1064 b 743 1035 631 1064 689 1053 z m 211 524 b 572 150 211 307 358 150 b 933 524 785 150 933 307 b 849 768 933 619 906 703 b 558 592 800 665 683 592 b 283 749 425 592 319 646 b 211 524 239 688 211 610 z m 571 904 b 446 832 497 904 446 876 b 558 758 446 788 494 758 b 710 863 622 758 686 794 b 571 904 683 885 625 904 z m 671 1090 b 776 1135 713 1090 747 1106 l 776 1278 b 674 1219 756 1250 731 1219 b 472 1282 619 1219 539 1282 b 367 1238 431 1282 396 1267 l 367 1094 b 469 1153 388 1122 413 1153 b 671 1090 522 1153 604 1090 z "},"ö":{"ha":1144,"x_min":0,"x_max":0,"o":"m 743 1035 b 733 1064 740 1044 738 1054 l 897 1064 b 907 947 907 1025 910 988 b 1117 524 1033 849 1117 697 b 572 -22 1117 219 876 -22 b 29 524 264 -22 28 221 b 213 929 29 686 101 831 l 274 864 b 571 1064 294 997 433 1064 b 743 1035 631 1064 689 1053 z m 211 524 b 572 150 211 307 358 150 b 933 524 785 150 933 307 b 849 768 933 619 906 703 b 558 592 800 665 683 592 b 283 749 425 592 319 646 b 211 524 239 688 211 610 z m 528 1300 l 389 1300 l 346 1169 l 458 1089 l 572 1169 z m 754 1300 l 615 1300 l 572 1169 l 685 1089 l 799 1169 z m 571 904 b 446 832 497 904 446 876 b 558 758 446 788 494 758 b 710 863 622 758 686 794 b 571 904 683 885 625 904 z "},"ō":{"ha":1144,"x_min":0,"x_max":0,"o":"m 743 1035 b 733 1064 740 1044 738 1054 l 897 1064 b 907 947 907 1025 910 988 b 1117 524 1033 849 1117 697 b 572 -22 1117 219 876 -22 b 29 524 264 -22 28 221 b 213 929 29 686 101 831 l 274 864 b 571 1064 294 997 433 1064 b 743 1035 631 1064 689 1053 z m 211 524 b 572 150 211 307 358 150 b 933 524 785 150 933 307 b 849 768 933 619 906 703 b 558 592 800 665 683 592 b 283 749 425 592 319 646 b 211 524 239 688 211 610 z m 571 904 b 446 832 497 904 446 876 b 558 758 446 788 494 758 b 710 863 622 758 686 794 b 571 904 683 885 625 904 z m 367 1126 l 776 1126 l 776 1258 l 367 1258 z "},"ŏ":{"ha":1144,"x_min":0,"x_max":0,"o":"m 743 1035 b 571 1064 689 1053 631 1064 b 274 864 433 1064 294 997 l 213 929 b 29 524 101 831 29 686 b 572 -22 28 221 264 -22 b 1117 524 876 -22 1117 219 b 907 947 1117 697 1033 849 b 897 1064 910 988 907 1025 l 733 1064 b 743 1035 738 1054 740 1044 z m 211 524 b 283 749 211 610 239 688 b 558 592 319 646 425 592 b 849 768 683 592 800 665 b 933 524 906 703 933 619 b 572 150 933 307 785 150 b 211 524 358 150 211 307 z m 571 1214 b 496 1292 528 1214 500 1246 l 360 1292 b 571 1089 364 1165 451 1089 b 783 1292 690 1089 779 1165 l 647 1292 b 571 1214 643 1246 614 1214 z m 571 904 b 710 863 625 904 683 885 b 558 758 686 794 622 758 b 446 832 494 758 446 788 b 571 904 446 876 497 904 z "},"ő":{"ha":1144,"x_min":0,"x_max":0,"o":"m 743 1035 b 733 1064 740 1044 738 1054 l 897 1064 b 907 947 907 1025 910 988 b 1117 524 1033 849 1117 697 b 572 -22 1117 219 876 -22 b 29 524 264 -22 28 221 b 213 929 29 686 101 831 l 274 864 b 571 1064 294 997 433 1064 b 743 1035 631 1064 689 1053 z m 211 524 b 572 150 211 307 358 150 b 933 524 785 150 933 307 b 849 768 933 619 906 703 b 558 592 800 665 683 592 b 283 749 425 592 319 646 b 211 524 239 688 211 610 z m 571 904 b 446 832 497 904 446 876 b 558 758 446 788 494 758 b 710 863 622 758 686 794 b 571 904 683 885 625 904 z m 657 1179 l 657 1338 l 357 1097 l 546 1097 z m 899 1179 l 899 1338 l 593 1097 l 782 1097 z "},"ǿ":{"ha":1144,"x_min":0,"x_max":0,"o":"m 579 1061 b 1117 522 868 1061 1117 825 b 571 -19 1117 218 878 -19 b 338 31 488 -19 407 -7 l 314 0 l 124 0 l 207 117 b 29 522 97 215 28 360 b 208 931 29 685 97 832 l 308 824 b 579 1061 311 961 428 1061 z m 844 767 l 435 175 b 571 149 475 160 521 149 b 933 522 785 149 933 308 b 575 903 933 743 792 903 b 471 807 511 903 471 863 b 563 717 471 753 510 717 b 651 767 600 717 633 735 z m 208 522 b 307 261 208 418 246 328 l 515 565 b 310 785 401 589 319 674 b 208 522 247 718 210 628 z m 797 1181 l 797 1346 l 431 1097 l 656 1097 z "},"ŕ":{"ha":890,"x_min":0,"x_max":0,"o":"m 847 0 b 863 175 858 64 863 121 b 692 594 863 382 792 515 b 700 683 697 619 700 654 b 367 1064 700 933 543 1064 b 28 690 185 1064 28 933 l 28 0 l 210 0 l 210 325 b 403 233 250 267 322 233 b 642 394 457 233 574 253 b 689 183 671 343 689 274 b 668 0 689 131 683 69 z m 429 683 b 210 576 331 683 253 643 l 210 700 b 368 894 210 833 283 894 b 525 672 444 894 532 826 b 429 683 493 679 460 683 z m 392 401 b 335 453 358 401 335 422 b 424 521 335 493 369 521 b 507 507 451 521 479 517 b 392 401 489 424 438 401 z m 628 1181 l 628 1346 l 261 1097 l 486 1097 z "},"ŗ":{"ha":890,"x_min":0,"x_max":0,"o":"m 847 0 b 863 175 858 64 863 121 b 692 594 863 382 792 515 b 700 683 697 619 700 654 b 367 1064 700 933 543 1064 b 28 690 185 1064 28 933 l 28 0 l 210 0 l 210 325 b 403 233 250 267 322 233 b 642 394 457 233 574 253 b 689 183 671 343 689 274 b 668 0 689 131 683 69 z m 429 683 b 210 576 331 683 253 643 l 210 700 b 368 894 210 833 283 894 b 525 672 444 894 532 826 b 429 683 493 679 460 683 z m 439 -267 b 375 -319 436 -314 403 -319 l 375 -386 b 524 -267 461 -386 501 -351 l 560 -136 l 446 -53 l 331 -136 l 375 -267 z m 392 401 b 335 453 358 401 335 422 b 424 521 335 493 369 521 b 507 507 451 521 479 517 b 392 401 489 424 438 401 z "},"ř":{"ha":890,"x_min":0,"x_max":0,"o":"m 847 0 b 863 175 858 64 863 121 b 692 594 863 382 792 515 b 700 683 697 619 700 654 b 367 1064 700 933 543 1064 b 28 690 185 1064 28 933 l 28 0 l 210 0 l 210 325 b 403 233 250 267 322 233 b 642 394 457 233 574 253 b 689 183 671 343 689 274 b 668 0 689 131 683 69 z m 429 683 b 210 576 331 683 253 643 l 210 700 b 368 894 210 833 283 894 b 525 672 444 894 532 826 b 429 683 493 679 460 683 z m 392 401 b 335 453 358 401 335 422 b 424 521 335 493 369 521 b 507 507 451 521 479 517 b 392 401 489 424 438 401 z m 156 1339 l 156 1186 l 285 1097 l 436 1097 l 565 1186 l 565 1339 l 361 1206 z "},"ś":{"ha":1114,"x_min":0,"x_max":0,"o":"m 53 0 l 160 247 b 28 640 78 361 28 501 l 213 640 b 249 450 211 585 218 515 l 499 1042 l 703 1042 b 760 754 608 939 633 822 l 849 707 b 1085 347 974 640 1089 536 b 657 -25 1079 99 886 -25 b 293 110 510 -25 394 26 l 246 0 z m 661 147 b 897 349 799 147 896 222 b 769 549 899 438 854 504 l 682 599 b 553 718 621 635 564 669 l 365 282 b 661 147 440 206 536 147 z m 879 1181 l 879 1346 l 513 1097 l 738 1097 z "},"ŝ":{"ha":1114,"x_min":0,"x_max":0,"o":"m 246 0 l 293 110 b 657 -25 394 26 510 -25 b 1085 347 886 -25 1079 99 b 849 707 1089 536 974 640 l 760 754 b 703 1042 633 822 608 939 l 499 1042 l 249 450 b 213 640 218 515 211 585 l 28 640 b 160 247 28 501 78 361 l 53 0 z m 661 147 b 365 282 536 147 440 206 l 553 718 b 682 599 564 669 621 635 l 769 549 b 897 349 854 504 899 438 b 661 147 896 222 799 147 z m 599 1201 l 803 1068 l 803 1221 l 674 1310 l 522 1310 l 393 1221 l 393 1068 z "},"š":{"ha":1114,"x_min":0,"x_max":0,"o":"m 246 0 l 293 110 b 657 -25 394 26 510 -25 b 1085 347 886 -25 1079 99 b 849 707 1089 536 974 640 l 760 754 b 703 1042 633 822 608 939 l 499 1042 l 249 450 b 213 640 218 515 211 585 l 28 640 b 160 247 28 501 78 361 l 53 0 z m 661 147 b 365 282 536 147 440 206 l 553 718 b 682 599 564 669 621 635 l 769 549 b 897 349 854 504 899 438 b 661 147 896 222 799 147 z m 393 1339 l 393 1186 l 522 1097 l 674 1097 l 803 1186 l 803 1339 l 599 1206 z "},"ş":{"ha":1114,"x_min":0,"x_max":0,"o":"m 21 -299 b 151 -328 50 -315 100 -328 b 321 -174 238 -328 321 -276 b 222 -47 321 -101 269 -58 l 222 0 l 246 0 l 293 110 b 657 -25 394 26 510 -25 b 1085 347 886 -25 1079 99 b 849 707 1089 536 974 640 l 760 754 b 703 1042 633 822 608 939 l 499 1042 l 249 450 b 213 640 218 515 211 585 l 28 640 b 160 247 28 501 78 361 l 53 0 l 90 0 l 90 -128 b 181 -165 153 -121 181 -137 b 136 -201 181 -189 161 -201 b 60 -171 94 -201 60 -171 z m 661 147 b 365 282 536 147 440 206 l 553 718 b 682 599 564 669 621 635 l 769 549 b 897 349 854 504 899 438 b 661 147 896 222 799 147 z "},"ș":{"ha":1114,"x_min":0,"x_max":0,"o":"m 246 0 l 293 110 b 657 -25 394 26 510 -25 b 1085 347 886 -25 1079 99 b 849 707 1089 536 974 640 l 760 754 b 703 1042 633 822 608 939 l 499 1042 l 249 450 b 213 640 218 515 211 585 l 28 640 b 160 247 28 501 78 361 l 53 0 z m 661 147 b 365 282 536 147 440 206 l 553 718 b 682 599 564 669 621 635 l 769 549 b 897 349 854 504 899 438 b 661 147 896 222 799 147 z m 579 -267 b 515 -319 576 -314 543 -319 l 515 -386 b 664 -267 601 -386 642 -351 l 700 -136 l 586 -53 l 471 -136 l 515 -267 z "},"ť":{"ha":728,"x_min":0,"x_max":0,"o":"m 28 832 l 207 832 l 207 1042 l 390 1042 l 390 832 l 699 832 l 699 647 l 489 647 b 700 272 607 563 700 440 b 456 -22 700 86 600 -22 b 207 278 290 -22 207 106 l 207 608 b 28 647 154 635 92 647 z m 582 1060 b 508 986 578 1000 544 986 l 508 913 b 675 1078 611 917 639 951 l 714 1211 l 588 1303 l 460 1211 l 514 1060 z m 522 268 b 390 513 522 371 468 451 l 390 281 b 456 154 390 196 414 154 b 522 268 492 154 522 181 z "},"ţ":{"ha":728,"x_min":0,"x_max":0,"o":"m 319 -299 b 450 -328 349 -315 399 -328 b 619 -174 536 -328 619 -276 b 521 -47 619 -101 568 -58 l 521 -14 b 700 272 629 14 700 115 b 489 647 700 440 607 563 l 699 647 l 699 832 l 390 832 l 390 1042 l 207 1042 l 207 832 l 28 832 l 28 647 b 207 608 92 647 154 635 l 207 278 b 389 -14 207 131 268 15 l 389 -128 b 479 -165 451 -121 479 -137 b 435 -201 479 -189 460 -201 b 358 -171 393 -201 358 -171 z m 522 268 b 456 154 522 181 492 154 b 390 281 414 154 390 196 l 390 513 b 522 268 468 451 522 371 z "},"ț":{"ha":728,"x_min":0,"x_max":0,"o":"m 28 647 b 207 608 92 647 154 635 l 207 278 b 456 -22 207 106 290 -22 b 700 272 600 -22 700 86 b 489 647 700 440 607 563 l 699 647 l 699 832 l 390 832 l 390 1042 l 207 1042 l 207 832 l 28 832 z m 449 -267 b 385 -319 446 -314 413 -319 l 385 -386 b 533 -267 471 -386 511 -351 l 569 -136 l 456 -53 l 340 -136 l 385 -267 z m 522 268 b 456 154 522 181 492 154 b 390 281 414 154 390 196 l 390 513 b 522 268 468 451 522 371 z "},"ŧ":{"ha":728,"x_min":0,"x_max":0,"o":"m 28 836 l 207 836 l 207 794 l 28 794 l 28 610 b 207 571 92 610 154 597 l 207 278 b 456 -22 207 106 290 -22 b 700 269 600 -22 700 89 b 482 610 700 429 600 535 l 699 610 l 699 794 l 390 794 l 390 836 l 699 836 l 699 1000 l 390 1000 l 390 1042 l 207 1042 l 207 1000 l 28 1000 z m 522 268 b 457 154 522 190 494 154 b 390 276 418 154 390 192 l 390 468 b 522 268 469 415 522 344 z "},"ù":{"ha":1061,"x_min":0,"x_max":0,"o":"m 1033 746 b 751 1064 1033 936 922 1064 b 475 767 586 1064 475 938 b 653 240 475 594 565 393 b 429 147 589 182 513 147 b 208 375 296 147 208 236 l 208 1042 l 28 1042 l 29 378 b 429 -22 29 131 211 -22 b 742 94 550 -22 656 24 b 807 0 781 36 807 0 l 1008 0 b 858 221 953 76 901 150 b 1033 746 974 378 1033 586 z m 656 772 b 753 890 657 833 692 890 b 851 760 814 890 851 839 b 764 388 851 625 819 492 b 656 772 690 533 653 664 z m 489 1097 l 714 1097 l 347 1346 l 347 1181 z "},"ú":{"ha":1061,"x_min":0,"x_max":0,"o":"m 1033 746 b 751 1064 1033 936 922 1064 b 475 767 586 1064 475 938 b 653 240 475 594 565 393 b 429 147 589 182 513 147 b 208 375 296 147 208 236 l 208 1042 l 28 1042 l 29 378 b 429 -22 29 131 211 -22 b 742 94 550 -22 656 24 b 807 0 781 36 807 0 l 1008 0 b 858 221 953 76 901 150 b 1033 746 974 378 1033 586 z m 656 772 b 753 890 657 833 692 890 b 851 760 814 890 851 839 b 764 388 851 625 819 492 b 656 772 690 533 653 664 z m 797 1181 l 797 1346 l 431 1097 l 656 1097 z "},"û":{"ha":1061,"x_min":0,"x_max":0,"o":"m 1033 746 b 751 1064 1033 936 922 1064 b 475 767 586 1064 475 938 b 653 240 475 594 565 393 b 429 147 589 182 513 147 b 208 375 296 147 208 236 l 208 1042 l 28 1042 l 29 378 b 429 -22 29 131 211 -22 b 742 94 550 -22 656 24 b 807 0 781 36 807 0 l 1008 0 b 858 221 953 76 901 150 b 1033 746 974 378 1033 586 z m 656 772 b 753 890 657 833 692 890 b 851 760 814 890 851 839 b 764 388 851 625 819 492 b 656 772 690 533 653 664 z m 546 1201 l 750 1068 l 750 1221 l 621 1310 l 469 1310 l 340 1221 l 340 1068 z "},"ũ":{"ha":1061,"x_min":0,"x_max":0,"o":"m 1033 746 b 751 1064 1033 936 922 1064 b 475 767 586 1064 475 938 b 653 240 475 594 565 393 b 429 147 589 182 513 147 b 208 375 296 147 208 236 l 208 1042 l 28 1042 l 29 378 b 429 -22 29 131 211 -22 b 742 94 550 -22 656 24 b 807 0 781 36 807 0 l 1008 0 b 858 221 953 76 901 150 b 1033 746 974 378 1033 586 z m 656 772 b 753 890 657 833 692 890 b 851 760 814 890 851 839 b 764 388 851 625 819 492 b 656 772 690 533 653 664 z m 629 1090 b 735 1135 671 1090 706 1106 l 735 1278 b 632 1219 714 1250 689 1219 b 431 1282 578 1219 497 1282 b 325 1238 389 1282 354 1267 l 325 1094 b 428 1153 346 1122 371 1153 b 629 1090 481 1153 563 1090 z "},"ü":{"ha":1061,"x_min":0,"x_max":0,"o":"m 1033 746 b 751 1064 1033 936 922 1064 b 475 767 586 1064 475 938 b 653 240 475 594 565 393 b 429 147 589 182 513 147 b 208 375 296 147 208 236 l 208 1042 l 28 1042 l 29 378 b 429 -22 29 131 211 -22 b 742 94 550 -22 656 24 b 807 0 781 36 807 0 l 1008 0 b 858 221 953 76 901 150 b 1033 746 974 378 1033 586 z m 656 772 b 753 890 657 833 692 890 b 851 760 814 890 851 839 b 764 388 851 625 819 492 b 656 772 690 533 653 664 z m 486 1300 l 347 1300 l 304 1169 l 417 1089 l 531 1169 z m 713 1300 l 574 1300 l 531 1169 l 643 1089 l 757 1169 z "},"ū":{"ha":1061,"x_min":0,"x_max":0,"o":"m 1033 746 b 751 1064 1033 936 922 1064 b 475 767 586 1064 475 938 b 653 240 475 594 565 393 b 429 147 589 182 513 147 b 208 375 296 147 208 236 l 208 1042 l 28 1042 l 29 378 b 429 -22 29 131 211 -22 b 742 94 550 -22 656 24 b 807 0 781 36 807 0 l 1008 0 b 858 221 953 76 901 150 b 1033 746 974 378 1033 586 z m 656 772 b 753 890 657 833 692 890 b 851 760 814 890 851 839 b 764 388 851 625 819 492 b 656 772 690 533 653 664 z m 325 1126 l 735 1126 l 735 1258 l 325 1258 z "},"ŭ":{"ha":1061,"x_min":0,"x_max":0,"o":"m 1033 746 b 751 1064 1033 936 922 1064 b 475 767 586 1064 475 938 b 653 240 475 594 565 393 b 429 147 589 182 513 147 b 208 375 296 147 208 236 l 208 1042 l 28 1042 l 29 378 b 429 -22 29 131 211 -22 b 742 94 550 -22 656 24 b 807 0 781 36 807 0 l 1008 0 b 858 221 953 76 901 150 b 1033 746 974 378 1033 586 z m 656 772 b 753 890 657 833 692 890 b 851 760 814 890 851 839 b 764 388 851 625 819 492 b 656 772 690 533 653 664 z m 529 1214 b 454 1292 486 1214 458 1246 l 318 1292 b 529 1089 322 1165 410 1089 b 742 1292 649 1089 738 1165 l 606 1292 b 529 1214 601 1246 572 1214 z "},"ů":{"ha":1061,"x_min":0,"x_max":0,"o":"m 1033 746 b 751 1064 1033 936 922 1064 b 475 767 586 1064 475 938 b 653 240 475 594 565 393 b 429 147 589 182 513 147 b 208 375 296 147 208 236 l 208 1042 l 28 1042 l 29 378 b 429 -22 29 131 211 -22 b 742 94 550 -22 656 24 b 807 0 781 36 807 0 l 1008 0 b 858 221 953 76 901 150 b 1033 746 974 378 1033 586 z m 656 772 b 753 890 657 833 692 890 b 851 760 814 890 851 839 b 764 388 851 625 819 492 b 656 772 690 533 653 664 z m 321 1200 b 475 1046 321 1115 390 1046 b 629 1200 560 1046 629 1115 b 475 1354 629 1285 560 1354 b 321 1200 390 1354 321 1285 z m 421 1200 b 475 1254 421 1231 444 1254 b 529 1200 506 1254 529 1231 b 475 1146 529 1169 506 1146 b 421 1200 444 1146 421 1169 z "},"ű":{"ha":1061,"x_min":0,"x_max":0,"o":"m 1033 746 b 751 1064 1033 936 922 1064 b 475 767 586 1064 475 938 b 653 240 475 594 565 393 b 429 147 589 182 513 147 b 208 375 296 147 208 236 l 208 1042 l 28 1042 l 29 378 b 429 -22 29 131 211 -22 b 742 94 550 -22 656 24 b 807 0 781 36 807 0 l 1008 0 b 858 221 953 76 901 150 b 1033 746 974 378 1033 586 z m 656 772 b 753 890 657 833 692 890 b 851 760 814 890 851 839 b 764 388 851 625 819 492 b 656 772 690 533 653 664 z m 560 1179 l 560 1338 l 260 1097 l 449 1097 z m 801 1179 l 801 1338 l 496 1097 l 685 1097 z "},"ų":{"ha":1061,"x_min":0,"x_max":0,"o":"m 1053 -151 b 1004 -175 1036 -165 1021 -175 b 976 -146 986 -175 976 -164 l 976 0 l 1008 0 b 858 221 953 76 901 150 b 1033 746 974 378 1033 586 b 751 1064 1033 936 922 1064 b 475 767 586 1064 475 938 b 653 240 475 594 565 393 b 429 147 589 182 513 147 b 208 375 296 147 208 236 l 208 1042 l 28 1042 l 29 378 b 429 -22 29 131 211 -22 b 742 94 550 -22 656 24 b 807 0 781 36 807 0 l 832 0 l 832 -165 b 988 -321 832 -267 888 -321 b 1122 -271 1039 -321 1083 -303 z m 656 772 b 753 890 657 833 692 890 b 851 760 814 890 851 839 b 764 388 851 625 819 492 b 656 772 690 533 653 664 z "},"ẁ":{"ha":1450,"x_min":0,"x_max":0,"o":"m 865 149 b 642 519 733 149 642 315 l 460 519 b 463 288 463 436 464 350 b 379 149 461 204 442 149 b 207 519 269 149 207 315 b 404 893 207 671 272 838 l 314 1042 b 28 519 144 961 28 747 b 379 -22 28 199 156 -22 b 596 121 496 -22 560 38 b 861 -22 660 32 750 -22 b 1290 643 1131 -22 1288 247 b 1422 742 1336 674 1382 706 l 1408 951 b 1267 829 1361 901 1315 864 b 975 1064 1214 1007 1081 1064 b 692 807 753 1064 692 899 b 990 540 692 699 760 540 b 1111 557 1032 540 1072 546 b 865 149 1092 256 981 149 z m 965 894 b 1107 736 1028 894 1088 843 b 978 714 1061 718 1018 710 b 871 814 897 721 871 774 b 965 894 871 863 908 894 z m 586 1097 l 811 1097 l 444 1346 l 444 1181 z "},"ẃ":{"ha":1450,"x_min":0,"x_max":0,"o":"m 865 149 b 1111 557 981 149 1092 256 b 990 540 1072 546 1032 540 b 692 807 760 540 692 699 b 975 1064 692 899 753 1064 b 1267 829 1081 1064 1214 1007 b 1408 951 1315 864 1361 901 l 1422 742 b 1290 643 1382 706 1336 674 b 861 -22 1288 247 1131 -22 b 596 121 750 -22 660 32 b 379 -22 560 38 496 -22 b 28 519 156 -22 28 199 b 314 1042 28 747 144 961 l 404 893 b 207 519 272 838 207 671 b 379 149 207 315 269 149 b 463 288 442 149 461 204 b 460 519 464 350 463 436 l 642 519 b 865 149 642 315 733 149 z m 965 894 b 871 814 908 894 871 863 b 978 714 871 774 897 721 b 1107 736 1018 710 1061 718 b 965 894 1088 843 1028 894 z m 908 1181 l 908 1346 l 542 1097 l 767 1097 z "},"ŵ":{"ha":1450,"x_min":0,"x_max":0,"o":"m 865 149 b 642 519 733 149 642 315 l 460 519 b 463 288 463 436 464 350 b 379 149 461 204 442 149 b 207 519 269 149 207 315 b 404 893 207 671 272 838 l 314 1042 b 28 519 144 961 28 747 b 379 -22 28 199 156 -22 b 596 121 496 -22 560 38 b 861 -22 660 32 750 -22 b 1290 643 1131 -22 1288 247 b 1422 742 1336 674 1382 706 l 1408 951 b 1267 829 1361 901 1315 864 b 975 1064 1214 1007 1081 1064 b 692 807 753 1064 692 899 b 990 540 692 699 760 540 b 1111 557 1032 540 1072 546 b 865 149 1092 256 981 149 z m 965 894 b 1107 736 1028 894 1088 843 b 978 714 1061 718 1018 710 b 871 814 897 721 871 774 b 965 894 871 863 908 894 z m 656 1201 l 860 1068 l 860 1221 l 731 1310 l 579 1310 l 450 1221 l 450 1068 z "},"ẅ":{"ha":1450,"x_min":0,"x_max":0,"o":"m 865 149 b 1111 557 981 149 1092 256 b 990 540 1072 546 1032 540 b 692 807 760 540 692 699 b 975 1064 692 899 753 1064 b 1267 829 1081 1064 1214 1007 b 1408 951 1315 864 1361 901 l 1422 742 b 1290 643 1382 706 1336 674 b 861 -22 1288 247 1131 -22 b 596 121 750 -22 660 32 b 379 -22 560 38 496 -22 b 28 519 156 -22 28 199 b 314 1042 28 747 144 961 l 404 893 b 207 519 272 838 207 671 b 379 149 207 315 269 149 b 463 288 442 149 461 204 b 460 519 464 350 463 436 l 642 519 b 865 149 642 315 733 149 z m 865 1300 l 726 1300 l 683 1169 l 796 1089 l 910 1169 z m 639 1300 l 500 1300 l 457 1169 l 569 1089 l 683 1169 z m 965 894 b 871 814 908 894 871 863 b 978 714 871 774 897 721 b 1107 736 1018 710 1061 718 b 965 894 1088 843 1028 894 z "},"ỳ":{"ha":1074,"x_min":0,"x_max":0,"o":"m 564 338 b 514 336 547 336 531 336 b 203 689 329 338 204 474 b 296 1042 203 792 233 915 l 117 1042 b 28 689 58 931 28 806 b 367 190 28 458 140 256 b 250 -67 299 129 250 42 b 503 -308 250 -203 360 -308 b 747 -54 646 -308 747 -207 l 747 211 b 1046 771 918 286 1046 461 b 807 1064 1046 939 965 1064 b 564 740 644 1064 564 917 z m 872 778 b 747 404 872 600 832 475 l 747 751 b 811 893 747 833 765 893 b 872 778 856 893 872 840 z m 425 174 b 518 165 454 168 485 165 b 564 167 533 165 549 165 l 564 -58 b 499 -137 564 -107 538 -137 b 439 -76 461 -137 439 -112 b 519 76 439 -10 483 42 z m 453 1097 l 678 1097 l 311 1346 l 311 1181 z "},"ý":{"ha":1074,"x_min":0,"x_max":0,"o":"m 564 740 b 807 1064 564 917 644 1064 b 1046 771 965 1064 1046 939 b 747 211 1046 461 918 286 l 747 -54 b 503 -308 747 -207 646 -308 b 250 -67 360 -308 250 -203 b 367 190 250 42 299 129 b 28 689 140 256 28 458 b 117 1042 28 806 58 931 l 296 1042 b 203 689 233 915 203 792 b 514 336 204 474 329 338 b 564 338 531 336 547 336 z m 872 778 b 811 893 872 840 856 893 b 747 751 765 893 747 833 l 747 404 b 872 778 832 475 872 600 z m 519 76 b 439 -76 483 42 439 -10 b 499 -137 439 -112 461 -137 b 564 -58 538 -137 564 -107 l 564 167 b 518 165 549 165 533 165 b 425 174 485 165 454 168 z m 747 1181 l 747 1346 l 381 1097 l 606 1097 z "},"ŷ":{"ha":1074,"x_min":0,"x_max":0,"o":"m 564 338 b 514 336 547 336 531 336 b 203 689 329 338 204 474 b 296 1042 203 792 233 915 l 117 1042 b 28 689 58 931 28 806 b 367 190 28 458 140 256 b 250 -67 299 129 250 42 b 503 -308 250 -203 360 -308 b 747 -54 646 -308 747 -207 l 747 211 b 1046 771 918 286 1046 461 b 807 1064 1046 939 965 1064 b 564 740 644 1064 564 917 z m 872 778 b 747 404 872 600 832 475 l 747 751 b 811 893 747 833 765 893 b 872 778 856 893 872 840 z m 425 174 b 518 165 454 168 485 165 b 564 167 533 165 549 165 l 564 -58 b 499 -137 564 -107 538 -137 b 439 -76 461 -137 439 -112 b 519 76 439 -10 483 42 z m 524 1201 l 728 1068 l 728 1221 l 599 1310 l 447 1310 l 318 1221 l 318 1068 z "},"ÿ":{"ha":1074,"x_min":0,"x_max":0,"o":"m 564 740 b 807 1064 564 917 644 1064 b 1046 771 965 1064 1046 939 b 747 211 1046 461 918 286 l 747 -54 b 503 -308 747 -207 646 -308 b 250 -67 360 -308 250 -203 b 367 190 250 42 299 129 b 28 689 140 256 28 458 b 117 1042 28 806 58 931 l 296 1042 b 203 689 233 915 203 792 b 514 336 204 474 329 338 b 564 338 531 336 547 336 z m 872 778 b 811 893 872 840 856 893 b 747 751 765 893 747 833 l 747 404 b 872 778 832 475 872 600 z m 492 1300 l 353 1300 l 310 1169 l 422 1089 l 536 1169 z m 718 1300 l 579 1300 l 536 1169 l 649 1089 l 763 1169 z m 519 76 b 439 -76 483 42 439 -10 b 499 -137 439 -112 461 -137 b 564 -58 538 -137 564 -107 l 564 167 b 518 165 549 165 533 165 b 425 174 485 165 454 168 z "},"ź":{"ha":914,"x_min":0,"x_max":0,"o":"m 886 1043 l 28 1043 l 28 876 l 703 876 b 458 317 703 876 579 539 b 283 339 392 335 342 340 b 28 111 140 339 28 247 b 247 -108 28 -18 121 -108 b 538 99 385 -108 468 -11 b 607 -31 581 67 607 29 b 469 -174 607 -108 553 -174 b 369 -129 429 -174 394 -156 l 256 -271 b 469 -343 313 -324 386 -343 b 783 -33 657 -343 783 -210 b 615 253 783 97 701 194 b 886 869 729 472 886 869 z m 256 57 b 197 111 221 57 197 78 b 288 175 197 156 238 175 b 379 168 315 175 344 172 b 256 57 351 124 310 57 z m 654 1181 l 654 1346 l 288 1097 l 513 1097 z "},"ž":{"ha":914,"x_min":0,"x_max":0,"o":"m 886 1043 l 28 1043 l 28 876 l 703 876 b 458 317 703 876 579 539 b 283 339 392 335 342 340 b 28 111 140 339 28 247 b 247 -108 28 -18 121 -108 b 538 99 385 -108 468 -11 b 607 -31 581 67 607 29 b 469 -174 607 -108 553 -174 b 369 -129 429 -174 394 -156 l 256 -271 b 469 -343 313 -324 386 -343 b 783 -33 657 -343 783 -210 b 615 253 783 97 701 194 b 886 869 729 472 886 869 z m 256 57 b 197 111 221 57 197 78 b 288 175 197 156 238 175 b 379 168 315 175 344 172 b 256 57 351 124 310 57 z m 251 1339 l 251 1186 l 381 1097 l 532 1097 l 661 1186 l 661 1339 l 457 1206 z "},"ż":{"ha":914,"x_min":0,"x_max":0,"o":"m 886 1043 l 28 1043 l 28 876 l 703 876 b 458 317 703 876 579 539 b 283 339 392 335 342 340 b 28 111 140 339 28 247 b 247 -108 28 -18 121 -108 b 538 99 385 -108 468 -11 b 607 -31 581 67 607 29 b 469 -174 607 -108 553 -174 b 369 -129 429 -174 394 -156 l 256 -271 b 469 -343 313 -324 386 -343 b 783 -33 657 -343 783 -210 b 615 253 783 97 701 194 b 886 869 729 472 886 869 z m 525 1300 l 386 1300 l 343 1169 l 456 1089 l 569 1169 z m 256 57 b 197 111 221 57 197 78 b 288 175 197 156 238 175 b 379 168 315 175 344 172 b 256 57 351 124 310 57 z "},"Ĳ":{"ha":989,"x_min":0,"x_max":0,"o":"m 28 0 l 211 0 l 211 1042 l 28 1042 z m 961 471 l 961 647 l 900 647 l 900 1042 l 719 1042 l 267 839 l 267 647 l 717 849 l 717 633 b 311 243 501 597 311 478 b 581 -22 311 110 396 -22 b 900 336 767 -22 900 114 l 900 472 b 961 471 921 472 940 472 z m 717 335 b 582 158 717 231 671 158 b 503 240 535 158 503 194 b 717 460 503 360 589 432 z "},"ı":{"ha":282,"x_min":0,"x_max":0,"o":"m 233 832 l 50 832 l 50 0 l 233 0 z "},"ﬁ":{"ha":1085,"x_min":0,"x_max":0,"o":"m 1036 613 l 508 613 l 508 850 l 797 735 l 797 928 l 508 1042 l 325 1042 l 325 613 b 28 282 132 606 28 453 b 267 -22 28 71 132 -22 b 508 274 422 -22 508 89 l 508 429 l 853 429 l 853 0 l 1036 0 z m 1013 926 l 874 926 l 831 796 l 943 715 l 1057 796 z m 207 278 b 325 429 207 372 247 426 l 325 269 b 267 157 325 192 301 157 b 207 278 231 157 207 190 z "},"ﬀ":{"ha":1039,"x_min":0,"x_max":0,"o":"m 660 911 b 221 1042 476 838 292 875 l 28 1042 l 28 233 b 268 -22 28 83 110 -22 b 500 206 392 -22 500 63 b 467 326 500 249 488 293 l 531 353 l 531 286 b 768 -22 531 86 613 -22 b 1003 281 886 -22 1003 68 b 907 504 1003 354 981 439 l 1011 543 l 1011 728 l 713 610 l 713 749 l 1008 863 l 1008 1050 z m 271 438 l 271 260 b 325 208 304 260 325 236 b 269 156 325 176 303 156 b 211 214 235 156 211 181 l 211 824 b 531 710 275 728 401 689 l 531 538 z m 825 276 b 768 156 825 188 804 156 b 713 275 732 156 713 192 l 713 422 b 825 276 778 419 825 365 z "},"ﬂ":{"ha":1265,"x_min":0,"x_max":0,"o":"m 1238 401 b 1036 325 1163 401 1086 374 l 1036 835 l 508 1042 l 325 1042 l 325 613 b 28 282 132 606 28 453 b 267 -22 28 71 132 -22 b 508 274 422 -22 508 89 l 508 429 l 797 429 l 797 613 l 508 613 l 508 850 l 853 714 l 853 0 l 1028 0 b 1238 208 1024 115 1111 213 z m 207 278 b 325 429 207 372 247 426 l 325 269 b 267 157 325 192 301 157 b 207 278 231 157 207 190 z "},"ˇ":{"ha":549,"x_min":0,"x_max":0,"o":"m 69 1339 l 69 1186 l 199 1097 l 350 1097 l 479 1186 l 479 1339 l 275 1206 z "},"ˆ":{"ha":549,"x_min":0,"x_max":0,"o":"m 275 1201 l 479 1068 l 479 1221 l 350 1310 l 199 1310 l 69 1221 l 69 1068 z "},"´":{"ha":506,"x_min":0,"x_max":0,"o":"m 436 1181 l 436 1346 l 69 1097 l 294 1097 z "},"`":{"ha":506,"x_min":0,"x_max":0,"o":"m 211 1097 l 436 1097 l 69 1346 l 69 1181 z "},"¯":{"ha":549,"x_min":0,"x_max":0,"o":"m 69 1126 l 479 1126 l 479 1258 l 69 1258 z "},"˘":{"ha":563,"x_min":0,"x_max":0,"o":"m 281 1214 b 206 1292 238 1214 210 1246 l 69 1292 b 281 1089 74 1165 161 1089 b 493 1292 400 1089 489 1165 l 357 1292 b 281 1214 353 1246 324 1214 z "},"˚":{"ha":447,"x_min":0,"x_max":0,"o":"m 69 1200 b 224 1046 69 1115 139 1046 b 378 1200 308 1046 378 1115 b 224 1354 378 1285 308 1354 b 69 1200 139 1354 69 1285 z m 169 1200 b 224 1254 169 1231 193 1254 b 278 1200 254 1254 278 1231 b 224 1146 278 1169 254 1146 b 169 1200 193 1146 169 1169 z "},"˜":{"ha":549,"x_min":0,"x_max":0,"o":"m 374 1090 b 479 1135 415 1090 450 1106 l 479 1278 b 376 1219 458 1250 433 1219 b 175 1282 322 1219 242 1282 b 69 1238 133 1282 99 1267 l 69 1094 b 172 1153 90 1122 115 1153 b 374 1090 225 1153 307 1090 z "},"˙":{"ha":365,"x_min":0,"x_max":0,"o":"m 251 1300 l 113 1300 l 69 1169 l 182 1089 l 296 1169 z "},"˝":{"ha":681,"x_min":0,"x_max":0,"o":"m 369 1179 l 369 1338 l 69 1097 l 258 1097 z m 611 1179 l 611 1338 l 306 1097 l 494 1097 z "},"¨":{"ha":592,"x_min":0,"x_max":0,"o":"m 251 1300 l 113 1300 l 69 1169 l 182 1089 l 296 1169 z m 478 1300 l 339 1300 l 296 1169 l 408 1089 l 522 1169 z "},"¸":{"ha":439,"x_min":0,"x_max":0,"o":"m 69 -299 b 200 -328 99 -315 149 -328 b 369 -174 286 -328 369 -276 b 271 -47 369 -101 318 -58 l 271 21 l 139 21 l 139 -128 b 229 -165 201 -121 229 -137 b 185 -201 229 -189 210 -201 b 108 -171 143 -201 108 -171 z "},"˛":{"ha":429,"x_min":0,"x_max":0,"o":"m 290 -151 b 242 -175 274 -165 258 -175 b 214 -146 224 -175 214 -164 l 214 36 l 69 36 l 69 -165 b 225 -321 69 -267 125 -321 b 360 -271 276 -321 321 -303 z "},"$":{"ha":450,"x_min":0,"x_max":0,"o":"m 172 838 b 35 664 93 817 35 749 b 206 468 35 551 131 506 b 311 376 263 439 311 417 b 228 301 311 328 274 301 b 107 404 174 301 129 357 l 28 328 b 172 204 51 275 108 225 l 172 121 l 275 121 l 275 200 b 422 378 358 218 422 286 b 265 563 422 482 339 526 b 144 664 203 593 144 618 b 225 740 144 711 181 740 b 340 639 278 740 318 685 l 421 715 b 275 839 396 768 338 819 l 275 921 l 172 921 z "},"¢":{"ha":539,"x_min":0,"x_max":0,"o":"m 301 843 b 28 521 146 818 28 688 b 301 199 28 354 146 222 l 301 121 l 404 121 l 404 197 b 511 236 443 203 479 217 l 457 328 b 404 304 440 317 424 308 l 404 739 b 458 717 424 735 442 726 l 511 806 b 404 843 479 825 443 838 l 404 921 l 301 921 z m 133 521 b 301 739 133 629 200 717 l 301 304 b 133 521 201 326 133 413 z "},"£":{"ha":557,"x_min":0,"x_max":0,"o":"m 529 565 l 529 669 l 425 669 b 219 846 408 763 324 846 b 28 664 115 846 28 768 b 182 471 28 561 94 514 b 257 383 233 446 257 419 b 58 314 257 343 229 303 l 58 208 l 529 208 l 529 313 l 326 313 b 367 399 350 338 365 367 b 240 561 371 483 314 525 b 138 664 178 592 138 618 b 218 740 138 711 174 740 b 336 599 271 740 332 690 l 336 565 z "},"¥":{"ha":561,"x_min":0,"x_max":0,"o":"m 226 471 l 226 311 l 61 311 l 61 208 l 500 208 l 500 311 l 335 311 l 335 471 l 500 471 l 500 572 l 351 572 l 533 833 l 410 833 l 281 638 l 151 833 l 28 833 l 210 572 l 61 572 l 61 471 z "},"€":{"ha":539,"x_min":0,"x_max":0,"o":"m 354 194 b 511 236 411 194 467 208 l 457 328 b 354 299 428 308 393 299 b 181 379 282 299 221 329 l 511 379 l 511 482 l 136 482 b 133 521 133 494 133 507 b 136 563 133 535 135 549 l 511 563 l 511 664 l 181 664 b 354 744 221 713 281 744 b 458 717 393 744 429 736 l 511 806 b 354 847 467 833 411 847 b 28 521 174 847 28 706 b 354 194 28 336 174 194 z "},"#":{"ha":757,"x_min":0,"x_max":0,"o":"m 129 260 l 129 0 l 228 0 l 228 260 l 529 260 l 529 0 l 628 0 l 628 260 l 729 260 l 729 357 l 628 357 l 628 685 l 729 685 l 729 782 l 628 782 l 628 1042 l 529 1042 l 529 782 l 228 782 l 228 1042 l 129 1042 l 129 782 l 28 782 l 28 685 l 129 685 l 129 357 l 28 357 l 28 260 z m 228 685 l 529 685 l 529 357 l 228 357 z "},"%":{"ha":831,"x_min":0,"x_max":0,"o":"m 28 0 l 132 0 l 803 1042 l 699 1042 z m 390 246 b 596 42 390 128 481 42 b 801 246 711 42 801 128 b 596 450 801 364 711 450 b 390 246 481 450 390 364 z m 710 246 b 596 132 710 178 661 132 b 482 246 531 132 482 178 b 596 360 482 314 531 360 b 710 246 661 360 710 314 z m 29 797 b 235 593 29 679 119 593 b 440 797 350 593 440 679 b 235 1001 440 915 350 1001 b 29 797 119 1001 29 915 z m 349 797 b 235 683 349 729 300 683 b 121 797 169 683 121 729 b 235 911 121 865 169 911 b 349 797 300 911 349 865 z "},"‰":{"ha":921,"x_min":0,"x_max":0,"o":"m 893 390 b 688 596 893 504 801 596 b 483 418 583 596 497 518 b 390 246 428 382 390 318 b 596 40 390 132 482 40 b 800 218 700 40 786 118 b 893 390 856 254 893 318 z m 29 797 b 235 593 29 679 119 593 b 440 797 350 593 440 679 b 235 1001 440 915 350 1001 b 29 797 119 1001 29 915 z m 28 0 l 132 0 l 803 1042 l 699 1042 z m 349 797 b 235 683 349 729 300 683 b 121 797 169 683 121 729 b 235 911 121 865 169 911 b 349 797 300 911 349 865 z m 479 246 b 499 308 479 269 486 290 b 688 186 529 236 603 186 l 697 186 b 596 129 678 151 640 129 b 479 246 529 129 479 182 z m 804 390 b 785 325 804 365 797 343 b 596 451 754 399 681 451 l 588 451 b 688 507 607 485 644 507 b 804 390 754 507 804 454 z m 596 361 b 708 276 649 361 694 325 b 688 275 701 275 694 275 b 575 360 633 275 589 310 b 596 361 582 361 589 361 z "},"⁄":{"ha":831,"x_min":0,"x_max":0,"o":"m 28 0 l 128 0 l 803 1042 l 703 1042 z "},"^":{"ha":757,"x_min":0,"x_max":0,"o":"m 308 1042 l 28 340 l 215 340 l 381 800 l 546 340 l 729 340 l 453 1042 z "},"~":{"ha":757,"x_min":0,"x_max":0,"o":"m 536 381 b 729 464 615 381 676 411 l 729 651 b 542 543 690 603 644 543 b 219 660 444 543 343 660 b 28 575 140 660 81 629 l 28 390 b 221 496 67 439 118 496 b 536 381 318 496 413 381 z "},"·":{"ha":338,"x_min":0,"x_max":0,"o":"m 310 426 l 168 528 l 28 426 l 81 264 l 256 264 z "},"+":{"ha":757,"x_min":0,"x_max":0,"o":"m 465 171 l 465 435 l 729 435 l 729 608 l 465 608 l 465 872 l 292 872 l 292 608 l 28 608 l 28 435 l 292 435 l 292 171 z "},"±":{"ha":757,"x_min":0,"x_max":0,"o":"m 465 340 l 465 604 l 729 604 l 729 778 l 465 778 l 465 1042 l 292 1042 l 292 778 l 28 778 l 28 604 l 292 604 l 292 340 z m 28 0 l 729 0 l 729 174 l 28 174 z "},"<":{"ha":757,"x_min":0,"x_max":0,"o":"m 28 449 l 729 171 l 729 357 l 269 521 l 729 685 l 729 872 l 28 593 z "},"=":{"ha":757,"x_min":0,"x_max":0,"o":"m 28 261 l 729 261 l 729 435 l 28 435 z m 28 608 l 729 608 l 729 782 l 28 782 z "},">":{"ha":757,"x_min":0,"x_max":0,"o":"m 729 593 l 28 872 l 28 685 l 488 521 l 28 357 l 28 171 l 729 449 z "},"|":{"ha":156,"x_min":0,"x_max":0,"o":"m 128 1042 l 28 1042 l 28 0 l 128 0 z "},"¦":{"ha":156,"x_min":0,"x_max":0,"o":"m 128 1042 l 28 1042 l 28 631 l 128 631 z m 128 411 l 28 411 l 28 0 l 128 0 z "},"×":{"ha":757,"x_min":0,"x_max":0,"o":"m 500 521 l 729 750 l 607 872 l 378 643 l 150 872 l 28 750 l 256 521 l 28 293 l 150 171 l 378 399 l 607 171 l 729 293 z "},"÷":{"ha":757,"x_min":0,"x_max":0,"o":"m 290 872 l 238 710 l 378 608 l 28 608 l 28 435 l 378 435 l 238 333 l 290 171 l 465 171 l 519 333 l 378 435 l 729 435 l 729 608 l 378 608 l 519 710 l 465 872 z "},"−":{"ha":757,"x_min":0,"x_max":0,"o":"m 28 435 l 729 435 l 729 608 l 28 608 z "},"≈":{"ha":757,"x_min":0,"x_max":0,"o":"m 536 554 b 729 638 615 554 676 585 l 729 825 b 542 717 690 776 644 717 b 219 833 444 717 343 833 b 28 749 140 833 81 803 l 28 564 b 221 669 67 613 118 669 b 536 554 318 669 413 554 z m 536 207 b 729 290 615 207 676 238 l 729 478 b 542 369 690 429 644 369 b 219 486 444 369 343 486 b 28 401 140 486 81 456 l 28 217 b 221 322 67 265 118 322 b 536 207 318 322 413 207 z "},"≠":{"ha":757,"x_min":0,"x_max":0,"o":"m 28 261 l 147 261 l 106 185 l 286 185 l 328 261 l 729 261 l 729 435 l 422 435 l 517 608 l 729 608 l 729 782 l 610 782 l 651 857 l 471 857 l 429 782 l 28 782 l 28 608 l 336 608 l 242 435 l 28 435 z "},"≤":{"ha":757,"x_min":0,"x_max":0,"o":"m 28 0 l 729 0 l 729 174 l 28 174 z m 28 618 l 729 343 l 729 526 l 269 690 l 729 854 l 729 1042 l 28 763 z "},"≥":{"ha":757,"x_min":0,"x_max":0,"o":"m 729 174 l 28 174 l 28 0 l 729 0 z m 729 763 l 28 1042 l 28 854 l 488 690 l 28 526 l 28 343 l 729 618 z "},"¬":{"ha":757,"x_min":0,"x_max":0,"o":"m 729 0 l 729 608 l 28 608 l 28 435 l 556 435 l 556 0 z "},"°":{"ha":467,"x_min":0,"x_max":0,"o":"m 28 836 b 233 631 28 722 119 631 b 439 836 347 631 439 722 b 233 1042 439 950 347 1042 b 28 836 119 1042 28 950 z m 349 836 b 233 721 349 772 297 721 b 118 836 169 721 118 772 b 233 951 118 900 169 951 b 349 836 297 951 349 900 z "},"_":{"ha":757,"x_min":0,"x_max":0,"o":"m 729 -100 l 729 0 l 28 0 l 28 -100 z "},"-":{"ha":479,"x_min":0,"x_max":0,"o":"m 28 435 l 451 435 l 451 608 l 28 608 z "},"—":{"ha":1458,"x_min":0,"x_max":0,"o":"m 1431 435 l 1431 608 l 28 608 l 28 435 z "},"–":{"ha":757,"x_min":0,"x_max":0,"o":"m 28 435 l 729 435 l 729 608 l 28 608 z "},"'":{"ha":264,"x_min":0,"x_max":0,"o":"m 182 631 l 236 1042 l 28 1042 l 82 631 z "},"\"":{"ha":474,"x_min":0,"x_max":0,"o":"m 182 631 l 236 1042 l 28 1042 l 82 631 z m 392 631 l 446 1042 l 238 1042 l 292 631 z "},"«":{"ha":632,"x_min":0,"x_max":0,"o":"m 378 643 l 378 399 l 604 174 l 604 399 l 478 521 l 604 643 l 604 868 z m 28 521 l 378 174 l 378 399 l 250 521 l 378 643 l 378 868 z "},"‹":{"ha":404,"x_min":0,"x_max":0,"o":"m 28 521 l 376 174 l 376 399 l 250 521 l 376 643 l 376 868 z "},"›":{"ha":404,"x_min":0,"x_max":0,"o":"m 28 868 l 28 643 l 154 521 l 28 399 l 28 174 l 376 521 z "},"»":{"ha":632,"x_min":0,"x_max":0,"o":"m 28 868 l 28 643 l 154 521 l 28 399 l 28 174 l 254 399 l 254 174 l 604 521 l 254 868 l 254 643 l 382 521 l 254 399 l 254 643 z "},"‚":{"ha":338,"x_min":0,"x_max":0,"o":"m 176 0 b 72 -74 172 -60 108 -74 l 72 -147 b 265 0 175 -143 229 -107 b 310 163 290 75 310 163 l 169 264 l 28 163 l 82 0 z "},"„":{"ha":619,"x_min":0,"x_max":0,"o":"m 176 0 b 72 -74 172 -60 108 -74 l 72 -147 b 265 0 175 -143 229 -107 b 310 163 290 75 310 163 l 169 264 l 28 163 l 82 0 z m 458 0 b 354 -74 454 -60 390 -74 l 354 -147 b 547 0 457 -143 511 -107 b 592 163 572 75 592 163 l 451 264 l 310 163 l 364 0 z "},"“":{"ha":619,"x_min":0,"x_max":0,"o":"m 443 894 b 547 968 447 954 511 968 l 547 1042 b 354 894 444 1038 390 1001 b 310 732 329 819 310 732 l 450 631 l 592 732 l 538 894 z m 161 894 b 265 968 165 954 229 968 l 265 1042 b 72 894 163 1038 108 1001 b 28 732 47 819 28 732 l 168 631 l 310 732 l 256 894 z "},"”":{"ha":619,"x_min":0,"x_max":0,"o":"m 176 778 b 72 704 172 718 108 704 l 72 631 b 265 778 175 635 229 671 b 310 940 290 853 310 940 l 169 1042 l 28 940 l 82 778 z m 458 778 b 354 704 454 718 390 704 l 354 631 b 547 778 457 635 511 671 b 592 940 572 853 592 940 l 451 1042 l 310 940 l 364 778 z "},"‘":{"ha":338,"x_min":0,"x_max":0,"o":"m 161 894 b 265 968 165 954 229 968 l 265 1042 b 72 894 163 1038 108 1001 b 28 732 47 819 28 732 l 168 631 l 310 732 l 256 894 z "},"’":{"ha":338,"x_min":0,"x_max":0,"o":"m 176 778 b 72 704 172 718 108 704 l 72 631 b 265 778 175 635 229 671 b 310 940 290 853 310 940 l 169 1042 l 28 940 l 82 778 z "},",":{"ha":338,"x_min":0,"x_max":0,"o":"m 176 0 b 72 -74 172 -60 108 -74 l 72 -147 b 265 0 175 -143 229 -107 b 310 163 290 75 310 163 l 169 264 l 28 163 l 82 0 z "},".":{"ha":338,"x_min":0,"x_max":0,"o":"m 256 264 l 81 264 l 28 101 l 168 0 l 310 101 z "},":":{"ha":338,"x_min":0,"x_max":0,"o":"m 256 0 l 81 0 l 28 163 l 168 264 l 310 163 z m 256 790 l 81 790 l 28 628 l 168 526 l 310 628 z "},";":{"ha":338,"x_min":0,"x_max":0,"o":"m 176 0 b 72 -74 172 -60 108 -74 l 72 -147 b 265 0 175 -143 229 -107 b 310 163 290 75 310 163 l 169 264 l 28 163 l 82 0 z m 256 790 l 81 790 l 28 628 l 168 526 l 310 628 z "},"…":{"ha":901,"x_min":0,"x_max":0,"o":"m 310 163 l 168 264 l 28 163 l 81 0 l 256 0 z m 874 163 l 732 264 l 592 163 l 644 0 l 819 0 z m 592 163 l 450 264 l 310 163 l 363 0 l 538 0 z "},"?":{"ha":769,"x_min":0,"x_max":0,"o":"m 547 165 l 411 260 b 463 351 431 288 449 326 b 742 696 615 388 742 513 b 365 1064 742 910 583 1064 b 28 871 219 1064 92 986 l 165 778 b 364 903 192 846 274 903 b 578 694 486 903 578 821 b 506 536 578 628 550 574 b 286 738 497 649 419 739 b 96 551 179 736 96 656 b 371 343 96 407 236 343 b 411 344 385 343 397 343 b 400 260 410 321 406 285 l 265 163 l 318 0 l 493 0 z m 408 490 b 240 556 367 481 240 490 b 296 608 240 593 271 608 b 408 490 360 608 393 556 z "},"¿":{"ha":769,"x_min":0,"x_max":0,"o":"m 222 876 l 358 782 b 307 690 339 754 321 715 b 28 346 154 654 28 529 b 404 -22 28 132 186 -22 b 742 171 550 -22 678 56 l 604 264 b 406 139 578 196 496 139 b 192 347 283 139 192 221 b 264 506 192 414 219 468 b 483 307 272 393 350 306 b 671 490 590 308 671 386 b 399 701 671 635 533 701 b 358 700 385 701 372 701 b 369 782 360 724 364 757 l 504 879 l 451 1042 l 276 1042 z m 361 551 b 529 486 403 561 529 551 b 474 433 529 449 499 433 b 361 551 410 433 376 486 z "},"!":{"ha":338,"x_min":0,"x_max":0,"o":"m 310 165 l 174 260 l 272 1042 l 64 1042 l 163 260 l 28 163 l 81 0 l 256 0 z "},"¡":{"ha":338,"x_min":0,"x_max":0,"o":"m 256 1042 l 81 1042 l 28 879 l 163 782 l 64 0 l 272 0 l 174 782 l 310 876 z "},"(":{"ha":306,"x_min":0,"x_max":0,"o":"m 28 521 b 278 -22 28 299 136 99 l 278 117 b 128 521 194 213 128 356 b 278 925 128 686 194 829 l 278 1064 b 28 521 136 943 28 743 z "},")":{"ha":306,"x_min":0,"x_max":0,"o":"m 278 521 b 28 1064 278 743 169 943 l 28 925 b 178 521 111 829 178 686 b 28 117 178 356 111 213 l 28 -22 b 278 521 169 99 278 299 z "},"[":{"ha":306,"x_min":0,"x_max":0,"o":"m 278 0 l 278 96 l 128 96 l 128 946 l 278 946 l 278 1042 l 28 1042 l 28 0 z "},"]":{"ha":306,"x_min":0,"x_max":0,"o":"m 278 0 l 278 1042 l 28 1042 l 28 946 l 178 946 l 178 96 l 28 96 l 28 0 z "},"{":{"ha":326,"x_min":0,"x_max":0,"o":"m 28 471 b 165 157 150 439 189 315 b 199 -22 154 83 175 1 l 299 -22 b 268 157 272 4 263 101 b 115 521 286 342 246 479 b 268 885 246 563 286 700 b 299 1064 263 940 272 1038 l 199 1064 b 165 885 175 1040 154 958 b 28 571 189 726 150 603 z "},"}":{"ha":326,"x_min":0,"x_max":0,"o":"m 299 571 b 161 885 176 603 138 726 b 128 1064 172 958 151 1040 l 28 1064 b 58 885 54 1038 64 940 b 211 521 40 700 81 563 b 58 157 81 479 40 342 b 28 -22 64 101 54 4 l 128 -22 b 161 157 151 1 172 83 b 299 471 138 315 176 439 z "},"/":{"ha":597,"x_min":0,"x_max":0,"o":"m 28 0 l 128 0 l 569 1042 l 469 1042 z "},"\\":{"ha":597,"x_min":0,"x_max":0,"o":"m 128 1042 l 28 1042 l 469 0 l 569 0 z "},"*":{"ha":767,"x_min":0,"x_max":0,"o":"m 383 643 b 446 586 415 643 446 618 b 429 515 446 560 429 540 b 531 414 429 460 475 414 b 632 515 586 414 632 460 b 543 617 632 568 594 613 b 499 640 526 618 510 625 b 511 722 479 665 485 703 b 579 724 531 738 558 738 b 638 704 596 713 615 704 b 739 806 693 704 739 750 b 638 907 739 861 693 907 b 542 836 594 907 556 875 b 501 801 535 819 519 806 b 431 844 469 794 438 814 b 451 906 425 868 435 892 b 485 979 471 924 485 950 b 383 1081 485 1035 439 1081 b 282 979 328 1081 282 1035 b 315 906 282 950 296 924 b 336 844 332 892 342 868 b 265 801 329 814 297 794 b 225 836 247 806 232 819 b 129 907 211 875 172 907 b 28 806 74 907 28 861 b 129 704 28 750 74 704 b 188 724 151 704 171 713 b 256 722 208 738 236 738 b 268 640 282 703 288 665 b 224 617 257 625 240 618 b 135 515 172 613 135 568 b 236 414 135 460 181 414 b 338 515 292 414 338 460 b 321 586 338 540 321 560 b 383 643 321 618 351 643 z "},"•":{"ha":796,"x_min":0,"x_max":0,"o":"m 28 521 b 397 150 28 311 192 150 b 768 521 603 150 768 311 b 397 893 768 731 603 893 b 28 521 192 893 28 731 z "},"&":{"ha":989,"x_min":0,"x_max":0,"o":"m 793 465 b 735 319 785 414 765 364 l 544 708 b 610 851 579 740 610 788 b 356 1064 610 985 501 1064 b 47 769 179 1064 47 953 b 165 535 47 678 103 579 b 28 292 97 499 28 410 b 389 -21 28 92 175 -21 b 683 58 506 -21 600 7 l 713 0 l 890 0 l 811 163 b 961 465 888 246 940 351 z m 615 200 b 406 139 563 161 486 139 b 204 294 261 139 204 211 b 357 450 204 376 274 443 l 357 615 b 218 767 278 624 218 692 b 360 911 218 850 267 911 b 439 847 403 911 439 889 b 338 771 439 800 388 774 z "},"†":{"ha":757,"x_min":0,"x_max":0,"o":"m 28 707 l 28 607 l 329 607 l 329 0 l 429 0 l 429 607 l 729 607 l 729 707 l 429 707 l 429 1042 l 329 1042 l 329 707 z "},"‡":{"ha":757,"x_min":0,"x_max":0,"o":"m 329 335 l 329 0 l 429 0 l 429 335 l 729 335 l 729 435 l 429 435 l 429 607 l 729 607 l 729 707 l 429 707 l 429 1042 l 329 1042 l 329 707 l 28 707 l 28 607 l 329 607 l 329 435 l 28 435 l 28 335 z "},"¶":{"ha":1161,"x_min":0,"x_max":0,"o":"m 411 657 b 314 506 411 549 361 506 b 215 664 256 506 215 569 b 439 890 215 799 299 890 b 681 754 522 890 615 863 l 681 -185 l 864 -185 l 864 613 b 908 607 881 607 897 607 b 1133 833 1031 607 1133 699 b 908 1058 1133 974 1031 1058 b 718 953 824 1058 758 1017 b 438 1064 638 1029 542 1064 b 29 661 219 1064 29 932 b 300 313 29 428 163 313 b 411 354 342 313 382 325 l 411 -185 l 594 -183 l 594 675 l 411 675 z m 911 776 b 864 790 892 776 876 782 l 864 826 b 913 883 864 853 881 883 b 964 831 942 883 964 861 b 911 776 964 800 942 776 z "},"©":{"ha":1142,"x_min":0,"x_max":0,"o":"m 28 521 b 571 -22 28 214 271 -22 b 1114 521 871 -22 1114 214 b 571 1064 1114 828 871 1064 b 28 521 271 1064 28 828 z m 128 521 b 571 967 128 772 324 967 b 1015 521 817 967 1015 772 b 571 75 1015 269 817 75 b 128 521 324 75 128 269 z m 579 299 b 358 521 453 299 358 394 b 579 744 358 647 453 744 b 764 638 663 744 726 703 l 840 714 b 579 847 781 796 688 847 b 253 521 399 847 253 706 b 579 194 253 336 399 194 b 840 328 686 194 781 247 l 764 404 b 579 299 726 339 663 299 z "},"®":{"ha":1142,"x_min":0,"x_max":0,"o":"m 28 521 b 571 -22 28 214 271 -22 b 1114 521 871 -22 1114 214 b 571 1064 1114 828 871 1064 b 28 521 271 1064 28 828 z m 128 521 b 571 967 128 772 324 967 b 1015 521 817 967 1015 772 b 571 75 1015 269 817 75 b 128 521 324 75 128 269 z m 603 469 b 699 360 668 469 693 422 b 721 208 701 336 707 282 l 835 208 b 811 361 819 285 814 331 b 736 517 801 449 772 489 b 803 651 775 549 803 594 b 603 833 803 764 710 833 l 349 833 l 349 208 l 458 208 l 458 469 z m 693 651 b 606 574 693 600 653 574 l 458 574 l 458 729 l 606 729 b 693 651 653 729 693 703 z "},"™":{"ha":1042,"x_min":0,"x_max":0,"o":"m 28 939 l 193 939 l 193 418 l 303 418 l 303 939 l 468 939 l 468 1043 l 28 1043 z m 679 1043 l 501 1043 l 501 418 l 608 418 l 608 878 l 711 418 l 804 418 l 907 878 l 907 418 l 1014 418 l 1014 1043 l 836 1043 l 757 663 z "},"@":{"ha":1011,"x_min":0,"x_max":0,"o":"m 567 -22 b 903 81 686 -24 813 15 l 865 181 b 567 74 788 113 679 74 b 128 518 303 74 128 253 b 569 968 128 783 306 968 b 883 693 746 968 883 850 b 758 479 883 590 835 519 l 632 831 l 517 831 l 296 210 l 404 210 l 453 353 b 571 336 490 343 531 336 b 699 350 615 336 658 340 l 749 210 l 857 210 l 793 383 b 983 693 906 439 983 542 b 569 1064 983 917 788 1064 b 28 518 260 1064 28 839 b 567 -22 28 196 260 -19 z m 574 706 l 665 446 b 571 438 635 440 604 438 b 485 449 540 438 513 442 z "}}}
